%TF.GenerationSoftware,KiCad,Pcbnew,9.0.3*%
%TF.CreationDate,2025-12-31T13:04:55+01:00*%
%TF.ProjectId,Lars-10W-RGBW-V1,4c617273-2d31-4305-972d-524742572d56,rev?*%
%TF.SameCoordinates,Original*%
%TF.FileFunction,Copper,L2,Inr*%
%TF.FilePolarity,Positive*%
%FSLAX46Y46*%
G04 Gerber Fmt 4.6, Leading zero omitted, Abs format (unit mm)*
G04 Created by KiCad (PCBNEW 9.0.3) date 2025-12-31 13:04:55*
%MOMM*%
%LPD*%
G01*
G04 APERTURE LIST*
G04 Aperture macros list*
%AMRoundRect*
0 Rectangle with rounded corners*
0 $1 Rounding radius*
0 $2 $3 $4 $5 $6 $7 $8 $9 X,Y pos of 4 corners*
0 Add a 4 corners polygon primitive as box body*
4,1,4,$2,$3,$4,$5,$6,$7,$8,$9,$2,$3,0*
0 Add four circle primitives for the rounded corners*
1,1,$1+$1,$2,$3*
1,1,$1+$1,$4,$5*
1,1,$1+$1,$6,$7*
1,1,$1+$1,$8,$9*
0 Add four rect primitives between the rounded corners*
20,1,$1+$1,$2,$3,$4,$5,0*
20,1,$1+$1,$4,$5,$6,$7,0*
20,1,$1+$1,$6,$7,$8,$9,0*
20,1,$1+$1,$8,$9,$2,$3,0*%
G04 Aperture macros list end*
%TA.AperFunction,ComponentPad*%
%ADD10RoundRect,0.250000X-0.750000X0.750000X-0.750000X-0.750000X0.750000X-0.750000X0.750000X0.750000X0*%
%TD*%
%TA.AperFunction,ComponentPad*%
%ADD11C,2.000000*%
%TD*%
%TA.AperFunction,HeatsinkPad*%
%ADD12C,0.500000*%
%TD*%
%TA.AperFunction,ComponentPad*%
%ADD13R,0.500000X0.900000*%
%TD*%
%TA.AperFunction,HeatsinkPad*%
%ADD14O,2.100000X1.000000*%
%TD*%
%TA.AperFunction,HeatsinkPad*%
%ADD15O,1.800000X1.000000*%
%TD*%
%TA.AperFunction,ViaPad*%
%ADD16C,0.600000*%
%TD*%
%TA.AperFunction,ViaPad*%
%ADD17C,0.450000*%
%TD*%
%TA.AperFunction,ViaPad*%
%ADD18C,0.800000*%
%TD*%
%TA.AperFunction,ViaPad*%
%ADD19C,1.000000*%
%TD*%
%TA.AperFunction,Conductor*%
%ADD20C,0.600000*%
%TD*%
G04 APERTURE END LIST*
D10*
%TO.N,Net-(J601-Pin_1)*%
%TO.C,J601*%
X108900000Y-75900000D03*
D11*
%TO.N,Net-(J601-Pin_2)*%
X108900000Y-78440000D03*
%TD*%
D12*
%TO.N,GND*%
%TO.C,U101*%
X123680000Y-55420000D03*
X123680000Y-56420000D03*
X123680000Y-57420000D03*
X124680000Y-55420000D03*
X124680000Y-56420000D03*
X124680000Y-57420000D03*
X125680000Y-55420000D03*
X125680000Y-56420000D03*
X125680000Y-57420000D03*
%TD*%
%TO.N,GND*%
%TO.C,U302*%
X133100000Y-68400000D03*
X133100000Y-67300000D03*
%TD*%
%TO.N,GND*%
%TO.C,U402*%
X144500000Y-66450000D03*
X144500000Y-65350000D03*
%TD*%
D13*
%TO.N,GND*%
%TO.C,AE101*%
X111000000Y-53600000D03*
%TD*%
D12*
%TO.N,GND*%
%TO.C,U202*%
X130605000Y-47605000D03*
X130605000Y-46505000D03*
%TD*%
%TO.N,GND*%
%TO.C,U1*%
X118625000Y-67225000D03*
X118625000Y-68375000D03*
X119775000Y-67225000D03*
X119775000Y-68375000D03*
%TD*%
%TO.N,GND*%
%TO.C,U502*%
X144500000Y-48000000D03*
X144500000Y-46900000D03*
%TD*%
D14*
%TO.N,GND*%
%TO.C,J1*%
X111905000Y-64080000D03*
D15*
X107725000Y-64080000D03*
D14*
X111905000Y-72720000D03*
D15*
X107725000Y-72720000D03*
%TD*%
D16*
%TO.N,GND*%
X117800000Y-59450000D03*
D17*
X111900000Y-56400000D03*
D16*
X121200000Y-75000000D03*
X115500000Y-61400000D03*
X146200000Y-71100000D03*
X126700000Y-64000000D03*
D17*
X113167951Y-56321547D03*
D16*
X120900000Y-53000000D03*
X137600000Y-56300000D03*
D17*
X106800000Y-56300000D03*
D16*
X141200000Y-54300000D03*
X120300000Y-76700000D03*
X140500000Y-53500000D03*
D17*
X113500000Y-71800000D03*
X115500000Y-72600000D03*
D16*
X147500000Y-69600000D03*
X138400000Y-54800000D03*
X138000000Y-62000000D03*
D17*
X112100000Y-55700000D03*
X107200000Y-60100000D03*
D16*
X151100000Y-80000000D03*
D17*
X113500000Y-52800000D03*
D16*
X139200000Y-56100000D03*
X136900000Y-55800000D03*
X135000000Y-40100000D03*
X117800000Y-81000000D03*
X149300000Y-42500000D03*
X118700000Y-46700000D03*
D17*
X122900000Y-71600000D03*
D16*
X113300000Y-46400000D03*
X138400000Y-55700000D03*
D17*
X111600000Y-43300000D03*
D16*
X141100000Y-55100000D03*
X117700000Y-56400000D03*
D17*
X114700000Y-52400000D03*
X113400000Y-72700000D03*
D16*
X118000000Y-76500000D03*
X149900000Y-67500000D03*
X145400000Y-71700000D03*
X132800000Y-80600000D03*
X139400000Y-66000000D03*
X150700000Y-70000000D03*
D17*
X115797103Y-65243662D03*
X115470201Y-71721779D03*
D16*
X121200000Y-76000000D03*
D17*
X111600000Y-49700000D03*
D16*
X122300000Y-62000000D03*
D17*
X111600000Y-48900000D03*
D16*
X140700000Y-69200000D03*
D17*
X116000000Y-53900000D03*
X111600000Y-44900000D03*
D16*
X120800000Y-66100000D03*
X133900000Y-40300000D03*
D17*
X117800000Y-50900000D03*
X115100000Y-53400000D03*
X107500000Y-61500000D03*
X111600000Y-41700000D03*
D16*
X138900000Y-69500000D03*
X137000000Y-57200000D03*
X136500000Y-56400000D03*
X134200000Y-79600000D03*
X123300000Y-77700000D03*
X138200000Y-48000000D03*
X134600000Y-77100000D03*
X151100000Y-57000000D03*
X141600000Y-68900000D03*
X140700000Y-68200000D03*
D17*
X111600000Y-50500000D03*
D16*
X124400000Y-47900000D03*
D17*
X111600000Y-45700000D03*
D16*
X138000000Y-63000000D03*
D17*
X113100000Y-56800000D03*
D16*
X129300000Y-79600000D03*
X138900000Y-47200000D03*
X149800000Y-81000000D03*
D17*
X113400000Y-54600000D03*
X110300000Y-60500000D03*
D16*
X144300000Y-42900000D03*
D17*
X110300000Y-61000000D03*
X122200000Y-65000000D03*
X110200000Y-61600000D03*
D16*
X133100000Y-48300000D03*
X143800000Y-70600000D03*
X144300000Y-77000000D03*
D17*
X117100000Y-62900000D03*
X112600000Y-74000000D03*
D16*
X120600000Y-53700000D03*
D17*
X110500000Y-58200000D03*
X112900000Y-59000000D03*
X127300000Y-70500000D03*
D16*
X118000000Y-52000000D03*
X139300000Y-50600000D03*
X135200000Y-75800000D03*
D17*
X116300000Y-55300000D03*
D16*
X112500000Y-41300000D03*
D17*
X110000000Y-57100000D03*
X111600000Y-47300000D03*
D16*
X140900000Y-49500000D03*
X136405000Y-48705000D03*
D17*
X117097702Y-70097702D03*
D16*
X130800000Y-48900000D03*
D17*
X110000000Y-56300000D03*
D16*
X137600000Y-55200000D03*
X139200000Y-57100000D03*
D17*
X108400000Y-57000000D03*
D16*
X130700000Y-45200000D03*
X151400000Y-69400000D03*
D17*
X111600000Y-48100000D03*
D16*
X132500000Y-55000000D03*
D17*
X111600000Y-42500000D03*
D16*
X119100000Y-76600000D03*
D17*
X113000000Y-58500000D03*
X110900000Y-56300000D03*
D16*
X137400000Y-43900000D03*
X148300000Y-40200000D03*
D17*
X108200000Y-61700000D03*
D16*
X149500000Y-60700000D03*
D17*
X115800000Y-55300000D03*
D16*
X139700000Y-49400000D03*
D17*
X113874999Y-62928749D03*
D16*
X142300000Y-80500000D03*
X121500000Y-53700000D03*
X144600000Y-71100000D03*
X139900000Y-50600000D03*
X121600000Y-61800000D03*
D17*
X116800000Y-55300000D03*
X107200000Y-58700000D03*
D16*
X141800000Y-55700000D03*
X135700000Y-54800000D03*
D17*
X130600000Y-71400000D03*
X112200000Y-50900000D03*
X109200000Y-56300000D03*
X129700000Y-70300000D03*
D16*
X112100000Y-45200000D03*
X136500000Y-53800000D03*
D17*
X109700000Y-61800000D03*
D16*
X135400000Y-79200000D03*
D17*
X107300000Y-57600000D03*
D16*
X145500000Y-76500000D03*
D17*
X111600000Y-46500000D03*
D16*
X140000000Y-46200000D03*
D17*
X107800000Y-57000000D03*
X113900000Y-55700000D03*
D16*
X140400000Y-54300000D03*
D17*
X111600000Y-40900000D03*
D16*
X116800000Y-57400000D03*
X135700000Y-77200000D03*
X139300000Y-54000000D03*
X119500000Y-55500000D03*
X127000000Y-80300000D03*
X141800000Y-63900000D03*
X118200000Y-48600000D03*
X138400000Y-56700000D03*
X131600000Y-55000000D03*
X135600000Y-49000000D03*
D17*
X111200000Y-60100000D03*
D16*
X138400000Y-50600000D03*
D17*
X113100000Y-57900000D03*
X110800000Y-60400000D03*
X111600000Y-39300000D03*
D16*
X144100000Y-50200000D03*
D17*
X112500000Y-55200000D03*
X111600000Y-44100000D03*
D16*
X150800000Y-64100000D03*
D17*
X113100000Y-57300000D03*
D16*
X117500000Y-73100000D03*
X150600000Y-62400000D03*
X139000000Y-80400000D03*
X119300000Y-56400000D03*
D17*
X113500000Y-56000000D03*
X108400000Y-56300000D03*
D16*
X140000000Y-48200000D03*
X118900000Y-53700000D03*
X121400000Y-77100000D03*
X137600000Y-54100000D03*
D17*
X115439705Y-73888114D03*
D16*
X139200000Y-55200000D03*
X144000000Y-49100000D03*
X137800000Y-57700000D03*
X113000000Y-80700000D03*
D17*
X115300000Y-55500000D03*
X109300000Y-57000000D03*
D16*
X112600000Y-39800000D03*
D17*
X127100000Y-69000000D03*
D16*
X143800000Y-71700000D03*
X147000000Y-40300000D03*
X144400000Y-80200000D03*
D17*
X113800000Y-53800000D03*
X107200000Y-59500000D03*
X111600000Y-55100000D03*
X107200000Y-58100000D03*
X114900000Y-55800000D03*
X111900000Y-57800000D03*
D16*
X112800000Y-43400000D03*
X150700000Y-44800000D03*
X124300000Y-77700000D03*
X131400000Y-56800000D03*
X150200000Y-59100000D03*
X126100000Y-61900000D03*
X123700000Y-78400000D03*
D17*
X111600000Y-56000000D03*
X131200000Y-75600000D03*
D16*
X144700000Y-44100000D03*
X122300000Y-77700000D03*
X123983591Y-45516409D03*
X140900000Y-50600000D03*
D17*
X117000000Y-64100000D03*
D16*
X145100000Y-67900000D03*
D17*
X115300000Y-73200000D03*
D16*
X131200000Y-76400000D03*
X123900000Y-61100000D03*
D17*
X111600000Y-53100000D03*
D16*
X140200000Y-55800000D03*
X139980331Y-65380331D03*
X135500000Y-41100000D03*
D17*
X112600000Y-52300000D03*
D16*
X135500000Y-42100000D03*
D17*
X114400000Y-55900000D03*
D16*
X150300000Y-49100000D03*
X129900000Y-49600000D03*
X151300000Y-63200000D03*
X136300000Y-57800000D03*
D17*
X118100000Y-51300000D03*
D16*
X142600000Y-54900000D03*
D17*
X128175840Y-58692654D03*
X130700000Y-75800000D03*
D16*
X118085873Y-72456878D03*
D17*
X123100000Y-66400000D03*
D16*
X124200000Y-49900000D03*
D17*
X111600000Y-40100000D03*
D16*
X143400000Y-80400000D03*
D17*
X130200000Y-74400000D03*
X115497439Y-74927327D03*
X107200000Y-61000000D03*
D16*
X132800000Y-40200000D03*
X140900000Y-56600000D03*
X118000000Y-47500000D03*
X138800000Y-49500000D03*
D17*
X116900000Y-53900000D03*
D16*
X113400000Y-42200000D03*
X150800000Y-45700000D03*
X132400000Y-56800000D03*
D17*
X111600000Y-52100000D03*
X106000000Y-56300000D03*
X126400000Y-68200000D03*
D16*
X139800000Y-47300000D03*
X142900000Y-65900000D03*
D17*
X113300000Y-51200000D03*
X123400000Y-71500000D03*
D16*
X122000000Y-69900000D03*
X126900000Y-79000000D03*
X118600000Y-56400000D03*
X144700000Y-69700000D03*
D17*
X120500000Y-56400000D03*
D16*
X140200000Y-57200000D03*
D17*
X114100000Y-51700000D03*
D16*
X125669669Y-65330331D03*
X137100000Y-76700000D03*
X145400000Y-70600000D03*
D17*
X111500000Y-58600000D03*
D16*
X119800000Y-53700000D03*
X130700000Y-43400000D03*
X136700000Y-54800000D03*
D17*
X121600000Y-65800000D03*
D16*
X118600000Y-55500000D03*
D17*
X116300000Y-62900000D03*
X126600000Y-69900000D03*
D16*
X149500000Y-41700000D03*
X132100000Y-75600000D03*
D17*
X111700000Y-59900000D03*
D16*
X117200000Y-79100000D03*
X140400000Y-69900000D03*
X123800000Y-63934300D03*
X143800000Y-76000000D03*
X138900000Y-46200000D03*
X117000000Y-80300000D03*
D17*
X111900000Y-57100000D03*
X107600000Y-56300000D03*
D16*
X124500000Y-78500000D03*
X130600000Y-58100000D03*
D17*
X120300000Y-71800000D03*
X109000000Y-61800000D03*
X112600000Y-59400000D03*
X117100000Y-69400000D03*
X110400000Y-57500000D03*
D16*
X129700000Y-63200000D03*
D17*
X112200000Y-59700000D03*
D16*
X127500000Y-64200000D03*
D17*
X111600000Y-54100000D03*
X121400000Y-64200000D03*
%TO.N,+5V*%
X118000000Y-62301000D03*
D16*
%TO.N,/LedDriverGreen/LED+*%
X133700000Y-61800000D03*
D18*
X132400000Y-58500000D03*
D16*
%TO.N,/LedDriverBlue/LED+*%
X134400000Y-60900000D03*
X133500000Y-56800000D03*
%TO.N,/LedDriverWhite/LED+*%
X133400000Y-55000000D03*
D17*
%TO.N,/Vbus*%
X122500000Y-64100000D03*
X116300000Y-63600000D03*
D19*
X117750000Y-77850000D03*
D16*
X125700000Y-73000000D03*
X123350000Y-70050000D03*
D17*
%TO.N,Net-(D1-A)*%
X114700000Y-66400000D03*
%TO.N,Net-(J1-CC1)*%
X111400000Y-67200000D03*
X120400000Y-70100000D03*
%TO.N,Net-(J1-CC2)*%
X115550000Y-70950000D03*
X121000000Y-70100000D03*
D16*
%TO.N,Net-(U602-FB)*%
X127500000Y-77900000D03*
X123500000Y-73294098D03*
D17*
%TO.N,Net-(U1-DN)*%
X119600000Y-70264252D03*
X116664124Y-67435876D03*
%TO.N,Net-(U1-DP)*%
X116500000Y-68200000D03*
X119100000Y-70600000D03*
%TD*%
D20*
%TO.N,GND*%
X111000000Y-53600000D02*
X112600000Y-53600000D01*
X112600000Y-53600000D02*
X112700000Y-53700000D01*
%TD*%
%TA.AperFunction,Conductor*%
%TO.N,GND*%
G36*
X151642539Y-39020185D02*
G01*
X151688294Y-39072989D01*
X151699500Y-39124500D01*
X151699500Y-81175500D01*
X151679815Y-81242539D01*
X151627011Y-81288294D01*
X151575500Y-81299500D01*
X105724500Y-81299500D01*
X105657461Y-81279815D01*
X105611706Y-81227011D01*
X105600500Y-81175500D01*
X105600500Y-75118475D01*
X107749500Y-75118475D01*
X107749500Y-76681517D01*
X107760292Y-76749657D01*
X107764354Y-76775304D01*
X107821950Y-76888342D01*
X107821952Y-76888344D01*
X107821954Y-76888347D01*
X107911652Y-76978045D01*
X107911654Y-76978046D01*
X107911658Y-76978050D01*
X108024694Y-77035645D01*
X108024698Y-77035647D01*
X108118475Y-77050499D01*
X108118481Y-77050500D01*
X108742873Y-77050499D01*
X108809910Y-77070183D01*
X108855665Y-77122987D01*
X108865609Y-77192146D01*
X108836584Y-77255702D01*
X108777806Y-77293476D01*
X108762270Y-77296972D01*
X108630589Y-77317829D01*
X108458363Y-77373787D01*
X108458360Y-77373788D01*
X108297002Y-77456006D01*
X108150505Y-77562441D01*
X108150500Y-77562445D01*
X108022445Y-77690500D01*
X108022441Y-77690505D01*
X107916006Y-77837002D01*
X107833788Y-77998360D01*
X107833787Y-77998363D01*
X107777829Y-78170589D01*
X107749500Y-78349448D01*
X107749500Y-78530551D01*
X107777829Y-78709410D01*
X107833787Y-78881636D01*
X107833788Y-78881639D01*
X107916006Y-79042997D01*
X108022441Y-79189494D01*
X108022445Y-79189499D01*
X108150500Y-79317554D01*
X108150505Y-79317558D01*
X108278287Y-79410396D01*
X108297006Y-79423996D01*
X108402484Y-79477740D01*
X108458360Y-79506211D01*
X108458363Y-79506212D01*
X108544476Y-79534191D01*
X108630591Y-79562171D01*
X108713429Y-79575291D01*
X108809449Y-79590500D01*
X108809454Y-79590500D01*
X108990551Y-79590500D01*
X109077259Y-79576765D01*
X109169409Y-79562171D01*
X109341639Y-79506211D01*
X109502994Y-79423996D01*
X109649501Y-79317553D01*
X109777553Y-79189501D01*
X109883996Y-79042994D01*
X109966211Y-78881639D01*
X110022171Y-78709409D01*
X110036765Y-78617259D01*
X110050500Y-78530551D01*
X110050500Y-78349448D01*
X110034019Y-78245397D01*
X110022171Y-78170591D01*
X109994191Y-78084476D01*
X109966212Y-77998363D01*
X109966211Y-77998360D01*
X109923263Y-77914071D01*
X117099499Y-77914071D01*
X117124497Y-78039738D01*
X117124499Y-78039744D01*
X117173533Y-78158124D01*
X117173538Y-78158133D01*
X117244723Y-78264668D01*
X117244726Y-78264672D01*
X117335327Y-78355273D01*
X117335331Y-78355276D01*
X117441866Y-78426461D01*
X117441872Y-78426464D01*
X117441873Y-78426465D01*
X117560256Y-78475501D01*
X117560260Y-78475501D01*
X117560261Y-78475502D01*
X117685928Y-78500500D01*
X117685931Y-78500500D01*
X117814071Y-78500500D01*
X117898615Y-78483682D01*
X117939744Y-78475501D01*
X118058127Y-78426465D01*
X118164669Y-78355276D01*
X118255276Y-78264669D01*
X118326465Y-78158127D01*
X118375501Y-78039744D01*
X118400500Y-77914069D01*
X118400500Y-77840691D01*
X127049500Y-77840691D01*
X127049500Y-77959309D01*
X127080201Y-78073886D01*
X127139511Y-78176613D01*
X127223387Y-78260489D01*
X127326114Y-78319799D01*
X127440691Y-78350500D01*
X127440694Y-78350500D01*
X127559306Y-78350500D01*
X127559309Y-78350500D01*
X127673886Y-78319799D01*
X127776613Y-78260489D01*
X127860489Y-78176613D01*
X127919799Y-78073886D01*
X127950500Y-77959309D01*
X127950500Y-77840691D01*
X127919799Y-77726114D01*
X127860489Y-77623387D01*
X127776613Y-77539511D01*
X127673886Y-77480201D01*
X127559309Y-77449500D01*
X127440691Y-77449500D01*
X127326114Y-77480201D01*
X127326112Y-77480201D01*
X127326112Y-77480202D01*
X127223387Y-77539511D01*
X127223384Y-77539513D01*
X127139513Y-77623384D01*
X127139511Y-77623387D01*
X127100764Y-77690499D01*
X127080201Y-77726114D01*
X127049500Y-77840691D01*
X118400500Y-77840691D01*
X118400500Y-77785931D01*
X118400500Y-77785928D01*
X118375502Y-77660261D01*
X118375501Y-77660260D01*
X118375501Y-77660256D01*
X118326465Y-77541873D01*
X118326464Y-77541872D01*
X118326461Y-77541866D01*
X118255276Y-77435331D01*
X118255273Y-77435327D01*
X118164672Y-77344726D01*
X118164668Y-77344723D01*
X118058133Y-77273538D01*
X118058124Y-77273533D01*
X117939744Y-77224499D01*
X117939738Y-77224497D01*
X117814071Y-77199500D01*
X117814069Y-77199500D01*
X117685931Y-77199500D01*
X117685929Y-77199500D01*
X117560261Y-77224497D01*
X117560255Y-77224499D01*
X117441875Y-77273533D01*
X117441866Y-77273538D01*
X117335331Y-77344723D01*
X117335327Y-77344726D01*
X117244726Y-77435327D01*
X117244723Y-77435331D01*
X117173538Y-77541866D01*
X117173533Y-77541875D01*
X117124499Y-77660255D01*
X117124497Y-77660261D01*
X117099500Y-77785928D01*
X117099500Y-77785931D01*
X117099500Y-77914069D01*
X117099500Y-77914071D01*
X117099499Y-77914071D01*
X109923263Y-77914071D01*
X109883995Y-77837004D01*
X109777558Y-77690505D01*
X109777554Y-77690500D01*
X109649499Y-77562445D01*
X109649494Y-77562441D01*
X109502997Y-77456006D01*
X109502996Y-77456005D01*
X109502994Y-77456004D01*
X109451300Y-77429664D01*
X109341639Y-77373788D01*
X109341636Y-77373787D01*
X109169410Y-77317829D01*
X109037728Y-77296972D01*
X108974594Y-77267042D01*
X108937663Y-77207731D01*
X108938661Y-77137868D01*
X108977271Y-77079636D01*
X109041235Y-77051522D01*
X109057120Y-77050499D01*
X109681518Y-77050499D01*
X109775304Y-77035646D01*
X109888342Y-76978050D01*
X109978050Y-76888342D01*
X110035646Y-76775304D01*
X110035646Y-76775302D01*
X110035647Y-76775301D01*
X110050500Y-76681524D01*
X110050500Y-76419398D01*
X125399500Y-76419398D01*
X125399500Y-76524852D01*
X125426793Y-76626712D01*
X125479520Y-76718038D01*
X125554087Y-76792605D01*
X125645413Y-76845332D01*
X125747273Y-76872625D01*
X125747275Y-76872625D01*
X125852725Y-76872625D01*
X125852727Y-76872625D01*
X125954587Y-76845332D01*
X126045913Y-76792605D01*
X126120480Y-76718038D01*
X126173207Y-76626712D01*
X126200500Y-76524852D01*
X126200500Y-76419398D01*
X126173207Y-76317538D01*
X126120480Y-76226212D01*
X126045913Y-76151645D01*
X125954587Y-76098918D01*
X125852727Y-76071625D01*
X125747273Y-76071625D01*
X125645413Y-76098918D01*
X125645410Y-76098919D01*
X125554085Y-76151646D01*
X125479521Y-76226210D01*
X125426794Y-76317535D01*
X125426793Y-76317538D01*
X125399500Y-76419398D01*
X110050500Y-76419398D01*
X110050500Y-76411271D01*
X110050499Y-75118482D01*
X110050498Y-75118475D01*
X110035646Y-75024696D01*
X109978050Y-74911658D01*
X109978046Y-74911654D01*
X109978045Y-74911652D01*
X109888347Y-74821954D01*
X109888344Y-74821952D01*
X109888342Y-74821950D01*
X109811517Y-74782805D01*
X109775301Y-74764352D01*
X109681524Y-74749500D01*
X108118482Y-74749500D01*
X108037519Y-74762323D01*
X108024696Y-74764354D01*
X107911658Y-74821950D01*
X107911657Y-74821951D01*
X107911652Y-74821954D01*
X107821954Y-74911652D01*
X107821951Y-74911657D01*
X107764352Y-75024698D01*
X107749500Y-75118475D01*
X105600500Y-75118475D01*
X105600500Y-74547273D01*
X150199500Y-74547273D01*
X150199500Y-74652727D01*
X150226793Y-74754587D01*
X150279520Y-74845913D01*
X150354087Y-74920480D01*
X150445413Y-74973207D01*
X150547273Y-75000500D01*
X150547275Y-75000500D01*
X150652725Y-75000500D01*
X150652727Y-75000500D01*
X150754587Y-74973207D01*
X150845913Y-74920480D01*
X150920480Y-74845913D01*
X150973207Y-74754587D01*
X151000500Y-74652727D01*
X151000500Y-74547273D01*
X150973207Y-74445413D01*
X150920480Y-74354087D01*
X150845913Y-74279520D01*
X150754587Y-74226793D01*
X150652727Y-74199500D01*
X150547273Y-74199500D01*
X150445413Y-74226793D01*
X150445410Y-74226794D01*
X150354085Y-74279521D01*
X150279521Y-74354085D01*
X150226794Y-74445410D01*
X150226793Y-74445413D01*
X150199500Y-74547273D01*
X105600500Y-74547273D01*
X105600500Y-73234789D01*
X123049500Y-73234789D01*
X123049500Y-73353407D01*
X123080201Y-73467984D01*
X123139511Y-73570711D01*
X123223387Y-73654587D01*
X123326114Y-73713897D01*
X123440691Y-73744598D01*
X123440694Y-73744598D01*
X123559306Y-73744598D01*
X123559309Y-73744598D01*
X123673886Y-73713897D01*
X123776613Y-73654587D01*
X123860489Y-73570711D01*
X123919799Y-73467984D01*
X123950500Y-73353407D01*
X123950500Y-73234789D01*
X123919799Y-73120212D01*
X123860489Y-73017485D01*
X123776613Y-72933609D01*
X123673886Y-72874299D01*
X123559309Y-72843598D01*
X123440691Y-72843598D01*
X123326114Y-72874299D01*
X123326112Y-72874299D01*
X123326112Y-72874300D01*
X123223387Y-72933609D01*
X123223384Y-72933611D01*
X123139513Y-73017482D01*
X123139511Y-73017485D01*
X123080201Y-73120212D01*
X123049500Y-73234789D01*
X105600500Y-73234789D01*
X105600500Y-72697273D01*
X124273459Y-72697273D01*
X124273459Y-72802727D01*
X124300752Y-72904587D01*
X124353479Y-72995913D01*
X124428046Y-73070480D01*
X124519372Y-73123207D01*
X124621232Y-73150500D01*
X124621234Y-73150500D01*
X124726684Y-73150500D01*
X124726686Y-73150500D01*
X124828546Y-73123207D01*
X124919872Y-73070480D01*
X124994439Y-72995913D01*
X125018114Y-72954905D01*
X125068680Y-72906692D01*
X125137287Y-72893468D01*
X125202151Y-72919436D01*
X125242680Y-72976350D01*
X125249500Y-73016907D01*
X125249500Y-73059309D01*
X125280201Y-73173886D01*
X125339511Y-73276613D01*
X125423387Y-73360489D01*
X125526114Y-73419799D01*
X125640691Y-73450500D01*
X125640694Y-73450500D01*
X125759306Y-73450500D01*
X125759309Y-73450500D01*
X125873886Y-73419799D01*
X125976613Y-73360489D01*
X126060489Y-73276613D01*
X126119799Y-73173886D01*
X126150500Y-73059309D01*
X126150500Y-72940691D01*
X126119799Y-72826114D01*
X126060489Y-72723387D01*
X125976613Y-72639511D01*
X125873886Y-72580201D01*
X125759309Y-72549500D01*
X125640691Y-72549500D01*
X125526114Y-72580201D01*
X125526112Y-72580201D01*
X125526112Y-72580202D01*
X125423387Y-72639511D01*
X125423384Y-72639513D01*
X125339513Y-72723384D01*
X125339511Y-72723387D01*
X125305846Y-72781696D01*
X125255278Y-72829911D01*
X125186671Y-72843133D01*
X125121806Y-72817165D01*
X125081278Y-72760250D01*
X125074459Y-72719695D01*
X125074459Y-72697275D01*
X125074459Y-72697273D01*
X125047166Y-72595413D01*
X124994439Y-72504087D01*
X124937625Y-72447273D01*
X138199500Y-72447273D01*
X138199500Y-72552727D01*
X138226793Y-72654587D01*
X138279520Y-72745913D01*
X138354087Y-72820480D01*
X138445413Y-72873207D01*
X138547273Y-72900500D01*
X138547275Y-72900500D01*
X138652725Y-72900500D01*
X138652727Y-72900500D01*
X138754587Y-72873207D01*
X138845913Y-72820480D01*
X138920480Y-72745913D01*
X138973207Y-72654587D01*
X139000500Y-72552727D01*
X139000500Y-72447273D01*
X138973207Y-72345413D01*
X138920480Y-72254087D01*
X138845913Y-72179520D01*
X138754587Y-72126793D01*
X138652727Y-72099500D01*
X138547273Y-72099500D01*
X138445413Y-72126793D01*
X138445410Y-72126794D01*
X138354085Y-72179521D01*
X138279521Y-72254085D01*
X138226794Y-72345410D01*
X138226793Y-72345413D01*
X138199500Y-72447273D01*
X124937625Y-72447273D01*
X124919872Y-72429520D01*
X124828546Y-72376793D01*
X124726686Y-72349500D01*
X124621232Y-72349500D01*
X124519372Y-72376793D01*
X124519369Y-72376794D01*
X124428044Y-72429521D01*
X124353480Y-72504085D01*
X124300753Y-72595410D01*
X124300752Y-72595413D01*
X124273459Y-72697273D01*
X105600500Y-72697273D01*
X105600500Y-71214234D01*
X110829500Y-71214234D01*
X110829500Y-71365765D01*
X110868719Y-71512136D01*
X110906602Y-71577750D01*
X110944485Y-71643365D01*
X111051635Y-71750515D01*
X111182865Y-71826281D01*
X111329234Y-71865500D01*
X111329236Y-71865500D01*
X111480764Y-71865500D01*
X111480766Y-71865500D01*
X111627135Y-71826281D01*
X111758365Y-71750515D01*
X111865515Y-71643365D01*
X111941281Y-71512135D01*
X111980500Y-71365766D01*
X111980500Y-71214234D01*
X111941281Y-71067865D01*
X111865515Y-70936635D01*
X111758365Y-70829485D01*
X111676462Y-70782198D01*
X111627136Y-70753719D01*
X111603079Y-70747273D01*
X113199500Y-70747273D01*
X113199500Y-70852727D01*
X113226793Y-70954587D01*
X113279520Y-71045913D01*
X113354087Y-71120480D01*
X113445413Y-71173207D01*
X113547273Y-71200500D01*
X113547275Y-71200500D01*
X113652725Y-71200500D01*
X113652727Y-71200500D01*
X113754587Y-71173207D01*
X113845913Y-71120480D01*
X113920480Y-71045913D01*
X113973207Y-70954587D01*
X113987682Y-70900565D01*
X115174500Y-70900565D01*
X115174500Y-70999435D01*
X115200090Y-71094938D01*
X115249525Y-71180562D01*
X115319438Y-71250475D01*
X115405062Y-71299910D01*
X115500565Y-71325500D01*
X115500567Y-71325500D01*
X115599432Y-71325500D01*
X115599435Y-71325500D01*
X115694938Y-71299910D01*
X115780562Y-71250475D01*
X115850475Y-71180562D01*
X115899910Y-71094938D01*
X115925500Y-70999435D01*
X115925500Y-70900565D01*
X115899910Y-70805062D01*
X115850475Y-70719438D01*
X115780562Y-70649525D01*
X115694938Y-70600090D01*
X115599435Y-70574500D01*
X115500565Y-70574500D01*
X115405062Y-70600090D01*
X115405060Y-70600091D01*
X115405059Y-70600091D01*
X115319436Y-70649526D01*
X115249526Y-70719436D01*
X115200091Y-70805059D01*
X115200091Y-70805060D01*
X115200090Y-70805062D01*
X115174500Y-70900565D01*
X113987682Y-70900565D01*
X114000500Y-70852727D01*
X114000500Y-70747273D01*
X113973207Y-70645413D01*
X113920480Y-70554087D01*
X113916958Y-70550565D01*
X118724500Y-70550565D01*
X118724500Y-70649435D01*
X118750090Y-70744938D01*
X118750091Y-70744939D01*
X118750091Y-70744940D01*
X118750364Y-70745413D01*
X118799525Y-70830562D01*
X118869438Y-70900475D01*
X118955062Y-70949910D01*
X119050565Y-70975500D01*
X119050567Y-70975500D01*
X119149432Y-70975500D01*
X119149435Y-70975500D01*
X119244938Y-70949910D01*
X119330562Y-70900475D01*
X119383764Y-70847273D01*
X135099500Y-70847273D01*
X135099500Y-70952727D01*
X135126793Y-71054587D01*
X135179520Y-71145913D01*
X135254087Y-71220480D01*
X135345413Y-71273207D01*
X135447273Y-71300500D01*
X135447275Y-71300500D01*
X135552725Y-71300500D01*
X135552727Y-71300500D01*
X135654587Y-71273207D01*
X135745913Y-71220480D01*
X135820480Y-71145913D01*
X135873207Y-71054587D01*
X135900500Y-70952727D01*
X135900500Y-70847273D01*
X135873207Y-70745413D01*
X135820480Y-70654087D01*
X135745913Y-70579520D01*
X135654587Y-70526793D01*
X135552727Y-70499500D01*
X135447273Y-70499500D01*
X135345413Y-70526793D01*
X135345410Y-70526794D01*
X135254085Y-70579521D01*
X135179521Y-70654085D01*
X135126794Y-70745410D01*
X135126793Y-70745413D01*
X135099500Y-70847273D01*
X119383764Y-70847273D01*
X119400475Y-70830562D01*
X119449910Y-70744938D01*
X119456167Y-70721583D01*
X119460511Y-70712104D01*
X119476859Y-70693282D01*
X119489834Y-70671997D01*
X119499374Y-70667362D01*
X119506330Y-70659355D01*
X119530259Y-70652360D01*
X119552681Y-70641469D01*
X119573243Y-70639752D01*
X119649432Y-70639752D01*
X119649435Y-70639752D01*
X119744938Y-70614162D01*
X119830562Y-70564727D01*
X119900475Y-70494814D01*
X119949910Y-70409190D01*
X119949910Y-70409189D01*
X119952653Y-70404439D01*
X120003220Y-70356223D01*
X120071827Y-70343001D01*
X120136692Y-70368969D01*
X120147721Y-70378758D01*
X120169438Y-70400475D01*
X120255062Y-70449910D01*
X120350565Y-70475500D01*
X120350567Y-70475500D01*
X120449432Y-70475500D01*
X120449435Y-70475500D01*
X120544938Y-70449910D01*
X120630562Y-70400475D01*
X120630563Y-70400473D01*
X120637600Y-70396411D01*
X120639321Y-70399392D01*
X120689669Y-70379922D01*
X120758116Y-70393953D01*
X120762275Y-70396626D01*
X120762400Y-70396411D01*
X120769436Y-70400473D01*
X120769438Y-70400475D01*
X120855062Y-70449910D01*
X120950565Y-70475500D01*
X120950567Y-70475500D01*
X121049432Y-70475500D01*
X121049435Y-70475500D01*
X121144938Y-70449910D01*
X121230562Y-70400475D01*
X121300475Y-70330562D01*
X121349910Y-70244938D01*
X121375500Y-70149435D01*
X121375500Y-70050565D01*
X121359457Y-69990691D01*
X122899500Y-69990691D01*
X122899500Y-70109309D01*
X122930201Y-70223886D01*
X122989511Y-70326613D01*
X123073387Y-70410489D01*
X123176114Y-70469799D01*
X123290691Y-70500500D01*
X123290694Y-70500500D01*
X123409306Y-70500500D01*
X123409309Y-70500500D01*
X123523886Y-70469799D01*
X123626613Y-70410489D01*
X123710489Y-70326613D01*
X123769799Y-70223886D01*
X123800500Y-70109309D01*
X123800500Y-69990691D01*
X123769799Y-69876114D01*
X123710489Y-69773387D01*
X123626613Y-69689511D01*
X123523886Y-69630201D01*
X123447104Y-69609627D01*
X123430909Y-69605287D01*
X123409309Y-69599500D01*
X123290691Y-69599500D01*
X123176114Y-69630201D01*
X123176112Y-69630201D01*
X123176112Y-69630202D01*
X123073387Y-69689511D01*
X123073384Y-69689513D01*
X122989513Y-69773384D01*
X122989511Y-69773387D01*
X122933046Y-69871187D01*
X122930201Y-69876114D01*
X122899500Y-69990691D01*
X121359457Y-69990691D01*
X121349910Y-69955062D01*
X121300475Y-69869438D01*
X121230562Y-69799525D01*
X121144938Y-69750090D01*
X121049435Y-69724500D01*
X120950565Y-69724500D01*
X120855062Y-69750090D01*
X120855060Y-69750091D01*
X120855059Y-69750091D01*
X120814710Y-69773387D01*
X120769438Y-69799525D01*
X120769436Y-69799526D01*
X120762400Y-69803589D01*
X120760693Y-69800632D01*
X120710136Y-69820093D01*
X120641712Y-69805954D01*
X120637716Y-69803386D01*
X120637600Y-69803589D01*
X120630563Y-69799526D01*
X120630562Y-69799525D01*
X120544938Y-69750090D01*
X120449435Y-69724500D01*
X120350565Y-69724500D01*
X120255062Y-69750090D01*
X120255060Y-69750091D01*
X120255059Y-69750091D01*
X120169436Y-69799526D01*
X120099526Y-69869436D01*
X120047345Y-69959814D01*
X119996777Y-70008029D01*
X119928170Y-70021250D01*
X119863306Y-69995281D01*
X119852278Y-69985493D01*
X119830563Y-69963778D01*
X119830562Y-69963777D01*
X119744938Y-69914342D01*
X119649435Y-69888752D01*
X119550565Y-69888752D01*
X119455062Y-69914342D01*
X119455060Y-69914343D01*
X119455059Y-69914343D01*
X119369436Y-69963778D01*
X119299526Y-70033688D01*
X119250091Y-70119311D01*
X119250088Y-70119318D01*
X119246531Y-70132595D01*
X119210166Y-70192255D01*
X119147319Y-70222783D01*
X119126757Y-70224500D01*
X119050565Y-70224500D01*
X118955062Y-70250090D01*
X118955060Y-70250091D01*
X118955059Y-70250091D01*
X118869436Y-70299526D01*
X118799526Y-70369436D01*
X118750091Y-70455059D01*
X118750091Y-70455060D01*
X118750090Y-70455062D01*
X118724500Y-70550565D01*
X113916958Y-70550565D01*
X113845913Y-70479520D01*
X113754587Y-70426793D01*
X113652727Y-70399500D01*
X113547273Y-70399500D01*
X113445413Y-70426793D01*
X113445410Y-70426794D01*
X113354085Y-70479521D01*
X113279521Y-70554085D01*
X113226794Y-70645410D01*
X113226793Y-70645413D01*
X113199500Y-70747273D01*
X111603079Y-70747273D01*
X111553950Y-70734109D01*
X111480766Y-70714500D01*
X111329234Y-70714500D01*
X111182863Y-70753719D01*
X111051635Y-70829485D01*
X111051632Y-70829487D01*
X110944487Y-70936632D01*
X110944485Y-70936635D01*
X110868719Y-71067863D01*
X110829500Y-71214234D01*
X105600500Y-71214234D01*
X105600500Y-69497980D01*
X132048793Y-69497980D01*
X132048793Y-69603434D01*
X132076086Y-69705294D01*
X132128813Y-69796620D01*
X132203380Y-69871187D01*
X132294706Y-69923914D01*
X132396566Y-69951207D01*
X132396568Y-69951207D01*
X132502018Y-69951207D01*
X132502020Y-69951207D01*
X132603880Y-69923914D01*
X132695206Y-69871187D01*
X132769773Y-69796620D01*
X132822500Y-69705294D01*
X132849793Y-69603434D01*
X132849793Y-69497980D01*
X132822500Y-69396120D01*
X132769773Y-69304794D01*
X132712252Y-69247273D01*
X135199500Y-69247273D01*
X135199500Y-69352727D01*
X135226793Y-69454587D01*
X135279520Y-69545913D01*
X135354087Y-69620480D01*
X135445413Y-69673207D01*
X135547273Y-69700500D01*
X135547275Y-69700500D01*
X135652725Y-69700500D01*
X135652727Y-69700500D01*
X135754587Y-69673207D01*
X135845913Y-69620480D01*
X135920480Y-69545913D01*
X135973207Y-69454587D01*
X136000500Y-69352727D01*
X136000500Y-69247273D01*
X135973207Y-69145413D01*
X135920480Y-69054087D01*
X135845913Y-68979520D01*
X135754587Y-68926793D01*
X135652727Y-68899500D01*
X135547273Y-68899500D01*
X135445413Y-68926793D01*
X135445410Y-68926794D01*
X135354085Y-68979521D01*
X135279521Y-69054085D01*
X135226794Y-69145410D01*
X135226793Y-69145413D01*
X135199500Y-69247273D01*
X132712252Y-69247273D01*
X132695206Y-69230227D01*
X132603880Y-69177500D01*
X132502020Y-69150207D01*
X132396566Y-69150207D01*
X132294706Y-69177500D01*
X132294703Y-69177501D01*
X132203378Y-69230228D01*
X132128814Y-69304792D01*
X132076087Y-69396117D01*
X132076086Y-69396120D01*
X132048793Y-69497980D01*
X105600500Y-69497980D01*
X105600500Y-67947273D01*
X108999500Y-67947273D01*
X108999500Y-68052727D01*
X109026793Y-68154587D01*
X109079520Y-68245913D01*
X109154087Y-68320480D01*
X109162982Y-68325616D01*
X109211197Y-68376179D01*
X109224422Y-68444786D01*
X109198455Y-68509651D01*
X109188665Y-68520682D01*
X109155262Y-68554085D01*
X109102535Y-68645410D01*
X109102534Y-68645413D01*
X109075241Y-68747273D01*
X109075241Y-68852727D01*
X109102534Y-68954587D01*
X109155261Y-69045913D01*
X109229828Y-69120480D01*
X109321154Y-69173207D01*
X109423014Y-69200500D01*
X109423016Y-69200500D01*
X109528466Y-69200500D01*
X109528468Y-69200500D01*
X109630328Y-69173207D01*
X109721654Y-69120480D01*
X109796221Y-69045913D01*
X109848948Y-68954587D01*
X109876241Y-68852727D01*
X109876241Y-68747273D01*
X109848948Y-68645413D01*
X109796221Y-68554087D01*
X109721654Y-68479520D01*
X109712755Y-68474382D01*
X109664542Y-68423817D01*
X109651318Y-68355210D01*
X109677286Y-68290346D01*
X109687069Y-68279323D01*
X109720480Y-68245913D01*
X109773207Y-68154587D01*
X109800500Y-68052727D01*
X109800500Y-67947273D01*
X109773207Y-67845413D01*
X109720480Y-67754087D01*
X109645913Y-67679520D01*
X109554587Y-67626793D01*
X109452727Y-67599500D01*
X109347273Y-67599500D01*
X109245413Y-67626793D01*
X109245410Y-67626794D01*
X109154085Y-67679521D01*
X109079521Y-67754085D01*
X109026794Y-67845410D01*
X109026793Y-67845413D01*
X108999500Y-67947273D01*
X105600500Y-67947273D01*
X105600500Y-67150565D01*
X111024500Y-67150565D01*
X111024500Y-67249435D01*
X111050090Y-67344938D01*
X111099525Y-67430562D01*
X111169438Y-67500475D01*
X111255062Y-67549910D01*
X111350565Y-67575500D01*
X111350567Y-67575500D01*
X111449432Y-67575500D01*
X111449435Y-67575500D01*
X111544938Y-67549910D01*
X111549505Y-67547273D01*
X113499500Y-67547273D01*
X113499500Y-67652727D01*
X113526659Y-67754085D01*
X113526793Y-67754586D01*
X113526794Y-67754589D01*
X113540922Y-67779059D01*
X113579231Y-67845413D01*
X113579521Y-67845914D01*
X113645926Y-67912319D01*
X113679411Y-67973642D01*
X113674427Y-68043334D01*
X113645926Y-68087681D01*
X113579521Y-68154085D01*
X113526794Y-68245410D01*
X113526793Y-68245413D01*
X113499500Y-68347273D01*
X113499500Y-68452727D01*
X113526793Y-68554587D01*
X113579520Y-68645913D01*
X113654087Y-68720480D01*
X113745413Y-68773207D01*
X113847273Y-68800500D01*
X113847275Y-68800500D01*
X113952725Y-68800500D01*
X113952727Y-68800500D01*
X114054587Y-68773207D01*
X114145913Y-68720480D01*
X114220480Y-68645913D01*
X114273207Y-68554587D01*
X114300500Y-68452727D01*
X114300500Y-68347273D01*
X114273207Y-68245413D01*
X114220480Y-68154087D01*
X114216958Y-68150565D01*
X116124500Y-68150565D01*
X116124500Y-68249435D01*
X116150090Y-68344938D01*
X116150091Y-68344939D01*
X116150091Y-68344940D01*
X116163337Y-68367882D01*
X116199525Y-68430562D01*
X116269438Y-68500475D01*
X116355062Y-68549910D01*
X116450565Y-68575500D01*
X116450567Y-68575500D01*
X116549432Y-68575500D01*
X116549435Y-68575500D01*
X116644938Y-68549910D01*
X116730562Y-68500475D01*
X116800475Y-68430562D01*
X116849910Y-68344938D01*
X116875500Y-68249435D01*
X116875500Y-68150565D01*
X116849910Y-68055062D01*
X116845413Y-68047273D01*
X146499500Y-68047273D01*
X146499500Y-68152727D01*
X146526793Y-68254587D01*
X146579520Y-68345913D01*
X146654087Y-68420480D01*
X146745413Y-68473207D01*
X146847273Y-68500500D01*
X146847275Y-68500500D01*
X146952725Y-68500500D01*
X146952727Y-68500500D01*
X147054587Y-68473207D01*
X147145913Y-68420480D01*
X147220480Y-68345913D01*
X147273207Y-68254587D01*
X147300500Y-68152727D01*
X147300500Y-68047273D01*
X147273207Y-67945413D01*
X147220480Y-67854087D01*
X147145913Y-67779520D01*
X147054587Y-67726793D01*
X146952727Y-67699500D01*
X146847273Y-67699500D01*
X146745413Y-67726793D01*
X146745410Y-67726794D01*
X146654085Y-67779521D01*
X146579521Y-67854085D01*
X146526794Y-67945410D01*
X146526793Y-67945413D01*
X146499500Y-68047273D01*
X116845413Y-68047273D01*
X116800475Y-67969438D01*
X116788732Y-67957695D01*
X116780151Y-67941883D01*
X116776438Y-67924604D01*
X116767970Y-67909095D01*
X116769252Y-67891156D01*
X116765475Y-67873572D01*
X116771693Y-67857030D01*
X116772954Y-67839403D01*
X116783732Y-67825004D01*
X116790061Y-67808171D01*
X116804235Y-67797617D01*
X116814826Y-67783470D01*
X116827124Y-67775357D01*
X116894686Y-67736351D01*
X116964599Y-67666438D01*
X117014034Y-67580814D01*
X117039624Y-67485311D01*
X117039624Y-67386441D01*
X117014034Y-67290938D01*
X116964599Y-67205314D01*
X116894686Y-67135401D01*
X116809062Y-67085966D01*
X116713559Y-67060376D01*
X116614689Y-67060376D01*
X116519186Y-67085966D01*
X116519184Y-67085967D01*
X116519183Y-67085967D01*
X116433560Y-67135402D01*
X116363650Y-67205312D01*
X116314215Y-67290935D01*
X116314215Y-67290936D01*
X116314214Y-67290938D01*
X116288624Y-67386441D01*
X116288624Y-67485311D01*
X116314214Y-67580814D01*
X116355732Y-67652726D01*
X116363651Y-67666441D01*
X116368598Y-67672888D01*
X116367278Y-67673900D01*
X116396153Y-67726780D01*
X116391169Y-67796472D01*
X116349297Y-67852405D01*
X116336988Y-67860524D01*
X116269437Y-67899525D01*
X116199526Y-67969436D01*
X116150091Y-68055059D01*
X116150091Y-68055060D01*
X116150090Y-68055062D01*
X116124500Y-68150565D01*
X114216958Y-68150565D01*
X114149446Y-68083053D01*
X114145335Y-68077969D01*
X114134321Y-68051507D01*
X114120589Y-68026358D01*
X114121067Y-68019662D01*
X114118488Y-68013464D01*
X114123528Y-67985251D01*
X114125573Y-67956666D01*
X114129815Y-67950064D01*
X114130777Y-67944683D01*
X114138901Y-67935926D01*
X114154074Y-67912319D01*
X114175237Y-67891156D01*
X114220480Y-67845913D01*
X114273207Y-67754587D01*
X114300500Y-67652727D01*
X114300500Y-67547273D01*
X114273207Y-67445413D01*
X114220480Y-67354087D01*
X114145913Y-67279520D01*
X114054587Y-67226793D01*
X113952727Y-67199500D01*
X113847273Y-67199500D01*
X113745413Y-67226793D01*
X113745410Y-67226794D01*
X113654085Y-67279521D01*
X113579521Y-67354085D01*
X113526794Y-67445410D01*
X113526793Y-67445413D01*
X113499500Y-67547273D01*
X111549505Y-67547273D01*
X111630562Y-67500475D01*
X111700475Y-67430562D01*
X111749910Y-67344938D01*
X111775500Y-67249435D01*
X111775500Y-67150565D01*
X111749910Y-67055062D01*
X111745413Y-67047273D01*
X134199500Y-67047273D01*
X134199500Y-67152727D01*
X134226793Y-67254587D01*
X134279520Y-67345913D01*
X134354087Y-67420480D01*
X134445413Y-67473207D01*
X134547273Y-67500500D01*
X134547275Y-67500500D01*
X134652725Y-67500500D01*
X134652727Y-67500500D01*
X134754587Y-67473207D01*
X134838001Y-67425047D01*
X134905900Y-67408575D01*
X134961998Y-67425047D01*
X135045413Y-67473207D01*
X135147273Y-67500500D01*
X135147275Y-67500500D01*
X135252725Y-67500500D01*
X135252727Y-67500500D01*
X135354587Y-67473207D01*
X135445913Y-67420480D01*
X135520480Y-67345913D01*
X135573207Y-67254587D01*
X135600500Y-67152727D01*
X135600500Y-67047273D01*
X135573207Y-66945413D01*
X135520480Y-66854087D01*
X135445913Y-66779520D01*
X135354587Y-66726793D01*
X135252727Y-66699500D01*
X135147273Y-66699500D01*
X135045413Y-66726793D01*
X135045410Y-66726794D01*
X134962000Y-66774951D01*
X134894099Y-66791424D01*
X134838000Y-66774951D01*
X134754589Y-66726794D01*
X134754588Y-66726793D01*
X134754587Y-66726793D01*
X134652727Y-66699500D01*
X134547273Y-66699500D01*
X134445413Y-66726793D01*
X134445410Y-66726794D01*
X134354085Y-66779521D01*
X134279521Y-66854085D01*
X134226794Y-66945410D01*
X134226793Y-66945413D01*
X134199500Y-67047273D01*
X111745413Y-67047273D01*
X111700475Y-66969438D01*
X111630562Y-66899525D01*
X111544938Y-66850090D01*
X111449435Y-66824500D01*
X111350565Y-66824500D01*
X111255062Y-66850090D01*
X111255060Y-66850091D01*
X111255059Y-66850091D01*
X111169436Y-66899526D01*
X111099526Y-66969436D01*
X111050091Y-67055059D01*
X111050091Y-67055060D01*
X111050090Y-67055062D01*
X111024500Y-67150565D01*
X105600500Y-67150565D01*
X105600500Y-65434234D01*
X110829500Y-65434234D01*
X110829500Y-65585766D01*
X110840493Y-65626793D01*
X110868719Y-65732136D01*
X110881392Y-65754085D01*
X110944485Y-65863365D01*
X111051635Y-65970515D01*
X111182865Y-66046281D01*
X111329234Y-66085500D01*
X111329236Y-66085500D01*
X111480764Y-66085500D01*
X111480766Y-66085500D01*
X111627135Y-66046281D01*
X111758365Y-65970515D01*
X111781607Y-65947273D01*
X112999500Y-65947273D01*
X112999500Y-66052727D01*
X113026793Y-66154587D01*
X113079520Y-66245913D01*
X113154087Y-66320480D01*
X113245413Y-66373207D01*
X113347273Y-66400500D01*
X113347275Y-66400500D01*
X113452725Y-66400500D01*
X113452727Y-66400500D01*
X113554587Y-66373207D01*
X113593804Y-66350565D01*
X114324500Y-66350565D01*
X114324500Y-66449435D01*
X114350090Y-66544938D01*
X114350091Y-66544939D01*
X114350091Y-66544940D01*
X114350364Y-66545413D01*
X114399525Y-66630562D01*
X114469438Y-66700475D01*
X114555062Y-66749910D01*
X114650565Y-66775500D01*
X114650567Y-66775500D01*
X114749432Y-66775500D01*
X114749435Y-66775500D01*
X114844938Y-66749910D01*
X114930562Y-66700475D01*
X114983764Y-66647273D01*
X145799500Y-66647273D01*
X145799500Y-66752727D01*
X145826793Y-66854587D01*
X145879520Y-66945913D01*
X145954087Y-67020480D01*
X146045413Y-67073207D01*
X146147273Y-67100500D01*
X146147275Y-67100500D01*
X146252725Y-67100500D01*
X146252727Y-67100500D01*
X146354587Y-67073207D01*
X146445913Y-67020480D01*
X146520480Y-66945913D01*
X146573207Y-66854587D01*
X146600500Y-66752727D01*
X146600500Y-66647273D01*
X146573207Y-66545413D01*
X146520480Y-66454087D01*
X146445913Y-66379520D01*
X146354587Y-66326793D01*
X146252727Y-66299500D01*
X146147273Y-66299500D01*
X146045413Y-66326793D01*
X146045410Y-66326794D01*
X145954085Y-66379521D01*
X145879521Y-66454085D01*
X145826794Y-66545410D01*
X145826793Y-66545413D01*
X145799500Y-66647273D01*
X114983764Y-66647273D01*
X115000475Y-66630562D01*
X115049910Y-66544938D01*
X115075500Y-66449435D01*
X115075500Y-66350565D01*
X115049910Y-66255062D01*
X115000475Y-66169438D01*
X114930562Y-66099525D01*
X114844938Y-66050090D01*
X114749435Y-66024500D01*
X114650565Y-66024500D01*
X114555062Y-66050090D01*
X114555060Y-66050091D01*
X114555059Y-66050091D01*
X114469436Y-66099526D01*
X114399526Y-66169436D01*
X114350091Y-66255059D01*
X114350091Y-66255060D01*
X114350090Y-66255062D01*
X114324500Y-66350565D01*
X113593804Y-66350565D01*
X113645913Y-66320480D01*
X113720480Y-66245913D01*
X113773207Y-66154587D01*
X113800500Y-66052727D01*
X113800500Y-65947273D01*
X113773207Y-65845413D01*
X113720480Y-65754087D01*
X113645913Y-65679520D01*
X113554587Y-65626793D01*
X113452727Y-65599500D01*
X113347273Y-65599500D01*
X113245413Y-65626793D01*
X113245410Y-65626794D01*
X113154085Y-65679521D01*
X113079521Y-65754085D01*
X113026794Y-65845410D01*
X113026793Y-65845413D01*
X112999500Y-65947273D01*
X111781607Y-65947273D01*
X111865515Y-65863365D01*
X111941281Y-65732135D01*
X111980500Y-65585766D01*
X111980500Y-65434234D01*
X111941281Y-65287865D01*
X111917845Y-65247273D01*
X145699500Y-65247273D01*
X145699500Y-65352727D01*
X145726793Y-65454587D01*
X145779520Y-65545913D01*
X145854087Y-65620480D01*
X145945413Y-65673207D01*
X146047273Y-65700500D01*
X146047275Y-65700500D01*
X146152725Y-65700500D01*
X146152727Y-65700500D01*
X146254587Y-65673207D01*
X146345913Y-65620480D01*
X146420480Y-65545913D01*
X146473207Y-65454587D01*
X146500500Y-65352727D01*
X146500500Y-65247273D01*
X146473207Y-65145413D01*
X146420480Y-65054087D01*
X146345913Y-64979520D01*
X146254587Y-64926793D01*
X146152727Y-64899500D01*
X146047273Y-64899500D01*
X145945413Y-64926793D01*
X145945410Y-64926794D01*
X145854085Y-64979521D01*
X145779521Y-65054085D01*
X145726794Y-65145410D01*
X145726793Y-65145413D01*
X145699500Y-65247273D01*
X111917845Y-65247273D01*
X111865515Y-65156635D01*
X111758365Y-65049485D01*
X111692750Y-65011602D01*
X111627136Y-64973719D01*
X111553950Y-64954109D01*
X111480766Y-64934500D01*
X111329234Y-64934500D01*
X111182863Y-64973719D01*
X111051635Y-65049485D01*
X111051632Y-65049487D01*
X110944487Y-65156632D01*
X110944485Y-65156635D01*
X110868719Y-65287863D01*
X110851339Y-65352727D01*
X110829500Y-65434234D01*
X105600500Y-65434234D01*
X105600500Y-64050565D01*
X122124500Y-64050565D01*
X122124500Y-64149435D01*
X122150090Y-64244938D01*
X122199525Y-64330562D01*
X122269438Y-64400475D01*
X122355062Y-64449910D01*
X122450565Y-64475500D01*
X122450567Y-64475500D01*
X122549432Y-64475500D01*
X122549435Y-64475500D01*
X122644938Y-64449910D01*
X122730562Y-64400475D01*
X122800475Y-64330562D01*
X122849910Y-64244938D01*
X122875500Y-64149435D01*
X122875500Y-64050565D01*
X122849910Y-63955062D01*
X122800475Y-63869438D01*
X122730562Y-63799525D01*
X122644938Y-63750090D01*
X122549435Y-63724500D01*
X122450565Y-63724500D01*
X122355062Y-63750090D01*
X122355060Y-63750091D01*
X122355059Y-63750091D01*
X122269436Y-63799526D01*
X122199526Y-63869436D01*
X122150091Y-63955059D01*
X122150091Y-63955060D01*
X122150090Y-63955062D01*
X122124500Y-64050565D01*
X105600500Y-64050565D01*
X105600500Y-63550565D01*
X115924500Y-63550565D01*
X115924500Y-63649435D01*
X115950090Y-63744938D01*
X115950091Y-63744939D01*
X115950091Y-63744940D01*
X115953065Y-63750091D01*
X115999525Y-63830562D01*
X116069438Y-63900475D01*
X116155062Y-63949910D01*
X116250565Y-63975500D01*
X116250567Y-63975500D01*
X116349432Y-63975500D01*
X116349435Y-63975500D01*
X116444938Y-63949910D01*
X116530562Y-63900475D01*
X116600475Y-63830562D01*
X116649910Y-63744938D01*
X116675500Y-63649435D01*
X116675500Y-63550565D01*
X116649910Y-63455062D01*
X116600475Y-63369438D01*
X116530562Y-63299525D01*
X116444938Y-63250090D01*
X116349435Y-63224500D01*
X116250565Y-63224500D01*
X116155062Y-63250090D01*
X116155060Y-63250091D01*
X116155059Y-63250091D01*
X116069436Y-63299526D01*
X115999526Y-63369436D01*
X115950091Y-63455059D01*
X115950091Y-63455060D01*
X115950090Y-63455062D01*
X115924500Y-63550565D01*
X105600500Y-63550565D01*
X105600500Y-62251565D01*
X117624500Y-62251565D01*
X117624500Y-62350435D01*
X117650090Y-62445938D01*
X117699525Y-62531562D01*
X117769438Y-62601475D01*
X117855062Y-62650910D01*
X117950565Y-62676500D01*
X117950567Y-62676500D01*
X118049432Y-62676500D01*
X118049435Y-62676500D01*
X118144938Y-62650910D01*
X118230562Y-62601475D01*
X118300475Y-62531562D01*
X118349910Y-62445938D01*
X118375500Y-62350435D01*
X118375500Y-62251565D01*
X118349910Y-62156062D01*
X118300475Y-62070438D01*
X118230562Y-62000525D01*
X118144938Y-61951090D01*
X118049435Y-61925500D01*
X117950565Y-61925500D01*
X117855062Y-61951090D01*
X117855060Y-61951091D01*
X117855059Y-61951091D01*
X117769436Y-62000526D01*
X117699526Y-62070436D01*
X117650091Y-62156059D01*
X117650091Y-62156060D01*
X117650090Y-62156062D01*
X117624500Y-62251565D01*
X105600500Y-62251565D01*
X105600500Y-61347273D01*
X128049500Y-61347273D01*
X128049500Y-61452727D01*
X128076793Y-61554587D01*
X128129520Y-61645913D01*
X128204087Y-61720480D01*
X128295413Y-61773207D01*
X128397273Y-61800500D01*
X128397275Y-61800500D01*
X128502725Y-61800500D01*
X128502727Y-61800500D01*
X128604587Y-61773207D01*
X128695913Y-61720480D01*
X128770480Y-61645913D01*
X128792614Y-61607574D01*
X128843179Y-61559361D01*
X128911786Y-61546137D01*
X128976651Y-61572105D01*
X129007384Y-61607573D01*
X129029520Y-61645913D01*
X129104087Y-61720480D01*
X129195413Y-61773207D01*
X129297273Y-61800500D01*
X129297275Y-61800500D01*
X129402725Y-61800500D01*
X129402727Y-61800500D01*
X129504587Y-61773207D01*
X129560906Y-61740691D01*
X133249500Y-61740691D01*
X133249500Y-61859309D01*
X133280201Y-61973886D01*
X133339511Y-62076613D01*
X133423387Y-62160489D01*
X133526114Y-62219799D01*
X133640691Y-62250500D01*
X133640694Y-62250500D01*
X133759306Y-62250500D01*
X133759309Y-62250500D01*
X133873886Y-62219799D01*
X133976613Y-62160489D01*
X134060489Y-62076613D01*
X134119799Y-61973886D01*
X134150500Y-61859309D01*
X134150500Y-61740691D01*
X134119799Y-61626114D01*
X134060489Y-61523387D01*
X133976613Y-61439511D01*
X133873886Y-61380201D01*
X133759309Y-61349500D01*
X133640691Y-61349500D01*
X133526114Y-61380201D01*
X133526112Y-61380201D01*
X133526112Y-61380202D01*
X133423387Y-61439511D01*
X133423384Y-61439513D01*
X133339513Y-61523384D01*
X133339511Y-61523387D01*
X133321498Y-61554587D01*
X133280201Y-61626114D01*
X133249500Y-61740691D01*
X129560906Y-61740691D01*
X129595913Y-61720480D01*
X129670480Y-61645913D01*
X129723207Y-61554587D01*
X129750500Y-61452727D01*
X129750500Y-61347273D01*
X129723207Y-61245413D01*
X129670480Y-61154087D01*
X129595913Y-61079520D01*
X129504587Y-61026793D01*
X129402727Y-60999500D01*
X129297273Y-60999500D01*
X129195413Y-61026793D01*
X129195410Y-61026794D01*
X129104085Y-61079521D01*
X129029522Y-61154084D01*
X129029520Y-61154086D01*
X129029520Y-61154087D01*
X129007385Y-61192425D01*
X128956820Y-61240639D01*
X128888212Y-61253861D01*
X128823348Y-61227893D01*
X128792615Y-61192426D01*
X128770480Y-61154087D01*
X128695913Y-61079520D01*
X128604587Y-61026793D01*
X128502727Y-60999500D01*
X128397273Y-60999500D01*
X128295413Y-61026793D01*
X128295410Y-61026794D01*
X128204085Y-61079521D01*
X128129521Y-61154085D01*
X128076794Y-61245410D01*
X128076793Y-61245413D01*
X128049500Y-61347273D01*
X105600500Y-61347273D01*
X105600500Y-60350000D01*
X107675000Y-60350000D01*
X109765000Y-60350000D01*
X109765000Y-60247273D01*
X117199500Y-60247273D01*
X117199500Y-60352727D01*
X117226793Y-60454587D01*
X117279520Y-60545913D01*
X117354087Y-60620480D01*
X117445413Y-60673207D01*
X117547273Y-60700500D01*
X117547275Y-60700500D01*
X117652725Y-60700500D01*
X117652727Y-60700500D01*
X117754587Y-60673207D01*
X117845913Y-60620480D01*
X117920480Y-60545913D01*
X117973207Y-60454587D01*
X117980526Y-60427273D01*
X124679500Y-60427273D01*
X124679500Y-60532727D01*
X124683034Y-60545914D01*
X124706793Y-60634586D01*
X124706794Y-60634589D01*
X124717266Y-60652727D01*
X124759520Y-60725913D01*
X124834087Y-60800480D01*
X124925413Y-60853207D01*
X125027273Y-60880500D01*
X125027275Y-60880500D01*
X125132725Y-60880500D01*
X125132727Y-60880500D01*
X125234587Y-60853207D01*
X125325913Y-60800480D01*
X125400480Y-60725913D01*
X125453207Y-60634587D01*
X125476602Y-60547273D01*
X125899500Y-60547273D01*
X125899500Y-60652727D01*
X125926793Y-60754587D01*
X125979520Y-60845913D01*
X126054087Y-60920480D01*
X126145413Y-60973207D01*
X126247273Y-61000500D01*
X126247275Y-61000500D01*
X126352725Y-61000500D01*
X126352727Y-61000500D01*
X126454587Y-60973207D01*
X126545913Y-60920480D01*
X126620480Y-60845913D01*
X126623495Y-60840691D01*
X133949500Y-60840691D01*
X133949500Y-60959309D01*
X133980201Y-61073886D01*
X134039511Y-61176613D01*
X134123387Y-61260489D01*
X134226114Y-61319799D01*
X134340691Y-61350500D01*
X134340694Y-61350500D01*
X134459306Y-61350500D01*
X134459309Y-61350500D01*
X134573886Y-61319799D01*
X134676613Y-61260489D01*
X134760489Y-61176613D01*
X134819799Y-61073886D01*
X134850500Y-60959309D01*
X134850500Y-60840691D01*
X134819799Y-60726114D01*
X134760489Y-60623387D01*
X134676613Y-60539511D01*
X134573886Y-60480201D01*
X134459309Y-60449500D01*
X134340691Y-60449500D01*
X134226114Y-60480201D01*
X134226112Y-60480201D01*
X134226112Y-60480202D01*
X134123387Y-60539511D01*
X134123384Y-60539513D01*
X134039513Y-60623384D01*
X134039511Y-60623387D01*
X134022573Y-60652725D01*
X133980201Y-60726114D01*
X133949500Y-60840691D01*
X126623495Y-60840691D01*
X126673207Y-60754587D01*
X126700500Y-60652727D01*
X126700500Y-60547273D01*
X126673207Y-60445413D01*
X126620480Y-60354087D01*
X126545913Y-60279520D01*
X126454587Y-60226793D01*
X126352727Y-60199500D01*
X126247273Y-60199500D01*
X126145413Y-60226793D01*
X126145410Y-60226794D01*
X126054085Y-60279521D01*
X125979521Y-60354085D01*
X125926794Y-60445410D01*
X125926793Y-60445413D01*
X125899500Y-60547273D01*
X125476602Y-60547273D01*
X125480500Y-60532727D01*
X125480500Y-60427273D01*
X125453207Y-60325413D01*
X125400480Y-60234087D01*
X125325913Y-60159520D01*
X125259059Y-60120922D01*
X125234589Y-60106794D01*
X125234588Y-60106793D01*
X125234587Y-60106793D01*
X125132727Y-60079500D01*
X125027273Y-60079500D01*
X124925413Y-60106793D01*
X124925410Y-60106794D01*
X124834085Y-60159521D01*
X124759521Y-60234085D01*
X124706794Y-60325410D01*
X124706793Y-60325413D01*
X124679500Y-60427273D01*
X117980526Y-60427273D01*
X118000500Y-60352727D01*
X118000500Y-60247273D01*
X117973207Y-60145413D01*
X117920480Y-60054087D01*
X117845913Y-59979520D01*
X117754587Y-59926793D01*
X117652727Y-59899500D01*
X117547273Y-59899500D01*
X117445413Y-59926793D01*
X117445410Y-59926794D01*
X117354085Y-59979521D01*
X117279521Y-60054085D01*
X117226794Y-60145410D01*
X117226793Y-60145413D01*
X117199500Y-60247273D01*
X109765000Y-60247273D01*
X109765000Y-59847273D01*
X122399500Y-59847273D01*
X122399500Y-59952727D01*
X122426793Y-60054587D01*
X122479520Y-60145913D01*
X122554087Y-60220480D01*
X122645413Y-60273207D01*
X122747273Y-60300500D01*
X122747275Y-60300500D01*
X122852724Y-60300500D01*
X122852727Y-60300500D01*
X122954587Y-60273207D01*
X123045913Y-60220480D01*
X123120480Y-60145913D01*
X123173207Y-60054587D01*
X123200500Y-59952727D01*
X123200500Y-59847273D01*
X123173207Y-59745413D01*
X123136686Y-59682156D01*
X146326580Y-59682156D01*
X146326580Y-59787610D01*
X146353873Y-59889470D01*
X146406600Y-59980796D01*
X146481167Y-60055363D01*
X146572493Y-60108090D01*
X146674353Y-60135383D01*
X146674355Y-60135383D01*
X146779805Y-60135383D01*
X146779807Y-60135383D01*
X146881667Y-60108090D01*
X146972993Y-60055363D01*
X147047560Y-59980796D01*
X147100287Y-59889470D01*
X147127580Y-59787610D01*
X147127580Y-59682156D01*
X147100287Y-59580296D01*
X147047560Y-59488970D01*
X146972993Y-59414403D01*
X146881667Y-59361676D01*
X146779807Y-59334383D01*
X146674353Y-59334383D01*
X146572493Y-59361676D01*
X146572490Y-59361677D01*
X146481165Y-59414404D01*
X146406601Y-59488968D01*
X146353874Y-59580293D01*
X146353873Y-59580296D01*
X146326580Y-59682156D01*
X123136686Y-59682156D01*
X123120480Y-59654087D01*
X123045913Y-59579520D01*
X122954587Y-59526793D01*
X122852727Y-59499500D01*
X122747273Y-59499500D01*
X122645413Y-59526793D01*
X122645410Y-59526794D01*
X122554085Y-59579521D01*
X122479521Y-59654085D01*
X122426794Y-59745410D01*
X122426793Y-59745413D01*
X122399500Y-59847273D01*
X109765000Y-59847273D01*
X109765000Y-58450000D01*
X107675000Y-58450000D01*
X107675000Y-60350000D01*
X105600500Y-60350000D01*
X105600500Y-58427525D01*
X131849500Y-58427525D01*
X131849500Y-58572475D01*
X131871004Y-58652727D01*
X131887017Y-58712488D01*
X131959488Y-58838011D01*
X131959490Y-58838013D01*
X131959491Y-58838015D01*
X132061985Y-58940509D01*
X132061986Y-58940510D01*
X132061988Y-58940511D01*
X132187511Y-59012982D01*
X132187512Y-59012982D01*
X132187515Y-59012984D01*
X132327525Y-59050500D01*
X132327528Y-59050500D01*
X132472472Y-59050500D01*
X132472475Y-59050500D01*
X132612485Y-59012984D01*
X132738015Y-58940509D01*
X132840509Y-58838015D01*
X132912984Y-58712485D01*
X132930458Y-58647273D01*
X143999500Y-58647273D01*
X143999500Y-58752727D01*
X144026793Y-58854587D01*
X144079520Y-58945913D01*
X144154087Y-59020480D01*
X144245413Y-59073207D01*
X144347273Y-59100500D01*
X144347275Y-59100500D01*
X144452725Y-59100500D01*
X144452727Y-59100500D01*
X144554587Y-59073207D01*
X144645913Y-59020480D01*
X144720480Y-58945913D01*
X144773207Y-58854587D01*
X144800500Y-58752727D01*
X144800500Y-58647273D01*
X144773705Y-58547273D01*
X148399500Y-58547273D01*
X148399500Y-58652727D01*
X148426793Y-58754587D01*
X148479520Y-58845913D01*
X148554087Y-58920480D01*
X148645413Y-58973207D01*
X148747273Y-59000500D01*
X148747275Y-59000500D01*
X148852725Y-59000500D01*
X148852727Y-59000500D01*
X148954587Y-58973207D01*
X149045913Y-58920480D01*
X149120480Y-58845913D01*
X149173207Y-58754587D01*
X149200500Y-58652727D01*
X149200500Y-58547273D01*
X149173207Y-58445413D01*
X149120480Y-58354087D01*
X149045913Y-58279520D01*
X148954587Y-58226793D01*
X148852727Y-58199500D01*
X148747273Y-58199500D01*
X148645413Y-58226793D01*
X148645410Y-58226794D01*
X148554085Y-58279521D01*
X148479521Y-58354085D01*
X148426794Y-58445410D01*
X148426793Y-58445413D01*
X148399500Y-58547273D01*
X144773705Y-58547273D01*
X144773207Y-58545413D01*
X144720480Y-58454087D01*
X144645913Y-58379520D01*
X144554587Y-58326793D01*
X144452727Y-58299500D01*
X144347273Y-58299500D01*
X144245413Y-58326793D01*
X144245410Y-58326794D01*
X144154085Y-58379521D01*
X144079521Y-58454085D01*
X144026794Y-58545410D01*
X144026794Y-58545411D01*
X144026793Y-58545413D01*
X143999500Y-58647273D01*
X132930458Y-58647273D01*
X132950500Y-58572475D01*
X132950500Y-58427525D01*
X132912984Y-58287515D01*
X132862168Y-58199500D01*
X132840511Y-58161988D01*
X132840506Y-58161982D01*
X132738017Y-58059493D01*
X132738011Y-58059488D01*
X132612488Y-57987017D01*
X132612489Y-57987017D01*
X132601006Y-57983940D01*
X132472475Y-57949500D01*
X132327525Y-57949500D01*
X132198993Y-57983940D01*
X132187511Y-57987017D01*
X132061988Y-58059488D01*
X132061982Y-58059493D01*
X131959493Y-58161982D01*
X131959488Y-58161988D01*
X131887017Y-58287511D01*
X131887016Y-58287515D01*
X131849500Y-58427525D01*
X105600500Y-58427525D01*
X105600500Y-56947273D01*
X114399500Y-56947273D01*
X114399500Y-57052727D01*
X114426659Y-57154085D01*
X114426793Y-57154586D01*
X114426794Y-57154589D01*
X114440922Y-57179059D01*
X114479520Y-57245913D01*
X114554087Y-57320480D01*
X114645413Y-57373207D01*
X114747273Y-57400500D01*
X114747275Y-57400500D01*
X114852725Y-57400500D01*
X114852727Y-57400500D01*
X114954587Y-57373207D01*
X114999506Y-57347273D01*
X119979500Y-57347273D01*
X119979500Y-57452727D01*
X120006793Y-57554587D01*
X120059520Y-57645913D01*
X120134087Y-57720480D01*
X120225413Y-57773207D01*
X120327273Y-57800500D01*
X120327275Y-57800500D01*
X120432725Y-57800500D01*
X120432727Y-57800500D01*
X120534587Y-57773207D01*
X120625913Y-57720480D01*
X120655634Y-57690759D01*
X127429500Y-57690759D01*
X127429500Y-57796213D01*
X127456793Y-57898073D01*
X127509520Y-57989399D01*
X127584087Y-58063966D01*
X127675413Y-58116693D01*
X127777273Y-58143986D01*
X127777275Y-58143986D01*
X127882725Y-58143986D01*
X127882727Y-58143986D01*
X127984587Y-58116693D01*
X128075913Y-58063966D01*
X128150480Y-57989399D01*
X128203207Y-57898073D01*
X128230500Y-57796213D01*
X128230500Y-57747273D01*
X128942373Y-57747273D01*
X128942373Y-57852727D01*
X128969666Y-57954587D01*
X129022393Y-58045913D01*
X129096960Y-58120480D01*
X129188286Y-58173207D01*
X129290146Y-58200500D01*
X129290148Y-58200500D01*
X129395598Y-58200500D01*
X129395600Y-58200500D01*
X129497460Y-58173207D01*
X129588786Y-58120480D01*
X129663353Y-58045913D01*
X129716080Y-57954587D01*
X129743373Y-57852727D01*
X129743373Y-57747273D01*
X129716080Y-57645413D01*
X129663353Y-57554087D01*
X129588786Y-57479520D01*
X129497460Y-57426793D01*
X129395600Y-57399500D01*
X129290146Y-57399500D01*
X129188286Y-57426793D01*
X129188283Y-57426794D01*
X129096958Y-57479521D01*
X129022394Y-57554085D01*
X128969667Y-57645410D01*
X128969666Y-57645413D01*
X128942373Y-57747273D01*
X128230500Y-57747273D01*
X128230500Y-57690759D01*
X128203207Y-57588899D01*
X128150480Y-57497573D01*
X128075913Y-57423006D01*
X128009059Y-57384408D01*
X127984589Y-57370280D01*
X127984588Y-57370279D01*
X127984587Y-57370279D01*
X127882727Y-57342986D01*
X127777273Y-57342986D01*
X127675413Y-57370279D01*
X127675410Y-57370280D01*
X127584085Y-57423007D01*
X127509521Y-57497571D01*
X127456794Y-57588896D01*
X127456793Y-57588899D01*
X127429500Y-57690759D01*
X120655634Y-57690759D01*
X120700480Y-57645913D01*
X120753207Y-57554587D01*
X120780500Y-57452727D01*
X120780500Y-57347273D01*
X120753207Y-57245413D01*
X120700480Y-57154087D01*
X120625913Y-57079520D01*
X120534587Y-57026793D01*
X120432727Y-56999500D01*
X120327273Y-56999500D01*
X120225413Y-57026793D01*
X120225410Y-57026794D01*
X120134085Y-57079521D01*
X120059521Y-57154085D01*
X120006794Y-57245410D01*
X120006793Y-57245413D01*
X119979500Y-57347273D01*
X114999506Y-57347273D01*
X115045913Y-57320480D01*
X115120480Y-57245913D01*
X115173207Y-57154587D01*
X115200500Y-57052727D01*
X115200500Y-56947273D01*
X115173207Y-56845413D01*
X115120480Y-56754087D01*
X115107084Y-56740691D01*
X133049500Y-56740691D01*
X133049500Y-56859309D01*
X133080201Y-56973886D01*
X133139511Y-57076613D01*
X133223387Y-57160489D01*
X133326114Y-57219799D01*
X133440691Y-57250500D01*
X133440694Y-57250500D01*
X133559306Y-57250500D01*
X133559309Y-57250500D01*
X133673886Y-57219799D01*
X133776613Y-57160489D01*
X133860489Y-57076613D01*
X133919799Y-56973886D01*
X133950500Y-56859309D01*
X133950500Y-56740691D01*
X133919799Y-56626114D01*
X133860489Y-56523387D01*
X133776613Y-56439511D01*
X133673886Y-56380201D01*
X133559309Y-56349500D01*
X133440691Y-56349500D01*
X133326114Y-56380201D01*
X133326112Y-56380201D01*
X133326112Y-56380202D01*
X133223387Y-56439511D01*
X133223384Y-56439513D01*
X133139513Y-56523384D01*
X133139511Y-56523387D01*
X133089151Y-56610613D01*
X133080201Y-56626114D01*
X133049500Y-56740691D01*
X115107084Y-56740691D01*
X115045913Y-56679520D01*
X114954587Y-56626793D01*
X114852727Y-56599500D01*
X114747273Y-56599500D01*
X114645413Y-56626793D01*
X114645410Y-56626794D01*
X114554085Y-56679521D01*
X114479521Y-56754085D01*
X114426794Y-56845410D01*
X114426793Y-56845413D01*
X114399500Y-56947273D01*
X105600500Y-56947273D01*
X105600500Y-56224000D01*
X105620185Y-56156961D01*
X105672989Y-56111206D01*
X105724500Y-56100000D01*
X111390967Y-56100000D01*
X111390968Y-56100000D01*
X111392391Y-55879478D01*
X111395825Y-55347273D01*
X120999500Y-55347273D01*
X120999500Y-55452727D01*
X121026793Y-55554587D01*
X121079520Y-55645913D01*
X121154087Y-55720480D01*
X121223070Y-55760307D01*
X121271283Y-55810871D01*
X121284507Y-55879478D01*
X121258539Y-55944343D01*
X121248752Y-55955370D01*
X121239923Y-55964198D01*
X121187196Y-56055524D01*
X121187195Y-56055527D01*
X121159902Y-56157387D01*
X121159902Y-56262841D01*
X121187195Y-56364701D01*
X121239922Y-56456027D01*
X121314489Y-56530594D01*
X121405815Y-56583321D01*
X121507675Y-56610614D01*
X121507677Y-56610614D01*
X121613126Y-56610614D01*
X121613129Y-56610614D01*
X121714989Y-56583321D01*
X121806315Y-56530594D01*
X121880882Y-56456027D01*
X121933609Y-56364701D01*
X121960902Y-56262841D01*
X121960902Y-56157387D01*
X121933609Y-56055527D01*
X121880882Y-55964201D01*
X121806315Y-55889634D01*
X121737331Y-55849806D01*
X121689117Y-55799241D01*
X121675894Y-55730634D01*
X121701862Y-55665769D01*
X121711647Y-55654745D01*
X121720480Y-55645913D01*
X121773207Y-55554587D01*
X121800500Y-55452727D01*
X121800500Y-55347273D01*
X121773207Y-55245413D01*
X121720480Y-55154087D01*
X121645913Y-55079520D01*
X121554587Y-55026793D01*
X121452727Y-54999500D01*
X121347273Y-54999500D01*
X121245413Y-55026793D01*
X121245410Y-55026794D01*
X121154085Y-55079521D01*
X121079521Y-55154085D01*
X121026794Y-55245410D01*
X121026793Y-55245413D01*
X120999500Y-55347273D01*
X111395825Y-55347273D01*
X111395883Y-55338346D01*
X111398084Y-54997273D01*
X127699500Y-54997273D01*
X127699500Y-55102727D01*
X127726793Y-55204587D01*
X127779520Y-55295913D01*
X127854087Y-55370480D01*
X127945413Y-55423207D01*
X128047273Y-55450500D01*
X128047275Y-55450500D01*
X128152725Y-55450500D01*
X128152727Y-55450500D01*
X128254587Y-55423207D01*
X128345913Y-55370480D01*
X128420480Y-55295913D01*
X128473207Y-55204587D01*
X128500500Y-55102727D01*
X128500500Y-54997273D01*
X128473207Y-54895413D01*
X128420480Y-54804087D01*
X128345913Y-54729520D01*
X128254587Y-54676793D01*
X128152727Y-54649500D01*
X128047273Y-54649500D01*
X127945413Y-54676793D01*
X127945410Y-54676794D01*
X127854085Y-54729521D01*
X127779521Y-54804085D01*
X127726794Y-54895410D01*
X127726793Y-54895413D01*
X127699500Y-54997273D01*
X111398084Y-54997273D01*
X111402922Y-54247273D01*
X128599500Y-54247273D01*
X128599500Y-54352727D01*
X128626793Y-54454587D01*
X128679520Y-54545913D01*
X128754087Y-54620480D01*
X128845413Y-54673207D01*
X128947273Y-54700500D01*
X128947275Y-54700500D01*
X129052725Y-54700500D01*
X129052727Y-54700500D01*
X129154587Y-54673207D01*
X129245913Y-54620480D01*
X129291418Y-54574974D01*
X129352739Y-54541490D01*
X129422430Y-54546474D01*
X129478364Y-54588345D01*
X129498873Y-54630562D01*
X129520727Y-54712123D01*
X129520728Y-54712124D01*
X129573455Y-54803449D01*
X129648021Y-54878015D01*
X129654467Y-54882961D01*
X129652243Y-54885858D01*
X129688987Y-54924052D01*
X129702515Y-54992599D01*
X129681668Y-55045943D01*
X129683584Y-55047049D01*
X129679521Y-55054085D01*
X129679520Y-55054087D01*
X129664836Y-55079520D01*
X129626794Y-55145410D01*
X129626793Y-55145413D01*
X129599500Y-55247273D01*
X129599500Y-55352727D01*
X129626793Y-55454587D01*
X129679520Y-55545913D01*
X129679521Y-55545914D01*
X129683584Y-55552951D01*
X129681834Y-55553961D01*
X129703108Y-55608987D01*
X129689070Y-55677432D01*
X129641539Y-55726691D01*
X129553157Y-55777719D01*
X129478592Y-55852284D01*
X129425865Y-55943609D01*
X129425864Y-55943612D01*
X129398571Y-56045472D01*
X129398571Y-56150926D01*
X129425864Y-56252786D01*
X129478591Y-56344112D01*
X129553158Y-56418679D01*
X129644484Y-56471406D01*
X129746344Y-56498699D01*
X129746346Y-56498699D01*
X129851796Y-56498699D01*
X129851798Y-56498699D01*
X129953658Y-56471406D01*
X130044984Y-56418679D01*
X130119551Y-56344112D01*
X130172278Y-56252786D01*
X130199571Y-56150926D01*
X130199571Y-56045472D01*
X130172278Y-55943612D01*
X130119551Y-55852286D01*
X130119549Y-55852284D01*
X130115487Y-55845248D01*
X130117236Y-55844238D01*
X130095962Y-55789215D01*
X130109998Y-55720770D01*
X130157530Y-55671507D01*
X130245913Y-55620480D01*
X130320480Y-55545913D01*
X130373207Y-55454587D01*
X130400500Y-55352727D01*
X130400500Y-55247273D01*
X130373207Y-55145413D01*
X130320480Y-55054087D01*
X130245913Y-54979520D01*
X130240189Y-54976215D01*
X130229542Y-54966109D01*
X130218986Y-54947921D01*
X130212134Y-54940691D01*
X132949500Y-54940691D01*
X132949500Y-55059309D01*
X132980201Y-55173886D01*
X133039511Y-55276613D01*
X133123387Y-55360489D01*
X133226114Y-55419799D01*
X133340691Y-55450500D01*
X133340694Y-55450500D01*
X133459306Y-55450500D01*
X133459309Y-55450500D01*
X133573886Y-55419799D01*
X133676613Y-55360489D01*
X133760489Y-55276613D01*
X133819799Y-55173886D01*
X133850500Y-55059309D01*
X133850500Y-54940691D01*
X133819799Y-54826114D01*
X133760489Y-54723387D01*
X133676613Y-54639511D01*
X133573886Y-54580201D01*
X133459309Y-54549500D01*
X133340691Y-54549500D01*
X133226114Y-54580201D01*
X133226112Y-54580201D01*
X133226112Y-54580202D01*
X133123387Y-54639511D01*
X133123384Y-54639513D01*
X133039513Y-54723384D01*
X133039511Y-54723387D01*
X132992920Y-54804085D01*
X132980201Y-54826114D01*
X132949500Y-54940691D01*
X130212134Y-54940691D01*
X130204521Y-54932658D01*
X130201800Y-54918310D01*
X130194470Y-54905679D01*
X130195422Y-54884670D01*
X130191506Y-54864011D01*
X130196989Y-54850138D01*
X130197636Y-54835881D01*
X130208915Y-54819965D01*
X130212232Y-54811572D01*
X130210350Y-54810486D01*
X130214412Y-54803449D01*
X130214414Y-54803448D01*
X130267141Y-54712122D01*
X130294434Y-54610262D01*
X130294434Y-54504808D01*
X130267141Y-54402948D01*
X130214414Y-54311622D01*
X130139847Y-54237055D01*
X130048521Y-54184328D01*
X129946661Y-54157035D01*
X129841207Y-54157035D01*
X129739347Y-54184328D01*
X129739344Y-54184329D01*
X129648019Y-54237056D01*
X129602515Y-54282560D01*
X129541192Y-54316044D01*
X129471500Y-54311059D01*
X129415567Y-54269187D01*
X129395060Y-54226971D01*
X129380654Y-54173207D01*
X129373207Y-54145413D01*
X129320480Y-54054087D01*
X129245913Y-53979520D01*
X129154587Y-53926793D01*
X129052727Y-53899500D01*
X128947273Y-53899500D01*
X128845413Y-53926793D01*
X128845410Y-53926794D01*
X128754085Y-53979521D01*
X128679521Y-54054085D01*
X128626794Y-54145410D01*
X128626793Y-54145413D01*
X128599500Y-54247273D01*
X111402922Y-54247273D01*
X111402980Y-54238346D01*
X111406148Y-53747273D01*
X134899500Y-53747273D01*
X134899500Y-53852727D01*
X134926793Y-53954587D01*
X134979520Y-54045913D01*
X135054087Y-54120480D01*
X135145413Y-54173207D01*
X135247273Y-54200500D01*
X135247275Y-54200500D01*
X135352725Y-54200500D01*
X135352727Y-54200500D01*
X135454587Y-54173207D01*
X135545913Y-54120480D01*
X135620480Y-54045913D01*
X135673207Y-53954587D01*
X135700500Y-53852727D01*
X135700500Y-53847273D01*
X141699500Y-53847273D01*
X141699500Y-53952727D01*
X141726793Y-54054587D01*
X141779520Y-54145913D01*
X141854087Y-54220480D01*
X141945413Y-54273207D01*
X142047273Y-54300500D01*
X142047275Y-54300500D01*
X142152725Y-54300500D01*
X142152727Y-54300500D01*
X142254587Y-54273207D01*
X142345913Y-54220480D01*
X142420480Y-54145913D01*
X142473207Y-54054587D01*
X142500500Y-53952727D01*
X142500500Y-53847273D01*
X142473207Y-53745413D01*
X142420480Y-53654087D01*
X142345913Y-53579520D01*
X142254587Y-53526793D01*
X142152727Y-53499500D01*
X142047273Y-53499500D01*
X141945413Y-53526793D01*
X141945410Y-53526794D01*
X141854085Y-53579521D01*
X141779521Y-53654085D01*
X141726794Y-53745410D01*
X141726793Y-53745413D01*
X141699500Y-53847273D01*
X135700500Y-53847273D01*
X135700500Y-53747273D01*
X135673207Y-53645413D01*
X135620480Y-53554087D01*
X135545913Y-53479520D01*
X135454587Y-53426793D01*
X135352727Y-53399500D01*
X135247273Y-53399500D01*
X135145413Y-53426793D01*
X135145410Y-53426794D01*
X135054085Y-53479521D01*
X134979521Y-53554085D01*
X134926794Y-53645410D01*
X134926793Y-53645413D01*
X134899500Y-53747273D01*
X111406148Y-53747273D01*
X111406206Y-53738346D01*
X111412599Y-52747273D01*
X122199500Y-52747273D01*
X122199500Y-52852727D01*
X122226793Y-52954587D01*
X122279520Y-53045913D01*
X122354087Y-53120480D01*
X122445413Y-53173207D01*
X122547273Y-53200500D01*
X122547275Y-53200500D01*
X122652725Y-53200500D01*
X122652727Y-53200500D01*
X122754587Y-53173207D01*
X122845913Y-53120480D01*
X122920480Y-53045913D01*
X122973207Y-52954587D01*
X123000500Y-52852727D01*
X123000500Y-52747273D01*
X123999500Y-52747273D01*
X123999500Y-52852727D01*
X124026793Y-52954587D01*
X124079520Y-53045913D01*
X124154087Y-53120480D01*
X124245413Y-53173207D01*
X124347273Y-53200500D01*
X124347275Y-53200500D01*
X124452725Y-53200500D01*
X124452727Y-53200500D01*
X124554587Y-53173207D01*
X124645913Y-53120480D01*
X124720480Y-53045913D01*
X124773207Y-52954587D01*
X124800500Y-52852727D01*
X124800500Y-52747273D01*
X124773207Y-52645413D01*
X124720480Y-52554087D01*
X124645913Y-52479520D01*
X124554587Y-52426793D01*
X124452727Y-52399500D01*
X124347273Y-52399500D01*
X124245413Y-52426793D01*
X124245410Y-52426794D01*
X124154085Y-52479521D01*
X124079521Y-52554085D01*
X124026794Y-52645410D01*
X124026793Y-52645413D01*
X123999500Y-52747273D01*
X123000500Y-52747273D01*
X122973207Y-52645413D01*
X122920480Y-52554087D01*
X122845913Y-52479520D01*
X122754587Y-52426793D01*
X122652727Y-52399500D01*
X122547273Y-52399500D01*
X122445413Y-52426793D01*
X122445410Y-52426794D01*
X122354085Y-52479521D01*
X122279521Y-52554085D01*
X122226794Y-52645410D01*
X122226793Y-52645413D01*
X122199500Y-52747273D01*
X111412599Y-52747273D01*
X111412657Y-52738346D01*
X111415174Y-52348273D01*
X126520988Y-52348273D01*
X126520988Y-52453727D01*
X126548281Y-52555587D01*
X126601008Y-52646913D01*
X126675575Y-52721480D01*
X126766901Y-52774207D01*
X126773940Y-52778271D01*
X126772915Y-52780046D01*
X126818771Y-52816994D01*
X126840840Y-52883286D01*
X126827498Y-52936906D01*
X126829904Y-52937903D01*
X126826793Y-52945413D01*
X126799500Y-53047273D01*
X126799500Y-53152727D01*
X126826793Y-53254587D01*
X126879520Y-53345913D01*
X126954087Y-53420480D01*
X127045413Y-53473207D01*
X127147273Y-53500500D01*
X127147275Y-53500500D01*
X127252725Y-53500500D01*
X127252727Y-53500500D01*
X127354587Y-53473207D01*
X127445913Y-53420480D01*
X127520480Y-53345913D01*
X127573207Y-53254587D01*
X127600500Y-53152727D01*
X127600500Y-53047273D01*
X127573207Y-52945413D01*
X127520480Y-52854087D01*
X127445913Y-52779520D01*
X127390063Y-52747275D01*
X127389514Y-52746958D01*
X127389509Y-52746955D01*
X127354587Y-52726793D01*
X127352483Y-52726229D01*
X127343999Y-52721480D01*
X127324455Y-52701520D01*
X127302709Y-52683995D01*
X127300347Y-52676900D01*
X127295116Y-52671557D01*
X127290101Y-52647273D01*
X132099500Y-52647273D01*
X132099500Y-52752727D01*
X132126793Y-52854587D01*
X132179520Y-52945913D01*
X132254087Y-53020480D01*
X132345413Y-53073207D01*
X132447273Y-53100500D01*
X132447275Y-53100500D01*
X132552725Y-53100500D01*
X132552727Y-53100500D01*
X132654587Y-53073207D01*
X132745913Y-53020480D01*
X132820480Y-52945913D01*
X132873207Y-52854587D01*
X132900500Y-52752727D01*
X132900500Y-52647273D01*
X132873207Y-52545413D01*
X132820480Y-52454087D01*
X132745913Y-52379520D01*
X132654587Y-52326793D01*
X132552727Y-52299500D01*
X132447273Y-52299500D01*
X132345413Y-52326793D01*
X132345410Y-52326794D01*
X132254085Y-52379521D01*
X132179521Y-52454085D01*
X132126794Y-52545410D01*
X132126793Y-52545413D01*
X132099500Y-52647273D01*
X127290101Y-52647273D01*
X127289466Y-52644200D01*
X127280647Y-52617700D01*
X127282476Y-52610356D01*
X127280984Y-52603132D01*
X127290310Y-52578909D01*
X127293999Y-52564097D01*
X127291584Y-52563097D01*
X127294690Y-52555595D01*
X127294695Y-52555587D01*
X127321988Y-52453727D01*
X127321988Y-52348273D01*
X127294695Y-52246413D01*
X127241968Y-52155087D01*
X127167401Y-52080520D01*
X127076075Y-52027793D01*
X126974215Y-52000500D01*
X126868761Y-52000500D01*
X126766901Y-52027793D01*
X126766898Y-52027794D01*
X126675573Y-52080521D01*
X126601009Y-52155085D01*
X126548282Y-52246410D01*
X126548281Y-52246413D01*
X126520988Y-52348273D01*
X111415174Y-52348273D01*
X111424857Y-50847273D01*
X128099500Y-50847273D01*
X128099500Y-50952727D01*
X128126793Y-51054587D01*
X128179520Y-51145913D01*
X128254087Y-51220480D01*
X128345413Y-51273207D01*
X128447273Y-51300500D01*
X128447275Y-51300500D01*
X128552725Y-51300500D01*
X128552727Y-51300500D01*
X128654587Y-51273207D01*
X128745913Y-51220480D01*
X128820480Y-51145913D01*
X128873207Y-51054587D01*
X128900500Y-50952727D01*
X128900500Y-50847273D01*
X141699500Y-50847273D01*
X141699500Y-50952727D01*
X141726793Y-51054587D01*
X141779520Y-51145913D01*
X141854087Y-51220480D01*
X141945413Y-51273207D01*
X142047273Y-51300500D01*
X142047275Y-51300500D01*
X142152725Y-51300500D01*
X142152727Y-51300500D01*
X142254587Y-51273207D01*
X142345913Y-51220480D01*
X142419120Y-51147273D01*
X147299500Y-51147273D01*
X147299500Y-51252727D01*
X147326793Y-51354587D01*
X147379520Y-51445913D01*
X147454087Y-51520480D01*
X147545413Y-51573207D01*
X147647273Y-51600500D01*
X147647275Y-51600500D01*
X147752725Y-51600500D01*
X147752727Y-51600500D01*
X147854587Y-51573207D01*
X147945913Y-51520480D01*
X148020480Y-51445913D01*
X148073207Y-51354587D01*
X148100500Y-51252727D01*
X148100500Y-51147273D01*
X148073207Y-51045413D01*
X148020480Y-50954087D01*
X147945913Y-50879520D01*
X147854587Y-50826793D01*
X147752727Y-50799500D01*
X147647273Y-50799500D01*
X147545413Y-50826793D01*
X147545410Y-50826794D01*
X147454085Y-50879521D01*
X147379521Y-50954085D01*
X147326794Y-51045410D01*
X147326793Y-51045413D01*
X147299500Y-51147273D01*
X142419120Y-51147273D01*
X142420480Y-51145913D01*
X142473207Y-51054587D01*
X142500500Y-50952727D01*
X142500500Y-50847273D01*
X142473207Y-50745413D01*
X142420480Y-50654087D01*
X142345913Y-50579520D01*
X142254587Y-50526793D01*
X142152727Y-50499500D01*
X142047273Y-50499500D01*
X141945413Y-50526793D01*
X141945410Y-50526794D01*
X141854085Y-50579521D01*
X141779521Y-50654085D01*
X141726794Y-50745410D01*
X141726793Y-50745413D01*
X141699500Y-50847273D01*
X128900500Y-50847273D01*
X128873207Y-50745413D01*
X128820480Y-50654087D01*
X128745913Y-50579520D01*
X128654587Y-50526793D01*
X128552727Y-50499500D01*
X128447273Y-50499500D01*
X128345413Y-50526793D01*
X128345410Y-50526794D01*
X128254085Y-50579521D01*
X128179521Y-50654085D01*
X128126794Y-50745410D01*
X128126793Y-50745413D01*
X128099500Y-50847273D01*
X111424857Y-50847273D01*
X111424915Y-50838346D01*
X111429373Y-50147273D01*
X130399500Y-50147273D01*
X130399500Y-50252727D01*
X130426793Y-50354587D01*
X130479520Y-50445913D01*
X130554087Y-50520480D01*
X130645413Y-50573207D01*
X130747273Y-50600500D01*
X130747275Y-50600500D01*
X130852725Y-50600500D01*
X130852727Y-50600500D01*
X130954587Y-50573207D01*
X131045913Y-50520480D01*
X131120480Y-50445913D01*
X131173207Y-50354587D01*
X131175167Y-50347273D01*
X133199500Y-50347273D01*
X133199500Y-50452727D01*
X133226793Y-50554587D01*
X133279520Y-50645913D01*
X133354087Y-50720480D01*
X133445413Y-50773207D01*
X133547273Y-50800500D01*
X133547275Y-50800500D01*
X133652725Y-50800500D01*
X133652727Y-50800500D01*
X133754587Y-50773207D01*
X133845913Y-50720480D01*
X133920480Y-50645913D01*
X133973207Y-50554587D01*
X134000500Y-50452727D01*
X134000500Y-50347273D01*
X133973207Y-50245413D01*
X133920480Y-50154087D01*
X133845913Y-50079520D01*
X133754587Y-50026793D01*
X133652727Y-49999500D01*
X133547273Y-49999500D01*
X133445413Y-50026793D01*
X133445410Y-50026794D01*
X133354085Y-50079521D01*
X133279521Y-50154085D01*
X133226794Y-50245410D01*
X133226793Y-50245413D01*
X133199500Y-50347273D01*
X131175167Y-50347273D01*
X131200500Y-50252727D01*
X131200500Y-50147273D01*
X131173207Y-50045413D01*
X131120480Y-49954087D01*
X131045913Y-49879520D01*
X130954587Y-49826793D01*
X130852727Y-49799500D01*
X130747273Y-49799500D01*
X130645413Y-49826793D01*
X130645410Y-49826794D01*
X130554085Y-49879521D01*
X130479521Y-49954085D01*
X130426794Y-50045410D01*
X130426793Y-50045413D01*
X130399500Y-50147273D01*
X111429373Y-50147273D01*
X111429431Y-50138346D01*
X111436469Y-49047273D01*
X126199500Y-49047273D01*
X126199500Y-49152727D01*
X126226793Y-49254587D01*
X126279520Y-49345913D01*
X126354087Y-49420480D01*
X126445413Y-49473207D01*
X126547273Y-49500500D01*
X126547275Y-49500500D01*
X126652725Y-49500500D01*
X126652727Y-49500500D01*
X126754587Y-49473207D01*
X126845913Y-49420480D01*
X126920480Y-49345913D01*
X126973207Y-49254587D01*
X127000500Y-49152727D01*
X127000500Y-49047273D01*
X126973207Y-48945413D01*
X126920480Y-48854087D01*
X126845913Y-48779520D01*
X126754587Y-48726793D01*
X126652727Y-48699500D01*
X126547273Y-48699500D01*
X126445413Y-48726793D01*
X126445410Y-48726794D01*
X126354085Y-48779521D01*
X126279521Y-48854085D01*
X126226794Y-48945410D01*
X126226793Y-48945413D01*
X126199500Y-49047273D01*
X111436469Y-49047273D01*
X111436527Y-49038346D01*
X111451577Y-46705499D01*
X111454501Y-46252273D01*
X132304500Y-46252273D01*
X132304500Y-46357727D01*
X132331793Y-46459587D01*
X132384520Y-46550913D01*
X132459087Y-46625480D01*
X132550413Y-46678207D01*
X132652273Y-46705500D01*
X132652275Y-46705500D01*
X132757725Y-46705500D01*
X132757727Y-46705500D01*
X132859587Y-46678207D01*
X132913166Y-46647273D01*
X145599500Y-46647273D01*
X145599500Y-46752727D01*
X145626793Y-46854587D01*
X145679520Y-46945913D01*
X145754087Y-47020480D01*
X145845413Y-47073207D01*
X145947273Y-47100500D01*
X145947275Y-47100500D01*
X146052725Y-47100500D01*
X146052727Y-47100500D01*
X146154587Y-47073207D01*
X146238001Y-47025047D01*
X146305900Y-47008575D01*
X146361998Y-47025047D01*
X146445413Y-47073207D01*
X146547273Y-47100500D01*
X146547275Y-47100500D01*
X146652725Y-47100500D01*
X146652727Y-47100500D01*
X146754587Y-47073207D01*
X146845913Y-47020480D01*
X146920480Y-46945913D01*
X146973207Y-46854587D01*
X147000500Y-46752727D01*
X147000500Y-46647273D01*
X146973207Y-46545413D01*
X146920480Y-46454087D01*
X146845913Y-46379520D01*
X146754587Y-46326793D01*
X146652727Y-46299500D01*
X146547273Y-46299500D01*
X146445413Y-46326793D01*
X146445410Y-46326794D01*
X146362000Y-46374951D01*
X146294099Y-46391424D01*
X146238000Y-46374951D01*
X146154589Y-46326794D01*
X146154588Y-46326793D01*
X146154587Y-46326793D01*
X146052727Y-46299500D01*
X145947273Y-46299500D01*
X145845413Y-46326793D01*
X145845410Y-46326794D01*
X145754085Y-46379521D01*
X145679521Y-46454085D01*
X145626794Y-46545410D01*
X145626793Y-46545413D01*
X145599500Y-46647273D01*
X132913166Y-46647273D01*
X132950913Y-46625480D01*
X133025480Y-46550913D01*
X133078207Y-46459587D01*
X133105500Y-46357727D01*
X133105500Y-46252273D01*
X133078207Y-46150413D01*
X133025480Y-46059087D01*
X132950913Y-45984520D01*
X132859587Y-45931793D01*
X132757727Y-45904500D01*
X132652273Y-45904500D01*
X132550413Y-45931793D01*
X132550410Y-45931794D01*
X132459085Y-45984521D01*
X132384521Y-46059085D01*
X132331794Y-46150410D01*
X132331793Y-46150413D01*
X132304500Y-46252273D01*
X111454501Y-46252273D01*
X111458404Y-45647273D01*
X120499500Y-45647273D01*
X120499500Y-45752727D01*
X120526793Y-45854587D01*
X120579520Y-45945913D01*
X120654087Y-46020480D01*
X120745413Y-46073207D01*
X120847273Y-46100500D01*
X120847275Y-46100500D01*
X120952725Y-46100500D01*
X120952727Y-46100500D01*
X121054587Y-46073207D01*
X121145913Y-46020480D01*
X121220480Y-45945913D01*
X121273207Y-45854587D01*
X121300500Y-45752727D01*
X121300500Y-45647273D01*
X126099500Y-45647273D01*
X126099500Y-45752727D01*
X126126793Y-45854587D01*
X126179520Y-45945913D01*
X126254087Y-46020480D01*
X126345413Y-46073207D01*
X126447273Y-46100500D01*
X126447275Y-46100500D01*
X126552725Y-46100500D01*
X126552727Y-46100500D01*
X126654587Y-46073207D01*
X126745913Y-46020480D01*
X126820480Y-45945913D01*
X126873207Y-45854587D01*
X126900500Y-45752727D01*
X126900500Y-45647273D01*
X126873207Y-45545413D01*
X126820480Y-45454087D01*
X126745913Y-45379520D01*
X126654587Y-45326793D01*
X126552727Y-45299500D01*
X126447273Y-45299500D01*
X126345413Y-45326793D01*
X126345410Y-45326794D01*
X126254085Y-45379521D01*
X126179521Y-45454085D01*
X126126794Y-45545410D01*
X126126793Y-45545413D01*
X126099500Y-45647273D01*
X121300500Y-45647273D01*
X121273207Y-45545413D01*
X121220480Y-45454087D01*
X121145913Y-45379520D01*
X121054587Y-45326793D01*
X120952727Y-45299500D01*
X120847273Y-45299500D01*
X120745413Y-45326793D01*
X120745410Y-45326794D01*
X120654085Y-45379521D01*
X120579521Y-45454085D01*
X120526794Y-45545410D01*
X120526793Y-45545413D01*
X120499500Y-45647273D01*
X111458404Y-45647273D01*
X111464210Y-44747273D01*
X122809500Y-44747273D01*
X122809500Y-44852727D01*
X122836793Y-44954587D01*
X122889520Y-45045913D01*
X122964087Y-45120480D01*
X123055413Y-45173207D01*
X123157273Y-45200500D01*
X123157275Y-45200500D01*
X123262725Y-45200500D01*
X123262727Y-45200500D01*
X123364587Y-45173207D01*
X123455913Y-45120480D01*
X123530480Y-45045913D01*
X123583207Y-44954587D01*
X123610500Y-44852727D01*
X123610500Y-44747273D01*
X123583207Y-44645413D01*
X123530480Y-44554087D01*
X123455913Y-44479520D01*
X123364587Y-44426793D01*
X123262727Y-44399500D01*
X123157273Y-44399500D01*
X123055413Y-44426793D01*
X123055410Y-44426794D01*
X122964085Y-44479521D01*
X122889521Y-44554085D01*
X122836794Y-44645410D01*
X122836793Y-44645413D01*
X122809500Y-44747273D01*
X111464210Y-44747273D01*
X111469371Y-43947273D01*
X124199500Y-43947273D01*
X124199500Y-44052727D01*
X124226793Y-44154587D01*
X124279520Y-44245913D01*
X124354087Y-44320480D01*
X124445413Y-44373207D01*
X124547273Y-44400500D01*
X124547275Y-44400500D01*
X124652725Y-44400500D01*
X124652727Y-44400500D01*
X124754587Y-44373207D01*
X124845913Y-44320480D01*
X124920480Y-44245913D01*
X124973207Y-44154587D01*
X125000500Y-44052727D01*
X125000500Y-43947273D01*
X124973207Y-43845413D01*
X124920480Y-43754087D01*
X124845913Y-43679520D01*
X124754587Y-43626793D01*
X124652727Y-43599500D01*
X124547273Y-43599500D01*
X124445413Y-43626793D01*
X124445410Y-43626794D01*
X124354085Y-43679521D01*
X124279521Y-43754085D01*
X124226794Y-43845410D01*
X124226793Y-43845413D01*
X124199500Y-43947273D01*
X111469371Y-43947273D01*
X111472887Y-43402273D01*
X134699500Y-43402273D01*
X134699500Y-43507727D01*
X134726793Y-43609587D01*
X134779520Y-43700913D01*
X134854087Y-43775480D01*
X134945413Y-43828207D01*
X135047273Y-43855500D01*
X135047275Y-43855500D01*
X135152725Y-43855500D01*
X135152727Y-43855500D01*
X135254587Y-43828207D01*
X135308166Y-43797273D01*
X148599500Y-43797273D01*
X148599500Y-43902727D01*
X148626793Y-44004587D01*
X148679520Y-44095913D01*
X148754087Y-44170480D01*
X148845413Y-44223207D01*
X148947273Y-44250500D01*
X148947275Y-44250500D01*
X149052725Y-44250500D01*
X149052727Y-44250500D01*
X149154587Y-44223207D01*
X149245913Y-44170480D01*
X149320480Y-44095913D01*
X149373207Y-44004587D01*
X149400500Y-43902727D01*
X149400500Y-43797273D01*
X149373207Y-43695413D01*
X149320480Y-43604087D01*
X149245913Y-43529520D01*
X149154587Y-43476793D01*
X149052727Y-43449500D01*
X148947273Y-43449500D01*
X148845413Y-43476793D01*
X148845410Y-43476794D01*
X148754085Y-43529521D01*
X148679521Y-43604085D01*
X148626794Y-43695410D01*
X148626793Y-43695413D01*
X148599500Y-43797273D01*
X135308166Y-43797273D01*
X135345913Y-43775480D01*
X135420480Y-43700913D01*
X135473207Y-43609587D01*
X135500500Y-43507727D01*
X135500500Y-43402273D01*
X135473207Y-43300413D01*
X135420480Y-43209087D01*
X135345913Y-43134520D01*
X135254587Y-43081793D01*
X135152727Y-43054500D01*
X135047273Y-43054500D01*
X134945413Y-43081793D01*
X134945410Y-43081794D01*
X134854085Y-43134521D01*
X134779521Y-43209085D01*
X134726794Y-43300410D01*
X134726793Y-43300413D01*
X134699500Y-43402273D01*
X111472887Y-43402273D01*
X111482275Y-41947273D01*
X120499500Y-41947273D01*
X120499500Y-42052727D01*
X120526793Y-42154587D01*
X120579520Y-42245913D01*
X120654087Y-42320480D01*
X120745413Y-42373207D01*
X120847273Y-42400500D01*
X120847275Y-42400500D01*
X120952725Y-42400500D01*
X120952727Y-42400500D01*
X121054587Y-42373207D01*
X121145913Y-42320480D01*
X121220480Y-42245913D01*
X121273207Y-42154587D01*
X121300500Y-42052727D01*
X121300500Y-41947273D01*
X121273207Y-41845413D01*
X121220480Y-41754087D01*
X121145913Y-41679520D01*
X121054587Y-41626793D01*
X120952727Y-41599500D01*
X120847273Y-41599500D01*
X120745413Y-41626793D01*
X120745410Y-41626794D01*
X120654085Y-41679521D01*
X120579521Y-41754085D01*
X120526794Y-41845410D01*
X120526793Y-41845413D01*
X120499500Y-41947273D01*
X111482275Y-41947273D01*
X111500492Y-39123699D01*
X111520608Y-39056789D01*
X111573706Y-39011376D01*
X111624489Y-39000500D01*
X151575500Y-39000500D01*
X151642539Y-39020185D01*
G37*
%TD.AperFunction*%
%TD*%
M02*
