%TF.GenerationSoftware,KiCad,Pcbnew,9.0.3*%
%TF.CreationDate,2025-12-31T13:04:55+01:00*%
%TF.ProjectId,Lars-10W-RGBW-V1,4c617273-2d31-4305-972d-524742572d56,rev?*%
%TF.SameCoordinates,Original*%
%TF.FileFunction,Paste,Top*%
%TF.FilePolarity,Positive*%
%FSLAX46Y46*%
G04 Gerber Fmt 4.6, Leading zero omitted, Abs format (unit mm)*
G04 Created by KiCad (PCBNEW 9.0.3) date 2025-12-31 13:04:55*
%MOMM*%
%LPD*%
G01*
G04 APERTURE LIST*
G04 Aperture macros list*
%AMRoundRect*
0 Rectangle with rounded corners*
0 $1 Rounding radius*
0 $2 $3 $4 $5 $6 $7 $8 $9 X,Y pos of 4 corners*
0 Add a 4 corners polygon primitive as box body*
4,1,4,$2,$3,$4,$5,$6,$7,$8,$9,$2,$3,0*
0 Add four circle primitives for the rounded corners*
1,1,$1+$1,$2,$3*
1,1,$1+$1,$4,$5*
1,1,$1+$1,$6,$7*
1,1,$1+$1,$8,$9*
0 Add four rect primitives between the rounded corners*
20,1,$1+$1,$2,$3,$4,$5,0*
20,1,$1+$1,$4,$5,$6,$7,0*
20,1,$1+$1,$6,$7,$8,$9,0*
20,1,$1+$1,$8,$9,$2,$3,0*%
%AMFreePoly0*
4,1,7,1.447800,-0.050800,0.812800,-0.050800,0.508000,-0.355600,-0.508000,-0.355600,-0.508000,0.355600,1.447800,0.355600,1.447800,-0.050800,1.447800,-0.050800,$1*%
%AMFreePoly1*
4,1,9,0.546100,0.114300,0.546100,-0.114300,0.241300,-0.419100,-0.241300,-0.419100,-0.546100,-0.114300,-0.546100,0.114300,-0.241300,0.419100,0.241300,0.419100,0.546100,0.114300,0.546100,0.114300,$1*%
%AMFreePoly2*
4,1,7,0.812800,0.076200,1.447800,0.076200,1.447800,-0.381000,-0.508000,-0.381000,-0.508000,0.381000,0.508000,0.381000,0.812800,0.076200,0.812800,0.076200,$1*%
G04 Aperture macros list end*
%ADD10RoundRect,0.250000X0.450000X-0.262500X0.450000X0.262500X-0.450000X0.262500X-0.450000X-0.262500X0*%
%ADD11RoundRect,0.250000X-0.300000X-1.600000X0.300000X-1.600000X0.300000X1.600000X-0.300000X1.600000X0*%
%ADD12RoundRect,0.140000X0.170000X-0.140000X0.170000X0.140000X-0.170000X0.140000X-0.170000X-0.140000X0*%
%ADD13RoundRect,0.135000X-0.135000X-0.185000X0.135000X-0.185000X0.135000X0.185000X-0.135000X0.185000X0*%
%ADD14RoundRect,0.140000X-0.140000X-0.170000X0.140000X-0.170000X0.140000X0.170000X-0.140000X0.170000X0*%
%ADD15RoundRect,0.250000X0.250000X0.475000X-0.250000X0.475000X-0.250000X-0.475000X0.250000X-0.475000X0*%
%ADD16RoundRect,0.140000X-0.170000X0.140000X-0.170000X-0.140000X0.170000X-0.140000X0.170000X0.140000X0*%
%ADD17RoundRect,0.250000X-0.475000X0.250000X-0.475000X-0.250000X0.475000X-0.250000X0.475000X0.250000X0*%
%ADD18R,2.500000X0.600000*%
%ADD19C,6.000000*%
%ADD20RoundRect,0.245000X-0.245000X-0.245000X0.245000X-0.245000X0.245000X0.245000X-0.245000X0.245000X0*%
%ADD21RoundRect,0.062500X-0.312500X-0.062500X0.312500X-0.062500X0.312500X0.062500X-0.312500X0.062500X0*%
%ADD22RoundRect,0.062500X-0.062500X-0.312500X0.062500X-0.312500X0.062500X0.312500X-0.062500X0.312500X0*%
%ADD23RoundRect,0.172500X0.262500X0.172500X-0.262500X0.172500X-0.262500X-0.172500X0.262500X-0.172500X0*%
%ADD24RoundRect,0.093750X0.093750X0.106250X-0.093750X0.106250X-0.093750X-0.106250X0.093750X-0.106250X0*%
%ADD25RoundRect,0.135000X0.135000X0.185000X-0.135000X0.185000X-0.135000X-0.185000X0.135000X-0.185000X0*%
%ADD26RoundRect,0.250000X-0.800000X-0.650000X0.800000X-0.650000X0.800000X0.650000X-0.800000X0.650000X0*%
%ADD27RoundRect,0.250000X-0.250000X-0.475000X0.250000X-0.475000X0.250000X0.475000X-0.250000X0.475000X0*%
%ADD28R,1.875000X1.050000*%
%ADD29RoundRect,0.250000X0.550000X-1.500000X0.550000X1.500000X-0.550000X1.500000X-0.550000X-1.500000X0*%
%ADD30RoundRect,0.135000X-0.185000X0.135000X-0.185000X-0.135000X0.185000X-0.135000X0.185000X0.135000X0*%
%ADD31RoundRect,0.250000X0.475000X-0.250000X0.475000X0.250000X-0.475000X0.250000X-0.475000X-0.250000X0*%
%ADD32RoundRect,0.140000X-0.206244X-0.077224X0.036244X-0.217224X0.206244X0.077224X-0.036244X0.217224X0*%
%ADD33RoundRect,0.250000X1.600000X-0.300000X1.600000X0.300000X-1.600000X0.300000X-1.600000X-0.300000X0*%
%ADD34RoundRect,0.140000X0.140000X0.170000X-0.140000X0.170000X-0.140000X-0.170000X0.140000X-0.170000X0*%
%ADD35RoundRect,0.375000X-0.625000X-0.375000X0.625000X-0.375000X0.625000X0.375000X-0.625000X0.375000X0*%
%ADD36RoundRect,0.500000X-0.500000X-1.400000X0.500000X-1.400000X0.500000X1.400000X-0.500000X1.400000X0*%
%ADD37RoundRect,0.250000X-0.550000X1.500000X-0.550000X-1.500000X0.550000X-1.500000X0.550000X1.500000X0*%
%ADD38RoundRect,0.250000X0.275000X0.250000X-0.275000X0.250000X-0.275000X-0.250000X0.275000X-0.250000X0*%
%ADD39RoundRect,0.250000X0.850000X0.275000X-0.850000X0.275000X-0.850000X-0.275000X0.850000X-0.275000X0*%
%ADD40RoundRect,0.165000X0.610000X0.385000X-0.610000X0.385000X-0.610000X-0.385000X0.610000X-0.385000X0*%
%ADD41RoundRect,0.172500X-0.172500X-0.172500X0.172500X-0.172500X0.172500X0.172500X-0.172500X0.172500X0*%
%ADD42RoundRect,0.050000X-0.375000X-0.050000X0.375000X-0.050000X0.375000X0.050000X-0.375000X0.050000X0*%
%ADD43RoundRect,0.050000X-0.050000X-0.375000X0.050000X-0.375000X0.050000X0.375000X-0.050000X0.375000X0*%
%ADD44RoundRect,0.140000X-0.036244X-0.217224X0.206244X-0.077224X0.036244X0.217224X-0.206244X0.077224X0*%
%ADD45FreePoly0,0.000000*%
%ADD46FreePoly1,0.000000*%
%ADD47FreePoly2,0.000000*%
%ADD48R,1.092200X0.762000*%
%ADD49R,1.092200X0.254000*%
%ADD50R,0.254000X0.609600*%
%ADD51RoundRect,0.147500X-0.147500X-0.172500X0.147500X-0.172500X0.147500X0.172500X-0.147500X0.172500X0*%
%ADD52RoundRect,0.150000X-0.425000X0.150000X-0.425000X-0.150000X0.425000X-0.150000X0.425000X0.150000X0*%
%ADD53RoundRect,0.075000X-0.500000X0.075000X-0.500000X-0.075000X0.500000X-0.075000X0.500000X0.075000X0*%
%ADD54O,2.100000X1.000000*%
%ADD55O,1.800000X1.000000*%
G04 APERTURE END LIST*
D10*
%TO.C,R501*%
X142200000Y-48812500D03*
X142200000Y-46987500D03*
%TD*%
%TO.C,R401*%
X142200000Y-67312500D03*
X142200000Y-65487500D03*
%TD*%
%TO.C,R301*%
X130800000Y-69212500D03*
X130800000Y-67387500D03*
%TD*%
%TO.C,R201*%
X128200000Y-48412500D03*
X128200000Y-46587500D03*
%TD*%
D11*
%TO.C,L401*%
X143000000Y-62400000D03*
X146000000Y-62400000D03*
%TD*%
D12*
%TO.C,C609*%
X124700000Y-71980000D03*
X124700000Y-71020000D03*
%TD*%
D13*
%TO.C,R20*%
X119890000Y-65100000D03*
X120910000Y-65100000D03*
%TD*%
D14*
%TO.C,C614*%
X128920000Y-71300000D03*
X129880000Y-71300000D03*
%TD*%
D15*
%TO.C,C303*%
X139450000Y-68100000D03*
X137550000Y-68100000D03*
%TD*%
D16*
%TO.C,C19*%
X118100000Y-70420000D03*
X118100000Y-71380000D03*
%TD*%
D17*
%TO.C,C612*%
X131500000Y-72550000D03*
X131500000Y-74450000D03*
%TD*%
D13*
%TO.C,R19*%
X114890000Y-68100000D03*
X115910000Y-68100000D03*
%TD*%
D18*
%TO.C,D2*%
X144400000Y-59545000D03*
X144400000Y-57715000D03*
X144400000Y-55885000D03*
X144400000Y-54055000D03*
X132400000Y-59545000D03*
X132400000Y-57715000D03*
X132400000Y-55885000D03*
X132400000Y-54055000D03*
D19*
X138400000Y-56800000D03*
%TD*%
D12*
%TO.C,C504*%
X147600000Y-48180000D03*
X147600000Y-47220000D03*
%TD*%
D20*
%TO.C,U101*%
X123460000Y-55200000D03*
X123460000Y-56420000D03*
X123460000Y-57640000D03*
X124680000Y-55200000D03*
X124680000Y-56420000D03*
X124680000Y-57640000D03*
X125900000Y-55200000D03*
X125900000Y-56420000D03*
X125900000Y-57640000D03*
D21*
X122205000Y-54670000D03*
X122205000Y-55170000D03*
X122205000Y-55670000D03*
X122205000Y-56170000D03*
X122205000Y-56670000D03*
X122205000Y-57170000D03*
X122205000Y-57670000D03*
X122205000Y-58170000D03*
D22*
X122930000Y-58895000D03*
X123430000Y-58895000D03*
X123930000Y-58895000D03*
X124430000Y-58895000D03*
X124930000Y-58895000D03*
X125430000Y-58895000D03*
X125930000Y-58895000D03*
X126430000Y-58895000D03*
D21*
X127155000Y-58170000D03*
X127155000Y-57670000D03*
X127155000Y-57170000D03*
X127155000Y-56670000D03*
X127155000Y-56170000D03*
X127155000Y-55670000D03*
X127155000Y-55170000D03*
X127155000Y-54670000D03*
D22*
X126430000Y-53945000D03*
X125930000Y-53945000D03*
X125430000Y-53945000D03*
X124930000Y-53945000D03*
X124430000Y-53945000D03*
X123930000Y-53945000D03*
X123430000Y-53945000D03*
X122930000Y-53945000D03*
%TD*%
D16*
%TO.C,C14*%
X120500000Y-54620000D03*
X120500000Y-55580000D03*
%TD*%
D14*
%TO.C,C615*%
X126020000Y-77100000D03*
X126980000Y-77100000D03*
%TD*%
D23*
%TO.C,U302*%
X133100000Y-68250000D03*
X133100000Y-67450000D03*
D24*
X133987500Y-68500000D03*
X133987500Y-67850000D03*
X133987500Y-67200000D03*
X132212500Y-67200000D03*
X132212500Y-67850000D03*
X132212500Y-68500000D03*
%TD*%
D25*
%TO.C,R13*%
X114920000Y-58800000D03*
X113900000Y-58800000D03*
%TD*%
%TO.C,R1*%
X116433995Y-70076394D03*
X115413995Y-70076394D03*
%TD*%
D26*
%TO.C,Y1*%
X119850000Y-50950000D03*
X122750000Y-50950000D03*
X122750000Y-48650000D03*
X119850000Y-48650000D03*
%TD*%
D27*
%TO.C,C18*%
X117983005Y-63639666D03*
X119883005Y-63639666D03*
%TD*%
D28*
%TO.C,U601*%
X119700000Y-77850000D03*
X119700000Y-75350000D03*
X113700000Y-75350000D03*
X113700000Y-77850000D03*
%TD*%
D23*
%TO.C,U402*%
X144500000Y-66300000D03*
X144500000Y-65500000D03*
D24*
X145387500Y-66550000D03*
X145387500Y-65900000D03*
X145387500Y-65250000D03*
X143612500Y-65250000D03*
X143612500Y-65900000D03*
X143612500Y-66550000D03*
%TD*%
D25*
%TO.C,R15*%
X115410000Y-62400000D03*
X114390000Y-62400000D03*
%TD*%
D11*
%TO.C,L501*%
X143000000Y-43900000D03*
X146000000Y-43900000D03*
%TD*%
%TO.C,L301*%
X131600000Y-64300000D03*
X134600000Y-64300000D03*
%TD*%
D12*
%TO.C,C204*%
X133705000Y-47785000D03*
X133705000Y-46825000D03*
%TD*%
D27*
%TO.C,C201*%
X133655000Y-45205000D03*
X135555000Y-45205000D03*
%TD*%
D29*
%TO.C,C601*%
X124900000Y-68500000D03*
X124900000Y-62900000D03*
%TD*%
D25*
%TO.C,R12*%
X119610000Y-60600000D03*
X118590000Y-60600000D03*
%TD*%
D13*
%TO.C,R9*%
X122990000Y-42900000D03*
X124010000Y-42900000D03*
%TD*%
D27*
%TO.C,C15*%
X123750000Y-79700000D03*
X125650000Y-79700000D03*
%TD*%
D30*
%TO.C,R5*%
X130100000Y-60290000D03*
X130100000Y-61310000D03*
%TD*%
D12*
%TO.C,C13*%
X117700000Y-54580000D03*
X117700000Y-53620000D03*
%TD*%
D31*
%TO.C,C402*%
X147800000Y-62250000D03*
X147800000Y-60350000D03*
%TD*%
%TO.C,C11*%
X150600000Y-73300000D03*
X150600000Y-71400000D03*
%TD*%
D11*
%TO.C,L201*%
X129100000Y-43500000D03*
X132100000Y-43500000D03*
%TD*%
D13*
%TO.C,R402*%
X147690000Y-67900000D03*
X148710000Y-67900000D03*
%TD*%
D12*
%TO.C,C404*%
X147600000Y-66580000D03*
X147600000Y-65620000D03*
%TD*%
D23*
%TO.C,U202*%
X130605000Y-47455000D03*
X130605000Y-46655000D03*
D24*
X131492500Y-47705000D03*
X131492500Y-47055000D03*
X131492500Y-46405000D03*
X129717500Y-46405000D03*
X129717500Y-47055000D03*
X129717500Y-47705000D03*
%TD*%
D32*
%TO.C,C102*%
X114484308Y-54160000D03*
X115315692Y-54640000D03*
%TD*%
D13*
%TO.C,R202*%
X133795000Y-49105000D03*
X134815000Y-49105000D03*
%TD*%
D33*
%TO.C,L601*%
X128200000Y-75800000D03*
X128200000Y-72800000D03*
%TD*%
D15*
%TO.C,C607*%
X121250000Y-72600000D03*
X119350000Y-72600000D03*
%TD*%
D34*
%TO.C,C12*%
X120380000Y-58400000D03*
X119420000Y-58400000D03*
%TD*%
D15*
%TO.C,C203*%
X136955000Y-47305000D03*
X135055000Y-47305000D03*
%TD*%
D35*
%TO.C,U603*%
X141950000Y-71200000D03*
X141950000Y-73500000D03*
X141950000Y-75800000D03*
D36*
X148250000Y-73500000D03*
%TD*%
D34*
%TO.C,C613*%
X127980000Y-71300000D03*
X127020000Y-71300000D03*
%TD*%
D13*
%TO.C,R11*%
X118590000Y-59610000D03*
X119610000Y-59610000D03*
%TD*%
D27*
%TO.C,C610*%
X141850000Y-78600000D03*
X143750000Y-78600000D03*
%TD*%
D25*
%TO.C,R7*%
X129910000Y-62200000D03*
X128890000Y-62200000D03*
%TD*%
D34*
%TO.C,C604*%
X121880000Y-71100000D03*
X120920000Y-71100000D03*
%TD*%
D25*
%TO.C,R601*%
X131010000Y-77300000D03*
X129990000Y-77300000D03*
%TD*%
D37*
%TO.C,C611*%
X136900000Y-73700000D03*
X136900000Y-79300000D03*
%TD*%
D14*
%TO.C,C2*%
X118920000Y-52800000D03*
X119880000Y-52800000D03*
%TD*%
D13*
%TO.C,R14*%
X113890000Y-59800000D03*
X114910000Y-59800000D03*
%TD*%
%TO.C,R6*%
X126790000Y-61300000D03*
X127810000Y-61300000D03*
%TD*%
D12*
%TO.C,C304*%
X136200000Y-68580000D03*
X136200000Y-67620000D03*
%TD*%
D38*
%TO.C,J101*%
X110300000Y-59400000D03*
D39*
X108775000Y-60875000D03*
X108775000Y-57925000D03*
%TD*%
D12*
%TO.C,C17*%
X116900000Y-66080000D03*
X116900000Y-65120000D03*
%TD*%
D14*
%TO.C,C5*%
X129240000Y-56800000D03*
X130200000Y-56800000D03*
%TD*%
D13*
%TO.C,R502*%
X147690000Y-49500000D03*
X148710000Y-49500000D03*
%TD*%
D27*
%TO.C,C617*%
X128250000Y-53300000D03*
X130150000Y-53300000D03*
%TD*%
D13*
%TO.C,R16*%
X114380000Y-63400000D03*
X115400000Y-63400000D03*
%TD*%
D15*
%TO.C,C603*%
X120250000Y-79900000D03*
X118350000Y-79900000D03*
%TD*%
D40*
%TO.C,SW2*%
X120970000Y-40730000D03*
X114020000Y-40730000D03*
%TD*%
D14*
%TO.C,C6*%
X125520000Y-50800000D03*
X126480000Y-50800000D03*
%TD*%
D13*
%TO.C,R602*%
X128090000Y-77300000D03*
X129110000Y-77300000D03*
%TD*%
D31*
%TO.C,C202*%
X133905000Y-43455000D03*
X133905000Y-41555000D03*
%TD*%
D14*
%TO.C,C606*%
X121520000Y-78400000D03*
X122480000Y-78400000D03*
%TD*%
%TO.C,C7*%
X115720000Y-56500000D03*
X116680000Y-56500000D03*
%TD*%
D40*
%TO.C,SW1*%
X120970000Y-44530000D03*
X114020000Y-44530000D03*
%TD*%
D27*
%TO.C,C401*%
X147550000Y-64000000D03*
X149450000Y-64000000D03*
%TD*%
D34*
%TO.C,C608*%
X123780000Y-72400000D03*
X122820000Y-72400000D03*
%TD*%
D15*
%TO.C,C403*%
X150850000Y-66100000D03*
X148950000Y-66100000D03*
%TD*%
D13*
%TO.C,R302*%
X136290000Y-69900000D03*
X137310000Y-69900000D03*
%TD*%
D31*
%TO.C,C302*%
X136400000Y-64250000D03*
X136400000Y-62350000D03*
%TD*%
D13*
%TO.C,R18*%
X114890000Y-67100000D03*
X115910000Y-67100000D03*
%TD*%
D41*
%TO.C,U1*%
X118790000Y-67390000D03*
X118790000Y-68210000D03*
X119610000Y-67390000D03*
X119610000Y-68210000D03*
D42*
X117750000Y-67000000D03*
X117750000Y-67400000D03*
X117750000Y-67800000D03*
X117750000Y-68200000D03*
X117750000Y-68600000D03*
D43*
X118400000Y-69250000D03*
X118800000Y-69250000D03*
X119200000Y-69250000D03*
X119600000Y-69250000D03*
X120000000Y-69250000D03*
D42*
X120650000Y-68600000D03*
X120650000Y-68200000D03*
X120650000Y-67800000D03*
X120650000Y-67400000D03*
X120650000Y-67000000D03*
D43*
X120000000Y-66350000D03*
X119600000Y-66350000D03*
X119200000Y-66350000D03*
X118800000Y-66350000D03*
X118400000Y-66350000D03*
%TD*%
D15*
%TO.C,C503*%
X150850000Y-47700000D03*
X148950000Y-47700000D03*
%TD*%
D16*
%TO.C,C101*%
X114500000Y-54220000D03*
X114500000Y-55180000D03*
%TD*%
D25*
%TO.C,R10*%
X122110000Y-42900000D03*
X121090000Y-42900000D03*
%TD*%
D44*
%TO.C,C103*%
X114484308Y-55140000D03*
X115315692Y-54660000D03*
%TD*%
D27*
%TO.C,C501*%
X147550000Y-45600000D03*
X149450000Y-45600000D03*
%TD*%
D14*
%TO.C,C605*%
X121520000Y-80200000D03*
X122480000Y-80200000D03*
%TD*%
D15*
%TO.C,C16*%
X116350000Y-73600000D03*
X114450000Y-73600000D03*
%TD*%
D34*
%TO.C,C1*%
X123880000Y-46900000D03*
X122920000Y-46900000D03*
%TD*%
D25*
%TO.C,R2*%
X116433995Y-69076394D03*
X115413995Y-69076394D03*
%TD*%
D31*
%TO.C,C502*%
X147800000Y-43850000D03*
X147800000Y-41950000D03*
%TD*%
D15*
%TO.C,C9*%
X147550000Y-80500000D03*
X145650000Y-80500000D03*
%TD*%
D25*
%TO.C,R4*%
X115400000Y-64700000D03*
X114380000Y-64700000D03*
%TD*%
D34*
%TO.C,C8*%
X120380000Y-57400000D03*
X119420000Y-57400000D03*
%TD*%
D23*
%TO.C,U502*%
X144500000Y-47850000D03*
X144500000Y-47050000D03*
D24*
X145387500Y-48100000D03*
X145387500Y-47450000D03*
X145387500Y-46800000D03*
X143612500Y-46800000D03*
X143612500Y-47450000D03*
X143612500Y-48100000D03*
%TD*%
D17*
%TO.C,C616*%
X149500000Y-77850000D03*
X149500000Y-79750000D03*
%TD*%
D15*
%TO.C,C10*%
X147550000Y-78400000D03*
X145650000Y-78400000D03*
%TD*%
D27*
%TO.C,C301*%
X136150000Y-66000000D03*
X138050000Y-66000000D03*
%TD*%
D45*
%TO.C,U602*%
X122460660Y-74972825D03*
D46*
X123650650Y-75722125D03*
D47*
X122460660Y-76496825D03*
D48*
X124800000Y-76500000D03*
D49*
X124800000Y-75223650D03*
X124800000Y-74772800D03*
D50*
X124777775Y-74048900D03*
X124326925Y-74048900D03*
X123876075Y-74048900D03*
X123425225Y-74048900D03*
X122974375Y-74048900D03*
X122523525Y-74048900D03*
%TD*%
D14*
%TO.C,C4*%
X123600000Y-60100000D03*
X124560000Y-60100000D03*
%TD*%
D25*
%TO.C,R8*%
X123210000Y-45700000D03*
X122190000Y-45700000D03*
%TD*%
D51*
%TO.C,L1*%
X118615000Y-54600000D03*
X119585000Y-54600000D03*
%TD*%
D52*
%TO.C,J1*%
X112480000Y-65200000D03*
X112480000Y-66000000D03*
D53*
X112480000Y-67150000D03*
X112480000Y-68150000D03*
X112480000Y-68650000D03*
X112480000Y-69650000D03*
D52*
X112480000Y-70800000D03*
X112480000Y-71600000D03*
X112480000Y-71600000D03*
X112480000Y-70800000D03*
D53*
X112480000Y-70150000D03*
X112480000Y-69150000D03*
X112480000Y-67650000D03*
X112480000Y-66650000D03*
D52*
X112480000Y-66000000D03*
X112480000Y-65200000D03*
D54*
X111905000Y-64080000D03*
D55*
X107725000Y-64080000D03*
D54*
X111905000Y-72720000D03*
D55*
X107725000Y-72720000D03*
%TD*%
D25*
%TO.C,R3*%
X115400000Y-65700000D03*
X114380000Y-65700000D03*
%TD*%
D15*
%TO.C,C20*%
X116550000Y-71600000D03*
X114650000Y-71600000D03*
%TD*%
D14*
%TO.C,C3*%
X119920000Y-46900000D03*
X120880000Y-46900000D03*
%TD*%
M02*
