%TF.GenerationSoftware,KiCad,Pcbnew,9.0.6*%
%TF.CreationDate,2025-12-24T13:44:06+01:00*%
%TF.ProjectId,10W-RGBW-Lars-v1,3130572d-5247-4425-972d-4c6172732d76,rev?*%
%TF.SameCoordinates,Original*%
%TF.FileFunction,Copper,L4,Bot*%
%TF.FilePolarity,Positive*%
%FSLAX46Y46*%
G04 Gerber Fmt 4.6, Leading zero omitted, Abs format (unit mm)*
G04 Created by KiCad (PCBNEW 9.0.6) date 2025-12-24 13:44:06*
%MOMM*%
%LPD*%
G01*
G04 APERTURE LIST*
G04 Aperture macros list*
%AMRoundRect*
0 Rectangle with rounded corners*
0 $1 Rounding radius*
0 $2 $3 $4 $5 $6 $7 $8 $9 X,Y pos of 4 corners*
0 Add a 4 corners polygon primitive as box body*
4,1,4,$2,$3,$4,$5,$6,$7,$8,$9,$2,$3,0*
0 Add four circle primitives for the rounded corners*
1,1,$1+$1,$2,$3*
1,1,$1+$1,$4,$5*
1,1,$1+$1,$6,$7*
1,1,$1+$1,$8,$9*
0 Add four rect primitives between the rounded corners*
20,1,$1+$1,$2,$3,$4,$5,0*
20,1,$1+$1,$4,$5,$6,$7,0*
20,1,$1+$1,$6,$7,$8,$9,0*
20,1,$1+$1,$8,$9,$2,$3,0*%
G04 Aperture macros list end*
%TA.AperFunction,HeatsinkPad*%
%ADD10O,2.100000X1.000000*%
%TD*%
%TA.AperFunction,HeatsinkPad*%
%ADD11O,1.800000X1.000000*%
%TD*%
%TA.AperFunction,HeatsinkPad*%
%ADD12C,0.500000*%
%TD*%
%TA.AperFunction,HeatsinkPad*%
%ADD13R,1.650000X1.650000*%
%TD*%
%TA.AperFunction,HeatsinkPad*%
%ADD14R,2.500000X2.500000*%
%TD*%
%TA.AperFunction,HeatsinkPad*%
%ADD15R,0.500000X1.600000*%
%TD*%
%TA.AperFunction,SMDPad,CuDef*%
%ADD16R,1.700000X2.500000*%
%TD*%
%TA.AperFunction,ComponentPad*%
%ADD17R,0.500000X0.900000*%
%TD*%
%TA.AperFunction,ComponentPad*%
%ADD18C,2.000000*%
%TD*%
%TA.AperFunction,ComponentPad*%
%ADD19RoundRect,0.250000X-0.750000X0.750000X-0.750000X-0.750000X0.750000X-0.750000X0.750000X0.750000X0*%
%TD*%
%TA.AperFunction,ViaPad*%
%ADD20C,0.300000*%
%TD*%
%TA.AperFunction,ViaPad*%
%ADD21C,0.600000*%
%TD*%
%TA.AperFunction,ViaPad*%
%ADD22C,1.000000*%
%TD*%
%TA.AperFunction,Conductor*%
%ADD23C,0.200000*%
%TD*%
%TA.AperFunction,Conductor*%
%ADD24C,0.334300*%
%TD*%
%TA.AperFunction,Conductor*%
%ADD25C,0.600000*%
%TD*%
%TA.AperFunction,Conductor*%
%ADD26C,0.400000*%
%TD*%
%TA.AperFunction,Conductor*%
%ADD27C,0.800000*%
%TD*%
G04 APERTURE END LIST*
D10*
%TO.P,J1,S1,SHIELD*%
%TO.N,GND*%
X111905000Y-64080000D03*
D11*
X107725000Y-64080000D03*
D10*
X111905000Y-72720000D03*
D11*
X107725000Y-72720000D03*
%TD*%
D12*
%TO.P,U1,21,GND*%
%TO.N,GND*%
X118625000Y-67225000D03*
X118625000Y-68375000D03*
D13*
X119200000Y-67800000D03*
D12*
X119775000Y-67225000D03*
X119775000Y-68375000D03*
%TD*%
%TO.P,U101,33,GND*%
%TO.N,GND*%
X123680000Y-55420000D03*
X123680000Y-56420000D03*
X123680000Y-57420000D03*
X124680000Y-55420000D03*
X124680000Y-56420000D03*
D14*
X124680000Y-56420000D03*
D12*
X124680000Y-57420000D03*
X125680000Y-55420000D03*
X125680000Y-56420000D03*
X125680000Y-57420000D03*
%TD*%
%TO.P,U202,7,EP*%
%TO.N,GND*%
X130605000Y-47605000D03*
D15*
X130605000Y-47055000D03*
D12*
X130605000Y-46505000D03*
%TD*%
%TO.P,U302,7,EP*%
%TO.N,GND*%
X133100000Y-68400000D03*
D15*
X133100000Y-67850000D03*
D12*
X133100000Y-67300000D03*
%TD*%
%TO.P,U402,7,EP*%
%TO.N,GND*%
X144500000Y-66450000D03*
D15*
X144500000Y-65900000D03*
D12*
X144500000Y-65350000D03*
%TD*%
%TO.P,U502,7,EP*%
%TO.N,GND*%
X144500000Y-48000000D03*
D15*
X144500000Y-47450000D03*
D12*
X144500000Y-46900000D03*
%TD*%
D16*
%TO.P,D1,2,A*%
%TO.N,Net-(D1-A)*%
X114200000Y-75100000D03*
%TO.P,D1,1,K*%
%TO.N,/Vbus*%
X114200000Y-79100000D03*
%TD*%
D17*
%TO.P,AE101,2,Shield*%
%TO.N,GND*%
X111000000Y-53600000D03*
%TD*%
D18*
%TO.P,J601,2,Pin_2*%
%TO.N,Net-(J601-Pin_2)*%
X108900000Y-78440000D03*
D19*
%TO.P,J601,1,Pin_1*%
%TO.N,Net-(J601-Pin_1)*%
X108900000Y-75900000D03*
%TD*%
D20*
%TO.N,GND*%
X118200000Y-52600000D03*
X118300000Y-53000000D03*
X118000000Y-53000000D03*
X116600000Y-52400000D03*
X117100000Y-53200000D03*
X117100000Y-53600000D03*
X117100000Y-54000000D03*
X116700000Y-54000000D03*
X116300000Y-54000000D03*
X115600000Y-54000000D03*
X115200000Y-53900000D03*
X115100000Y-53500000D03*
X114900000Y-53000000D03*
X114700000Y-52600000D03*
X114400000Y-52200000D03*
X114100000Y-51800000D03*
X113700000Y-51500000D03*
X113300000Y-51200000D03*
X112800000Y-51100000D03*
X112300000Y-51000000D03*
X111800000Y-50900000D03*
X112100000Y-52100000D03*
X111600000Y-52100000D03*
X112500000Y-52300000D03*
X113000000Y-52500000D03*
X113400000Y-52800000D03*
X113700000Y-53200000D03*
X113900000Y-53600000D03*
X113800000Y-54200000D03*
X113600000Y-54600000D03*
X113100000Y-54800000D03*
X112600000Y-55200000D03*
X112300000Y-55500000D03*
X112000000Y-56000000D03*
X111900000Y-56600000D03*
X111900000Y-57100000D03*
X111900000Y-57600000D03*
X111900000Y-58100000D03*
X111500000Y-58500000D03*
X110700000Y-60300000D03*
X111100000Y-60100000D03*
X111500000Y-59900000D03*
X112000000Y-59700000D03*
X112500000Y-59400000D03*
X112800000Y-58900000D03*
X113000000Y-58500000D03*
X113100000Y-57900000D03*
X113100000Y-57400000D03*
X113100000Y-56900000D03*
X113200000Y-56300000D03*
X113600000Y-55900000D03*
X114200000Y-55900000D03*
X114900000Y-55800000D03*
X115300000Y-55600000D03*
X116000000Y-55500000D03*
X116700000Y-55500000D03*
X117300000Y-55500000D03*
X117900000Y-55500000D03*
%TO.N,Net-(U1-DP)*%
X119100000Y-70600000D03*
X117000000Y-68700000D03*
%TO.N,Net-(U1-DN)*%
X117000000Y-68000000D03*
X119600000Y-70400000D03*
D21*
%TO.N,/PWMB*%
X148800000Y-58600000D03*
X146200000Y-66700000D03*
%TO.N,/PWMG*%
X135500000Y-70900000D03*
X126921488Y-52401000D03*
%TO.N,/PWMR*%
X127200000Y-53100000D03*
X130800000Y-50200000D03*
%TO.N,Net-(U101-UOTXD)*%
X126500000Y-45700000D03*
X129799071Y-56098199D03*
%TO.N,Net-(U101-UORXD)*%
X130000000Y-55300000D03*
X126600000Y-49100000D03*
%TO.N,Net-(U602-FB)*%
X123500000Y-73294098D03*
X127500000Y-77900000D03*
%TO.N,/ENW*%
X147700000Y-51200000D03*
X127830000Y-57743486D03*
%TO.N,/ENB*%
X122800000Y-59900000D03*
X146600000Y-68100000D03*
%TO.N,/ENG*%
X135600000Y-69300000D03*
X128100000Y-55050000D03*
%TO.N,/ENR*%
X129893934Y-54557535D03*
X133600000Y-50400000D03*
%TO.N,/GPIO9*%
X124600000Y-44000000D03*
X126300000Y-60600000D03*
%TO.N,/USB_D+*%
X113900000Y-68400000D03*
X109475741Y-68800000D03*
X129350000Y-61400000D03*
D20*
%TO.N,Net-(J1-CC2)*%
X121000000Y-70200000D03*
X115400000Y-70800000D03*
D21*
%TO.N,/USB_D-*%
X109400000Y-68000000D03*
X128450000Y-61400000D03*
X113900000Y-67600000D03*
D20*
%TO.N,Net-(J1-CC1)*%
X120400000Y-70100000D03*
X111400000Y-67200000D03*
D21*
%TO.N,/LedDriverGreen/LED-*%
X132449293Y-69550707D03*
X144400000Y-58700000D03*
%TO.N,/LedDriverRed/LED-*%
X132500000Y-52700000D03*
X128500000Y-50900000D03*
%TO.N,/LedDriverWhite/LED-*%
X142100000Y-53900000D03*
X142100000Y-50900000D03*
D20*
%TO.N,Net-(D1-A)*%
X114700000Y-66400000D03*
D21*
X113600000Y-70800000D03*
X113400000Y-66000000D03*
%TO.N,Net-(U602-BS)*%
X125800000Y-76472125D03*
X124673959Y-72750000D03*
%TO.N,/Vbus*%
X123350000Y-70050000D03*
X125700000Y-73000000D03*
D22*
X117750000Y-77850000D03*
D20*
X116300000Y-63600000D03*
X122500000Y-64100000D03*
D21*
%TO.N,/LedDriverWhite/LED+*%
X132400000Y-58700000D03*
X149000000Y-43850000D03*
%TO.N,/LedDriverBlue/LED+*%
X146727080Y-59734883D03*
X140100000Y-60900000D03*
%TO.N,/LedDriverGreen/LED+*%
X134600000Y-61300000D03*
X133800000Y-55900000D03*
D20*
%TO.N,+5V*%
X118000000Y-62301000D03*
D21*
X132705000Y-46305000D03*
X134600000Y-67100000D03*
X146600000Y-46700000D03*
X146100000Y-65300000D03*
X146000000Y-46700000D03*
X117600000Y-60300000D03*
X135200000Y-67100000D03*
X138600000Y-72500000D03*
%TO.N,/LedDriverRed/LED+*%
X135300000Y-53800000D03*
X135100000Y-43455000D03*
%TO.N,+3V3*%
X121400000Y-55400000D03*
X129000000Y-54300000D03*
X123210000Y-44800000D03*
X114800000Y-57000000D03*
X129342873Y-57800000D03*
X121046772Y-56756637D03*
X122600000Y-52800000D03*
X124400000Y-52800000D03*
X150600000Y-74600000D03*
%TO.N,/GPIO8*%
X125080000Y-60480000D03*
X120900000Y-42000000D03*
%TO.N,/ESP_CHIP_PU*%
X120900000Y-45700000D03*
X121560402Y-56210114D03*
D20*
%TO.N,GND*%
X121400000Y-64200000D03*
D21*
X127500000Y-64200000D03*
X129700000Y-63200000D03*
D20*
X110400000Y-57500000D03*
X116992654Y-69241593D03*
X109000000Y-61800000D03*
X120300000Y-71800000D03*
D21*
X130600000Y-58100000D03*
X124500000Y-78500000D03*
X117000000Y-80300000D03*
D20*
X119200000Y-64500000D03*
D21*
X138900000Y-46200000D03*
X143800000Y-76000000D03*
X123800000Y-63934300D03*
X140400000Y-69900000D03*
X117200000Y-79100000D03*
X132100000Y-75600000D03*
X149500000Y-41700000D03*
D20*
X126600000Y-69900000D03*
X116300000Y-62900000D03*
D21*
X118600000Y-55500000D03*
D20*
X121600000Y-65800000D03*
D21*
X136700000Y-54800000D03*
X130700000Y-43400000D03*
X119800000Y-53700000D03*
X145400000Y-70600000D03*
X137100000Y-76700000D03*
X125669669Y-65330331D03*
X140200000Y-57200000D03*
X144600000Y-70100000D03*
X133400000Y-56900000D03*
X118600000Y-56400000D03*
X126900000Y-79000000D03*
X121625003Y-70200000D03*
D20*
X123400000Y-71500000D03*
D21*
X142900000Y-65900000D03*
X140900000Y-47800000D03*
D20*
X126400000Y-68200000D03*
D21*
X132400000Y-56800000D03*
X150800000Y-45700000D03*
X113400000Y-42200000D03*
X138800000Y-49500000D03*
X118000000Y-47500000D03*
X140900000Y-56600000D03*
X132800000Y-40200000D03*
D20*
X107200000Y-61000000D03*
X115400000Y-74700000D03*
X130200000Y-74400000D03*
D21*
X143400000Y-80400000D03*
X124200000Y-49900000D03*
D20*
X123100000Y-66400000D03*
D21*
X118085873Y-72456878D03*
D20*
X130700000Y-75800000D03*
X128175840Y-58692654D03*
D21*
X142600000Y-54900000D03*
D20*
X118100000Y-51300000D03*
D21*
X136300000Y-57800000D03*
X151300000Y-63200000D03*
X130000000Y-48900000D03*
X150300000Y-49100000D03*
X135500000Y-42100000D03*
D20*
X115612467Y-58949508D03*
D21*
X135500000Y-41100000D03*
X139980331Y-65380331D03*
X140200000Y-55800000D03*
X123900000Y-61100000D03*
X131200000Y-76400000D03*
D20*
X115300000Y-73200000D03*
D21*
X145100000Y-67900000D03*
D20*
X117000000Y-64100000D03*
D21*
X140900000Y-50600000D03*
X123983591Y-45516409D03*
X122300000Y-77700000D03*
X144700000Y-44100000D03*
D20*
X131200000Y-75600000D03*
D21*
X123700000Y-78400000D03*
X126100000Y-61900000D03*
X150200000Y-59100000D03*
X131400000Y-56800000D03*
X124300000Y-77700000D03*
X150700000Y-44800000D03*
X112800000Y-43400000D03*
D20*
X107200000Y-58100000D03*
X107200000Y-59500000D03*
D21*
X144400000Y-80200000D03*
X147000000Y-40300000D03*
X143800000Y-71700000D03*
D20*
X127100000Y-69000000D03*
D21*
X112600000Y-39800000D03*
D20*
X109300000Y-57000000D03*
D21*
X113400000Y-80800000D03*
X137800000Y-57700000D03*
X144000000Y-49100000D03*
X139200000Y-55200000D03*
D20*
X115400000Y-73900000D03*
D21*
X137600000Y-54100000D03*
X121400000Y-77100000D03*
X118900000Y-53700000D03*
X140000000Y-48200000D03*
X119300000Y-56400000D03*
X139000000Y-80400000D03*
X150600000Y-62400000D03*
X117500000Y-73100000D03*
X150800000Y-64100000D03*
X144100000Y-50200000D03*
X138400000Y-50600000D03*
X135600000Y-49000000D03*
X131600000Y-55000000D03*
X120100000Y-56400000D03*
X138400000Y-56700000D03*
X118200000Y-48600000D03*
X141800000Y-63900000D03*
X127000000Y-80300000D03*
X119500000Y-55500000D03*
X139300000Y-54000000D03*
X135700000Y-77200000D03*
X116800000Y-57400000D03*
D20*
X118783393Y-57857475D03*
D21*
X140400000Y-54300000D03*
D20*
X107800000Y-57000000D03*
D21*
X145500000Y-76500000D03*
D20*
X107300000Y-57600000D03*
D21*
X135400000Y-79200000D03*
D20*
X109700000Y-61800000D03*
D21*
X136500000Y-53800000D03*
X112100000Y-45200000D03*
D20*
X129700000Y-70300000D03*
X130600000Y-71400000D03*
D21*
X135700000Y-54800000D03*
X141800000Y-55700000D03*
D20*
X107200000Y-58700000D03*
D21*
X121600000Y-61800000D03*
X139900000Y-50600000D03*
X144600000Y-71100000D03*
X121500000Y-53700000D03*
X142300000Y-80500000D03*
D20*
X113945266Y-63008018D03*
D21*
X139700000Y-49400000D03*
X149500000Y-60700000D03*
D20*
X108200000Y-61700000D03*
D21*
X148300000Y-40200000D03*
X137400000Y-43900000D03*
X119100000Y-76600000D03*
X132500000Y-55000000D03*
D20*
X124300000Y-50900000D03*
D21*
X151400000Y-69400000D03*
X130700000Y-45200000D03*
X117305630Y-69782587D03*
D20*
X108400000Y-57000000D03*
D21*
X139200000Y-57100000D03*
X137600000Y-55200000D03*
X130800000Y-48900000D03*
D20*
X117011122Y-70184635D03*
D21*
X136405000Y-48705000D03*
X140900000Y-49500000D03*
D20*
X110000000Y-57100000D03*
D21*
X112500000Y-41300000D03*
X135200000Y-75800000D03*
X139300000Y-50600000D03*
X118000000Y-52000000D03*
D20*
X127300000Y-70500000D03*
X110500000Y-58200000D03*
D21*
X120600000Y-53700000D03*
D20*
X113000000Y-74000000D03*
X117100000Y-62900000D03*
D21*
X144300000Y-77000000D03*
X143800000Y-70600000D03*
X133100000Y-48300000D03*
D20*
X110200000Y-61600000D03*
X122200000Y-65000000D03*
X110300000Y-61000000D03*
D21*
X144300000Y-42900000D03*
D20*
X110300000Y-60500000D03*
D21*
X149800000Y-81000000D03*
X138900000Y-47200000D03*
X129300000Y-79600000D03*
X138000000Y-63000000D03*
X124400000Y-47900000D03*
X127800000Y-45500000D03*
X143500000Y-67400000D03*
X151100000Y-57000000D03*
X134600000Y-77100000D03*
X138200000Y-48000000D03*
X123300000Y-77700000D03*
X134200000Y-79600000D03*
X136500000Y-56400000D03*
X137000000Y-57200000D03*
X138900000Y-69500000D03*
D20*
X118097154Y-59702172D03*
X111100000Y-58500000D03*
X107500000Y-61500000D03*
X117800000Y-50900000D03*
D21*
X133900000Y-40300000D03*
X120800000Y-66100000D03*
X140700000Y-69200000D03*
X122300000Y-62000000D03*
X121200000Y-76000000D03*
D20*
X115470201Y-71721779D03*
X115841182Y-64529532D03*
D21*
X150700000Y-70000000D03*
X139400000Y-66000000D03*
X129700000Y-80400000D03*
X145400000Y-71700000D03*
X149900000Y-67500000D03*
X118000000Y-76500000D03*
D20*
X113400000Y-72700000D03*
D21*
X117700000Y-56400000D03*
X141100000Y-55100000D03*
X138400000Y-55700000D03*
X113300000Y-46400000D03*
D20*
X122900000Y-71600000D03*
D21*
X118700000Y-46700000D03*
X149300000Y-42500000D03*
X117800000Y-81000000D03*
X135000000Y-40100000D03*
X136900000Y-55800000D03*
X139200000Y-56100000D03*
X151100000Y-80000000D03*
D20*
X107200000Y-60100000D03*
X118700000Y-57400000D03*
D21*
X138000000Y-62000000D03*
X138400000Y-54800000D03*
X147500000Y-69600000D03*
D20*
X115500000Y-72600000D03*
X113500000Y-71800000D03*
D21*
X140500000Y-53500000D03*
X120300000Y-76700000D03*
X141200000Y-54300000D03*
X137600000Y-56300000D03*
X120900000Y-53000000D03*
X126700000Y-64000000D03*
X146200000Y-71100000D03*
X115500000Y-61400000D03*
X121200000Y-75000000D03*
%TD*%
D23*
%TO.N,Net-(U1-DP)*%
X119100000Y-70600000D02*
X117200000Y-68700000D01*
X117200000Y-68700000D02*
X117000000Y-68700000D01*
%TO.N,Net-(U1-DN)*%
X119600000Y-70400000D02*
X117200000Y-68000000D01*
X117200000Y-68000000D02*
X117000000Y-68000000D01*
%TO.N,/PWMB*%
X148800000Y-64100000D02*
X146200000Y-66700000D01*
X148800000Y-58600000D02*
X148800000Y-64100000D01*
%TO.N,Net-(U101-UOTXD)*%
X127151000Y-46351000D02*
X126500000Y-45700000D01*
X129799071Y-56098199D02*
X129981033Y-56098199D01*
X130795934Y-55283298D02*
X130795934Y-54095934D01*
X130795934Y-54095934D02*
X127151000Y-50451000D01*
X129981033Y-56098199D02*
X130795934Y-55283298D01*
X127151000Y-50451000D02*
X127151000Y-46351000D01*
%TO.N,Net-(U101-UORXD)*%
X126600000Y-49100000D02*
X126600000Y-50484369D01*
X126600000Y-50484369D02*
X130444934Y-54329303D01*
X130444934Y-54855066D02*
X130000000Y-55300000D01*
X130444934Y-54329303D02*
X130444934Y-54855066D01*
%TO.N,Net-(U602-FB)*%
X123500000Y-74951357D02*
X126448643Y-77900000D01*
X126448643Y-77900000D02*
X127500000Y-77900000D01*
X123500000Y-73294098D02*
X123500000Y-74951357D01*
%TO.N,/ENW*%
X129486514Y-59400000D02*
X140400000Y-59400000D01*
X128343257Y-58256743D02*
X129486514Y-59400000D01*
X147700000Y-52100000D02*
X147700000Y-51200000D01*
X140400000Y-59400000D02*
X147700000Y-52100000D01*
X127830000Y-57743486D02*
X128343257Y-58256743D01*
%TO.N,/ENB*%
X145549000Y-67049000D02*
X146600000Y-68100000D01*
X147500000Y-62600000D02*
X145549000Y-64551000D01*
X143600000Y-56700000D02*
X146500000Y-56700000D01*
X140400000Y-59900000D02*
X143600000Y-56700000D01*
X146500000Y-56700000D02*
X147500000Y-57700000D01*
X145549000Y-64551000D02*
X145549000Y-67049000D01*
X147500000Y-57700000D02*
X147500000Y-62600000D01*
X122800000Y-59900000D02*
X140400000Y-59900000D01*
D24*
%TO.N,/USB_D+*%
X114631368Y-68317150D02*
X119631368Y-63317150D01*
X128031368Y-63317150D02*
X129217150Y-62131368D01*
X111648518Y-68800000D02*
X112131368Y-68317150D01*
X112131368Y-68317150D02*
X113817150Y-68317150D01*
X113982850Y-68317150D02*
X114631368Y-68317150D01*
X119631368Y-63317150D02*
X128031368Y-63317150D01*
X129217150Y-61532850D02*
X129350000Y-61400000D01*
X113900000Y-68400000D02*
X113982850Y-68317150D01*
X109475741Y-68800000D02*
X111648518Y-68800000D01*
X113817150Y-68317150D02*
X113900000Y-68400000D01*
X129217150Y-62131368D02*
X129217150Y-61532850D01*
D23*
%TO.N,Net-(J1-CC2)*%
X119700000Y-71500000D02*
X116100000Y-71500000D01*
X116100000Y-71500000D02*
X115400000Y-70800000D01*
X121000000Y-70200000D02*
X119700000Y-71500000D01*
D24*
%TO.N,/USB_D-*%
X116503296Y-65548186D02*
G75*
G03*
X116503277Y-65208795I-169696J169686D01*
G01*
X116927563Y-64784510D02*
G75*
G03*
X117266975Y-64784510I169706J169701D01*
G01*
X116410315Y-64606675D02*
G75*
G02*
X116749706Y-64606695I169685J-169725D01*
G01*
X116325462Y-65030939D02*
G75*
G02*
X116325429Y-64691494I169738J169739D01*
G01*
X128582850Y-61868632D02*
X128582850Y-61532850D01*
X119368632Y-62682850D02*
X127768632Y-62682850D01*
X114368632Y-67682850D02*
X116503296Y-65548186D01*
X128582850Y-61532850D02*
X128450000Y-61400000D01*
X117650761Y-64400721D02*
X119368632Y-62682850D01*
X127768632Y-62682850D02*
X128582850Y-61868632D01*
X117266975Y-64784510D02*
X117351826Y-64699657D01*
X111868632Y-67682850D02*
X113817150Y-67682850D01*
X111385782Y-68165700D02*
X111868632Y-67682850D01*
X109400000Y-68000000D02*
X109768600Y-68000000D01*
X116325462Y-64691527D02*
X116410315Y-64606675D01*
X113817150Y-67682850D02*
X113900000Y-67600000D01*
X116749727Y-64606674D02*
X116927563Y-64784510D01*
X113900000Y-67600000D02*
X113982850Y-67682850D01*
X113982850Y-67682850D02*
X114368632Y-67682850D01*
X109934300Y-68165700D02*
X111385782Y-68165700D01*
X116503297Y-65208774D02*
X116325462Y-65030939D01*
X117351826Y-64699657D02*
X117650761Y-64400721D01*
X109768600Y-68000000D02*
X109934300Y-68165700D01*
D23*
%TO.N,Net-(J1-CC1)*%
X109420768Y-67200000D02*
X111400000Y-67200000D01*
X109200000Y-69600000D02*
X108600000Y-69000000D01*
X115700000Y-69600000D02*
X109200000Y-69600000D01*
X117249000Y-71149000D02*
X115700000Y-69600000D01*
X119554612Y-71149000D02*
X117249000Y-71149000D01*
X108600000Y-69000000D02*
X108600000Y-68020768D01*
X108600000Y-68020768D02*
X109420768Y-67200000D01*
X120400000Y-70100000D02*
X120400000Y-70303612D01*
X120400000Y-70303612D02*
X119554612Y-71149000D01*
D25*
%TO.N,/LedDriverGreen/LED-*%
X135002000Y-67900000D02*
X133351293Y-69550707D01*
X133351293Y-69550707D02*
X132449293Y-69550707D01*
X144400000Y-58700000D02*
X144400000Y-59900000D01*
X136400000Y-67900000D02*
X135002000Y-67900000D01*
X144400000Y-59900000D02*
X136400000Y-67900000D01*
%TO.N,/LedDriverRed/LED-*%
X130300000Y-52700000D02*
X128500000Y-50900000D01*
X132500000Y-52700000D02*
X130300000Y-52700000D01*
%TO.N,/LedDriverWhite/LED-*%
X142100000Y-53900000D02*
X142100000Y-50900000D01*
D23*
%TO.N,Net-(D1-A)*%
X114000000Y-66000000D02*
X113400000Y-66000000D01*
X114400000Y-66400000D02*
X114000000Y-66000000D01*
D25*
X114200000Y-75100000D02*
X114200000Y-71400000D01*
X114200000Y-71400000D02*
X113600000Y-70800000D01*
D23*
X114700000Y-66400000D02*
X114400000Y-66400000D01*
D26*
%TO.N,Net-(U602-BS)*%
X124700000Y-72723959D02*
X124700000Y-75372125D01*
X124700000Y-75372125D02*
X125800000Y-76472125D01*
X124673959Y-72750000D02*
X124700000Y-72723959D01*
D27*
%TO.N,/Vbus*%
X115450000Y-77850000D02*
X114200000Y-79100000D01*
X123350000Y-70050000D02*
X125700000Y-72400000D01*
X117750000Y-77850000D02*
X115450000Y-77850000D01*
X125700000Y-72400000D02*
X125700000Y-73000000D01*
D25*
%TO.N,/LedDriverWhite/LED+*%
X140320768Y-58700000D02*
X146400000Y-52620768D01*
X146400000Y-52620768D02*
X146400000Y-51300000D01*
X146400000Y-51300000D02*
X148749000Y-48951000D01*
X132400000Y-58700000D02*
X140320768Y-58700000D01*
X148749000Y-48951000D02*
X148749000Y-48588925D01*
X148749000Y-48588925D02*
X149000000Y-48337925D01*
X149000000Y-48337925D02*
X149000000Y-43850000D01*
%TO.N,/LedDriverBlue/LED+*%
X140400000Y-60900000D02*
X144000000Y-57300000D01*
X144800000Y-57300000D02*
X146727080Y-59227080D01*
X140100000Y-60900000D02*
X140400000Y-60900000D01*
X144000000Y-57300000D02*
X144800000Y-57300000D01*
X146727080Y-59227080D02*
X146727080Y-59734883D01*
D23*
%TO.N,+5V*%
X117600000Y-60800000D02*
X117600000Y-60300000D01*
X117988909Y-61188909D02*
X117600000Y-60800000D01*
X117988909Y-62301000D02*
X117988909Y-61188909D01*
D25*
%TO.N,/LedDriverRed/LED+*%
X137156000Y-45511000D02*
X135100000Y-43455000D01*
X137156000Y-51944000D02*
X137156000Y-45511000D01*
X135300000Y-53800000D02*
X137156000Y-51944000D01*
%TO.N,+3V3*%
X123210000Y-44800000D02*
X123210000Y-46790000D01*
X123210000Y-46790000D02*
X120400000Y-49600000D01*
D27*
X120400000Y-50600000D02*
X122600000Y-52800000D01*
D25*
X122600000Y-54200000D02*
X121400000Y-55400000D01*
D27*
X122600000Y-52800000D02*
X124400000Y-52800000D01*
D25*
X125900000Y-54300000D02*
X125600000Y-54000000D01*
D27*
X120500000Y-57900000D02*
X120500000Y-57700000D01*
D23*
X129100000Y-57557127D02*
X129100000Y-55650000D01*
D26*
X120837172Y-56011515D02*
X120837172Y-56547037D01*
D25*
X122600000Y-52800000D02*
X122600000Y-54200000D01*
D27*
X114800000Y-57000000D02*
X115550000Y-57750000D01*
D23*
X129100000Y-55650000D02*
X129000000Y-55550000D01*
D27*
X116400000Y-58600000D02*
X119800000Y-58600000D01*
X119800000Y-58600000D02*
X120500000Y-57900000D01*
D26*
X120837172Y-56547037D02*
X121046772Y-56756637D01*
D23*
X129342873Y-57800000D02*
X129100000Y-57557127D01*
D25*
X129000000Y-54300000D02*
X125900000Y-54300000D01*
X120400000Y-49600000D02*
X119900000Y-50100000D01*
X120400000Y-49600000D02*
X120400000Y-50600000D01*
D26*
X121400000Y-55400000D02*
X121400000Y-55448687D01*
D27*
X120500000Y-57700000D02*
X120500000Y-57303408D01*
D23*
X129000000Y-55550000D02*
X129000000Y-54300000D01*
D27*
X119900000Y-50100000D02*
X120400000Y-50600000D01*
X120500000Y-57303408D02*
X120975100Y-56828308D01*
X115550000Y-57750000D02*
X116400000Y-58600000D01*
D26*
X121400000Y-55448687D02*
X120837172Y-56011515D01*
D27*
X125600000Y-54000000D02*
X124400000Y-52800000D01*
%TD*%
%TA.AperFunction,Conductor*%
%TO.N,GND*%
G36*
X151642539Y-39020185D02*
G01*
X151688294Y-39072989D01*
X151699500Y-39124500D01*
X151699500Y-81175500D01*
X151679815Y-81242539D01*
X151627011Y-81288294D01*
X151575500Y-81299500D01*
X105724500Y-81299500D01*
X105657461Y-81279815D01*
X105611706Y-81227011D01*
X105600500Y-81175500D01*
X105600500Y-80364822D01*
X113199499Y-80364822D01*
X113208231Y-80408717D01*
X113208232Y-80408721D01*
X113208233Y-80408722D01*
X113241496Y-80458504D01*
X113291278Y-80491767D01*
X113291281Y-80491767D01*
X113291282Y-80491768D01*
X113335177Y-80500500D01*
X113335180Y-80500500D01*
X115064822Y-80500500D01*
X115108717Y-80491768D01*
X115108717Y-80491767D01*
X115108722Y-80491767D01*
X115158504Y-80458504D01*
X115191767Y-80408722D01*
X115200500Y-80364820D01*
X115200500Y-78929387D01*
X115220185Y-78862348D01*
X115236819Y-78841706D01*
X115641706Y-78436819D01*
X115703029Y-78403334D01*
X115729387Y-78400500D01*
X117365399Y-78400500D01*
X117432438Y-78420185D01*
X117434252Y-78421373D01*
X117441873Y-78426465D01*
X117560256Y-78475501D01*
X117560260Y-78475501D01*
X117560261Y-78475502D01*
X117685928Y-78500500D01*
X117685931Y-78500500D01*
X117814071Y-78500500D01*
X117898615Y-78483682D01*
X117939744Y-78475501D01*
X118058127Y-78426465D01*
X118164669Y-78355276D01*
X118255276Y-78264669D01*
X118326465Y-78158127D01*
X118375501Y-78039744D01*
X118400500Y-77914069D01*
X118400500Y-77785931D01*
X118400500Y-77785928D01*
X118375502Y-77660261D01*
X118375501Y-77660260D01*
X118375501Y-77660256D01*
X118326465Y-77541873D01*
X118326464Y-77541872D01*
X118326461Y-77541866D01*
X118255276Y-77435331D01*
X118255273Y-77435327D01*
X118164672Y-77344726D01*
X118164668Y-77344723D01*
X118058133Y-77273538D01*
X118058124Y-77273533D01*
X117939744Y-77224499D01*
X117939738Y-77224497D01*
X117814071Y-77199500D01*
X117814069Y-77199500D01*
X117685931Y-77199500D01*
X117685929Y-77199500D01*
X117560261Y-77224497D01*
X117560255Y-77224499D01*
X117441876Y-77273533D01*
X117441873Y-77273534D01*
X117441873Y-77273535D01*
X117434287Y-77278603D01*
X117367611Y-77299480D01*
X117365399Y-77299500D01*
X115377525Y-77299500D01*
X115272517Y-77327637D01*
X115237514Y-77337016D01*
X115111986Y-77409489D01*
X115111983Y-77409491D01*
X114858294Y-77663181D01*
X114796971Y-77696666D01*
X114770613Y-77699500D01*
X113335178Y-77699500D01*
X113291282Y-77708231D01*
X113291275Y-77708234D01*
X113241496Y-77741495D01*
X113241495Y-77741496D01*
X113208234Y-77791275D01*
X113208231Y-77791282D01*
X113199500Y-77835177D01*
X113199500Y-77835180D01*
X113199500Y-80364820D01*
X113199500Y-80364822D01*
X113199499Y-80364822D01*
X105600500Y-80364822D01*
X105600500Y-75118475D01*
X107749500Y-75118475D01*
X107749500Y-76681517D01*
X107760147Y-76748737D01*
X107764354Y-76775304D01*
X107821950Y-76888342D01*
X107821952Y-76888344D01*
X107821954Y-76888347D01*
X107911652Y-76978045D01*
X107911654Y-76978046D01*
X107911658Y-76978050D01*
X108024694Y-77035645D01*
X108024698Y-77035647D01*
X108118475Y-77050499D01*
X108118481Y-77050500D01*
X108742873Y-77050499D01*
X108809910Y-77070183D01*
X108855665Y-77122987D01*
X108865609Y-77192146D01*
X108836584Y-77255702D01*
X108777806Y-77293476D01*
X108762270Y-77296972D01*
X108630589Y-77317829D01*
X108458363Y-77373787D01*
X108458360Y-77373788D01*
X108297002Y-77456006D01*
X108150505Y-77562441D01*
X108150500Y-77562445D01*
X108022445Y-77690500D01*
X108022441Y-77690505D01*
X107916006Y-77837002D01*
X107833788Y-77998360D01*
X107833787Y-77998363D01*
X107777829Y-78170589D01*
X107749500Y-78349448D01*
X107749500Y-78530551D01*
X107777829Y-78709410D01*
X107833787Y-78881636D01*
X107833788Y-78881639D01*
X107916006Y-79042997D01*
X108022441Y-79189494D01*
X108022445Y-79189499D01*
X108150500Y-79317554D01*
X108150505Y-79317558D01*
X108278287Y-79410396D01*
X108297006Y-79423996D01*
X108402484Y-79477740D01*
X108458360Y-79506211D01*
X108458363Y-79506212D01*
X108544476Y-79534191D01*
X108630591Y-79562171D01*
X108713429Y-79575291D01*
X108809449Y-79590500D01*
X108809454Y-79590500D01*
X108990551Y-79590500D01*
X109077259Y-79576765D01*
X109169409Y-79562171D01*
X109341639Y-79506211D01*
X109502994Y-79423996D01*
X109649501Y-79317553D01*
X109777553Y-79189501D01*
X109883996Y-79042994D01*
X109966211Y-78881639D01*
X110022171Y-78709409D01*
X110036765Y-78617259D01*
X110050500Y-78530551D01*
X110050500Y-78349448D01*
X110024741Y-78186819D01*
X110022171Y-78170591D01*
X109994191Y-78084476D01*
X109966212Y-77998363D01*
X109966209Y-77998355D01*
X109908646Y-77885384D01*
X109908645Y-77885383D01*
X109885874Y-77840693D01*
X109883996Y-77837006D01*
X109883994Y-77837003D01*
X109883993Y-77837001D01*
X109777558Y-77690505D01*
X109777554Y-77690500D01*
X109649499Y-77562445D01*
X109649494Y-77562441D01*
X109502997Y-77456006D01*
X109502996Y-77456005D01*
X109502994Y-77456004D01*
X109411704Y-77409489D01*
X109341639Y-77373788D01*
X109341636Y-77373787D01*
X109169410Y-77317829D01*
X109037728Y-77296972D01*
X108974594Y-77267042D01*
X108937663Y-77207731D01*
X108938661Y-77137868D01*
X108977271Y-77079636D01*
X109041235Y-77051522D01*
X109057120Y-77050499D01*
X109681518Y-77050499D01*
X109775304Y-77035646D01*
X109888342Y-76978050D01*
X109978050Y-76888342D01*
X110035646Y-76775304D01*
X110035646Y-76775302D01*
X110035647Y-76775301D01*
X110050499Y-76681524D01*
X110050500Y-76681519D01*
X110050499Y-75118482D01*
X110035646Y-75024696D01*
X109978050Y-74911658D01*
X109978046Y-74911654D01*
X109978045Y-74911652D01*
X109888347Y-74821954D01*
X109888344Y-74821952D01*
X109888342Y-74821950D01*
X109811517Y-74782805D01*
X109775301Y-74764352D01*
X109681524Y-74749500D01*
X108118482Y-74749500D01*
X108037519Y-74762323D01*
X108024696Y-74764354D01*
X107911658Y-74821950D01*
X107911657Y-74821951D01*
X107911652Y-74821954D01*
X107821954Y-74911652D01*
X107821951Y-74911657D01*
X107764352Y-75024698D01*
X107749500Y-75118475D01*
X105600500Y-75118475D01*
X105600500Y-71214234D01*
X110829500Y-71214234D01*
X110829500Y-71365765D01*
X110868719Y-71512136D01*
X110890744Y-71550284D01*
X110944485Y-71643365D01*
X111051635Y-71750515D01*
X111182865Y-71826281D01*
X111329234Y-71865500D01*
X111329236Y-71865500D01*
X111480764Y-71865500D01*
X111480766Y-71865500D01*
X111627135Y-71826281D01*
X111758365Y-71750515D01*
X111865515Y-71643365D01*
X111941281Y-71512135D01*
X111980500Y-71365766D01*
X111980500Y-71214234D01*
X111941281Y-71067865D01*
X111937007Y-71060463D01*
X111923934Y-71037819D01*
X111865515Y-70936635D01*
X111758365Y-70829485D01*
X111692750Y-70791602D01*
X111627136Y-70753719D01*
X111578515Y-70740691D01*
X113149500Y-70740691D01*
X113149500Y-70859309D01*
X113154727Y-70878815D01*
X113167236Y-70925500D01*
X113180201Y-70973888D01*
X113195198Y-70999862D01*
X113239511Y-71076614D01*
X113239513Y-71076616D01*
X113713181Y-71550284D01*
X113746666Y-71611607D01*
X113749500Y-71637965D01*
X113749500Y-73575500D01*
X113729815Y-73642539D01*
X113677011Y-73688294D01*
X113625500Y-73699500D01*
X113335178Y-73699500D01*
X113291282Y-73708231D01*
X113291275Y-73708234D01*
X113241496Y-73741495D01*
X113241495Y-73741496D01*
X113208234Y-73791275D01*
X113208231Y-73791282D01*
X113199500Y-73835177D01*
X113199500Y-73835180D01*
X113199500Y-76364820D01*
X113199500Y-76364822D01*
X113199499Y-76364822D01*
X113208231Y-76408717D01*
X113208234Y-76408724D01*
X113210970Y-76412818D01*
X113241496Y-76458504D01*
X113291278Y-76491767D01*
X113291281Y-76491767D01*
X113291282Y-76491768D01*
X113335177Y-76500500D01*
X113335180Y-76500500D01*
X115064822Y-76500500D01*
X115108717Y-76491768D01*
X115108717Y-76491767D01*
X115108722Y-76491767D01*
X115158504Y-76458504D01*
X115191767Y-76408722D01*
X115200500Y-76364820D01*
X115200500Y-73835180D01*
X115200500Y-73835177D01*
X115191768Y-73791282D01*
X115191767Y-73791281D01*
X115191767Y-73791278D01*
X115158504Y-73741496D01*
X115144385Y-73732062D01*
X115108724Y-73708234D01*
X115108717Y-73708231D01*
X115064822Y-73699500D01*
X115064820Y-73699500D01*
X114774500Y-73699500D01*
X114707461Y-73679815D01*
X114661706Y-73627011D01*
X114650500Y-73575500D01*
X114650500Y-71340693D01*
X114650500Y-71340691D01*
X114619799Y-71226114D01*
X114619799Y-71226113D01*
X114560489Y-71123386D01*
X113876614Y-70439511D01*
X113825250Y-70409856D01*
X113773888Y-70380201D01*
X113761780Y-70376957D01*
X113749673Y-70373713D01*
X113749670Y-70373712D01*
X113711478Y-70363478D01*
X113659309Y-70349500D01*
X113540691Y-70349500D01*
X113450325Y-70373713D01*
X113450324Y-70373712D01*
X113426116Y-70380199D01*
X113426113Y-70380200D01*
X113323386Y-70439511D01*
X113323383Y-70439513D01*
X113239513Y-70523383D01*
X113239509Y-70523389D01*
X113180200Y-70626114D01*
X113180199Y-70626114D01*
X113176622Y-70639468D01*
X113176610Y-70639512D01*
X113176357Y-70640460D01*
X113149500Y-70740691D01*
X111578515Y-70740691D01*
X111553950Y-70734109D01*
X111480766Y-70714500D01*
X111329234Y-70714500D01*
X111182863Y-70753719D01*
X111051635Y-70829485D01*
X111051632Y-70829487D01*
X110944487Y-70936632D01*
X110944485Y-70936635D01*
X110868719Y-71067863D01*
X110829500Y-71214234D01*
X105600500Y-71214234D01*
X105600500Y-67970938D01*
X108349500Y-67970938D01*
X108349500Y-69049829D01*
X108383084Y-69130908D01*
X108387636Y-69141897D01*
X108987636Y-69741897D01*
X109058103Y-69812364D01*
X109150172Y-69850500D01*
X115544877Y-69850500D01*
X115611916Y-69870185D01*
X115632558Y-69886819D01*
X116285275Y-70539536D01*
X116783559Y-71037819D01*
X116817044Y-71099142D01*
X116812060Y-71168834D01*
X116770188Y-71224767D01*
X116704724Y-71249184D01*
X116695878Y-71249500D01*
X116255123Y-71249500D01*
X116188084Y-71229815D01*
X116167442Y-71213181D01*
X115754152Y-70799891D01*
X115722058Y-70744303D01*
X115721102Y-70740735D01*
X115703318Y-70674362D01*
X115701253Y-70670786D01*
X115660469Y-70600144D01*
X115660463Y-70600136D01*
X115599863Y-70539536D01*
X115599855Y-70539530D01*
X115525644Y-70496685D01*
X115525640Y-70496683D01*
X115525638Y-70496682D01*
X115442853Y-70474500D01*
X115357147Y-70474500D01*
X115274362Y-70496682D01*
X115274355Y-70496685D01*
X115200144Y-70539530D01*
X115200136Y-70539536D01*
X115139536Y-70600136D01*
X115139530Y-70600144D01*
X115096685Y-70674355D01*
X115096682Y-70674362D01*
X115074500Y-70757147D01*
X115074500Y-70842853D01*
X115089411Y-70898500D01*
X115096682Y-70925637D01*
X115096685Y-70925644D01*
X115139530Y-70999855D01*
X115139534Y-70999860D01*
X115139535Y-70999862D01*
X115200138Y-71060465D01*
X115200140Y-71060466D01*
X115200144Y-71060469D01*
X115267129Y-71099142D01*
X115274362Y-71103318D01*
X115344304Y-71122058D01*
X115399891Y-71154152D01*
X115958103Y-71712364D01*
X116050172Y-71750500D01*
X116050174Y-71750500D01*
X119749826Y-71750500D01*
X119749828Y-71750500D01*
X119841897Y-71712364D01*
X121000109Y-70554150D01*
X121055693Y-70522059D01*
X121125638Y-70503318D01*
X121199862Y-70460465D01*
X121260465Y-70399862D01*
X121303318Y-70325638D01*
X121325500Y-70242853D01*
X121325500Y-70157147D01*
X121303318Y-70074362D01*
X121260465Y-70000138D01*
X121237853Y-69977526D01*
X122799500Y-69977526D01*
X122799500Y-70122474D01*
X122837016Y-70262485D01*
X122904977Y-70380199D01*
X122909489Y-70388013D01*
X122909491Y-70388016D01*
X124625505Y-72104030D01*
X124658990Y-72165353D01*
X124654006Y-72235045D01*
X124612134Y-72290978D01*
X124569920Y-72311485D01*
X124500073Y-72330201D01*
X124500072Y-72330201D01*
X124500070Y-72330202D01*
X124397346Y-72389511D01*
X124397343Y-72389513D01*
X124313472Y-72473384D01*
X124313470Y-72473387D01*
X124254160Y-72576114D01*
X124223459Y-72690691D01*
X124223459Y-72809309D01*
X124254160Y-72923886D01*
X124313470Y-73026613D01*
X124313473Y-73026616D01*
X124318417Y-73033059D01*
X124317318Y-73033901D01*
X124346666Y-73087647D01*
X124349500Y-73114005D01*
X124349500Y-75147234D01*
X124329815Y-75214273D01*
X124277011Y-75260028D01*
X124207853Y-75269972D01*
X124144297Y-75240947D01*
X124137819Y-75234915D01*
X123786819Y-74883915D01*
X123753334Y-74822592D01*
X123750500Y-74796234D01*
X123750500Y-73732062D01*
X123770185Y-73665023D01*
X123786819Y-73644381D01*
X123804189Y-73627011D01*
X123860489Y-73570711D01*
X123919799Y-73467984D01*
X123950500Y-73353407D01*
X123950500Y-73234789D01*
X123919799Y-73120212D01*
X123860489Y-73017485D01*
X123776613Y-72933609D01*
X123673886Y-72874299D01*
X123559309Y-72843598D01*
X123440691Y-72843598D01*
X123326114Y-72874299D01*
X123326112Y-72874299D01*
X123326112Y-72874300D01*
X123223387Y-72933609D01*
X123223384Y-72933611D01*
X123139513Y-73017482D01*
X123139511Y-73017485D01*
X123099003Y-73087647D01*
X123080201Y-73120212D01*
X123049500Y-73234789D01*
X123049500Y-73353407D01*
X123080201Y-73467984D01*
X123139511Y-73570711D01*
X123139513Y-73570713D01*
X123213181Y-73644381D01*
X123246666Y-73705704D01*
X123249500Y-73732062D01*
X123249500Y-75001186D01*
X123287636Y-75093254D01*
X126229208Y-78034825D01*
X126229211Y-78034829D01*
X126236279Y-78041897D01*
X126306746Y-78112364D01*
X126398815Y-78150500D01*
X127062036Y-78150500D01*
X127129075Y-78170185D01*
X127149717Y-78186819D01*
X127223387Y-78260489D01*
X127326114Y-78319799D01*
X127440691Y-78350500D01*
X127440694Y-78350500D01*
X127559306Y-78350500D01*
X127559309Y-78350500D01*
X127673886Y-78319799D01*
X127776613Y-78260489D01*
X127860489Y-78176613D01*
X127919799Y-78073886D01*
X127950500Y-77959309D01*
X127950500Y-77840691D01*
X127919799Y-77726114D01*
X127860489Y-77623387D01*
X127776613Y-77539511D01*
X127673886Y-77480201D01*
X127559309Y-77449500D01*
X127440691Y-77449500D01*
X127326114Y-77480201D01*
X127326112Y-77480201D01*
X127326112Y-77480202D01*
X127223387Y-77539511D01*
X127223384Y-77539513D01*
X127149717Y-77613181D01*
X127088394Y-77646666D01*
X127062036Y-77649500D01*
X126603765Y-77649500D01*
X126536726Y-77629815D01*
X126516084Y-77613181D01*
X125974635Y-77071732D01*
X125941150Y-77010409D01*
X125946134Y-76940717D01*
X125988006Y-76884784D01*
X126000309Y-76876667D01*
X126076613Y-76832614D01*
X126160489Y-76748738D01*
X126219799Y-76646011D01*
X126250500Y-76531434D01*
X126250500Y-76412816D01*
X126219799Y-76298239D01*
X126160489Y-76195512D01*
X126076613Y-76111636D01*
X125973886Y-76052326D01*
X125872102Y-76025052D01*
X125816517Y-75992960D01*
X125086819Y-75263262D01*
X125053334Y-75201939D01*
X125050500Y-75175581D01*
X125050500Y-74540691D01*
X150149500Y-74540691D01*
X150149500Y-74659309D01*
X150180201Y-74773886D01*
X150239511Y-74876613D01*
X150323387Y-74960489D01*
X150426114Y-75019799D01*
X150540691Y-75050500D01*
X150540694Y-75050500D01*
X150659306Y-75050500D01*
X150659309Y-75050500D01*
X150773886Y-75019799D01*
X150876613Y-74960489D01*
X150960489Y-74876613D01*
X151019799Y-74773886D01*
X151050500Y-74659309D01*
X151050500Y-74540691D01*
X151019799Y-74426114D01*
X150960489Y-74323387D01*
X150876613Y-74239511D01*
X150773886Y-74180201D01*
X150659309Y-74149500D01*
X150540691Y-74149500D01*
X150426114Y-74180201D01*
X150426112Y-74180201D01*
X150426112Y-74180202D01*
X150323387Y-74239511D01*
X150323384Y-74239513D01*
X150239513Y-74323384D01*
X150239511Y-74323387D01*
X150180201Y-74426114D01*
X150149500Y-74540691D01*
X125050500Y-74540691D01*
X125050500Y-73428386D01*
X125070185Y-73361347D01*
X125122989Y-73315592D01*
X125192147Y-73305648D01*
X125255703Y-73334673D01*
X125262181Y-73340705D01*
X125361985Y-73440509D01*
X125361986Y-73440510D01*
X125361988Y-73440511D01*
X125487511Y-73512982D01*
X125487512Y-73512982D01*
X125487515Y-73512984D01*
X125627525Y-73550500D01*
X125627528Y-73550500D01*
X125772472Y-73550500D01*
X125772475Y-73550500D01*
X125912485Y-73512984D01*
X126038015Y-73440509D01*
X126140509Y-73338015D01*
X126212984Y-73212485D01*
X126250500Y-73072475D01*
X126250500Y-72440691D01*
X138149500Y-72440691D01*
X138149500Y-72559309D01*
X138180201Y-72673886D01*
X138239511Y-72776613D01*
X138323387Y-72860489D01*
X138426114Y-72919799D01*
X138540691Y-72950500D01*
X138540694Y-72950500D01*
X138659306Y-72950500D01*
X138659309Y-72950500D01*
X138773886Y-72919799D01*
X138876613Y-72860489D01*
X138960489Y-72776613D01*
X139019799Y-72673886D01*
X139050500Y-72559309D01*
X139050500Y-72440691D01*
X139019799Y-72326114D01*
X138960489Y-72223387D01*
X138876613Y-72139511D01*
X138773886Y-72080201D01*
X138659309Y-72049500D01*
X138540691Y-72049500D01*
X138426114Y-72080201D01*
X138426112Y-72080201D01*
X138426112Y-72080202D01*
X138323387Y-72139511D01*
X138323384Y-72139513D01*
X138239513Y-72223384D01*
X138239511Y-72223387D01*
X138188647Y-72311486D01*
X138180201Y-72326114D01*
X138149500Y-72440691D01*
X126250500Y-72440691D01*
X126250500Y-72327525D01*
X126212984Y-72187515D01*
X126185269Y-72139511D01*
X126140510Y-72061985D01*
X124919216Y-70840691D01*
X135049500Y-70840691D01*
X135049500Y-70959309D01*
X135080201Y-71073886D01*
X135139511Y-71176613D01*
X135223387Y-71260489D01*
X135326114Y-71319799D01*
X135440691Y-71350500D01*
X135440694Y-71350500D01*
X135559306Y-71350500D01*
X135559309Y-71350500D01*
X135673886Y-71319799D01*
X135776613Y-71260489D01*
X135860489Y-71176613D01*
X135919799Y-71073886D01*
X135950500Y-70959309D01*
X135950500Y-70840691D01*
X135919799Y-70726114D01*
X135860489Y-70623387D01*
X135776613Y-70539511D01*
X135673886Y-70480201D01*
X135559309Y-70449500D01*
X135440691Y-70449500D01*
X135326114Y-70480201D01*
X135326112Y-70480201D01*
X135326112Y-70480202D01*
X135223387Y-70539511D01*
X135223384Y-70539513D01*
X135139513Y-70623384D01*
X135139511Y-70623387D01*
X135080201Y-70726114D01*
X135049500Y-70840691D01*
X124919216Y-70840691D01*
X123688015Y-69609490D01*
X123655397Y-69590658D01*
X123655395Y-69590656D01*
X123562491Y-69537019D01*
X123562486Y-69537016D01*
X123527482Y-69527637D01*
X123422474Y-69499500D01*
X123277526Y-69499500D01*
X123172517Y-69527637D01*
X123137514Y-69537016D01*
X123011986Y-69609489D01*
X123011983Y-69609491D01*
X122909491Y-69711983D01*
X122909489Y-69711986D01*
X122837016Y-69837514D01*
X122828262Y-69870185D01*
X122799500Y-69977526D01*
X121237853Y-69977526D01*
X121199862Y-69939535D01*
X121199860Y-69939534D01*
X121199855Y-69939530D01*
X121125644Y-69896685D01*
X121125640Y-69896683D01*
X121125638Y-69896682D01*
X121042853Y-69874500D01*
X120957147Y-69874500D01*
X120874362Y-69896682D01*
X120874357Y-69896684D01*
X120818468Y-69928951D01*
X120750568Y-69945422D01*
X120684541Y-69922569D01*
X120666722Y-69905374D01*
X120666212Y-69905885D01*
X120599863Y-69839536D01*
X120599855Y-69839530D01*
X120525644Y-69796685D01*
X120525640Y-69796683D01*
X120525638Y-69796682D01*
X120442853Y-69774500D01*
X120357147Y-69774500D01*
X120274362Y-69796682D01*
X120274355Y-69796685D01*
X120200144Y-69839530D01*
X120200136Y-69839536D01*
X120139536Y-69900136D01*
X120139530Y-69900144D01*
X120096685Y-69974355D01*
X120096682Y-69974362D01*
X120074500Y-70057147D01*
X120074500Y-70114811D01*
X120054815Y-70181850D01*
X120002011Y-70227605D01*
X119932853Y-70237549D01*
X119869297Y-70208524D01*
X119862819Y-70202492D01*
X119799863Y-70139536D01*
X119799855Y-70139530D01*
X119725644Y-70096685D01*
X119725639Y-70096682D01*
X119692132Y-70087704D01*
X119655693Y-70077940D01*
X119600107Y-70045847D01*
X119045658Y-69491398D01*
X131998793Y-69491398D01*
X131998793Y-69610016D01*
X132029494Y-69724593D01*
X132088804Y-69827320D01*
X132172680Y-69911196D01*
X132275407Y-69970506D01*
X132389984Y-70001207D01*
X132389987Y-70001207D01*
X133410601Y-70001207D01*
X133410602Y-70001207D01*
X133481873Y-69982108D01*
X133500959Y-69976995D01*
X133500960Y-69976994D01*
X133500966Y-69976993D01*
X133525180Y-69970506D01*
X133627907Y-69911196D01*
X134298412Y-69240691D01*
X135149500Y-69240691D01*
X135149500Y-69359309D01*
X135180201Y-69473886D01*
X135239511Y-69576613D01*
X135323387Y-69660489D01*
X135426114Y-69719799D01*
X135540691Y-69750500D01*
X135540694Y-69750500D01*
X135659306Y-69750500D01*
X135659309Y-69750500D01*
X135773886Y-69719799D01*
X135876613Y-69660489D01*
X135960489Y-69576613D01*
X136019799Y-69473886D01*
X136050500Y-69359309D01*
X136050500Y-69240691D01*
X136019799Y-69126114D01*
X135960489Y-69023387D01*
X135876613Y-68939511D01*
X135773886Y-68880201D01*
X135659309Y-68849500D01*
X135540691Y-68849500D01*
X135426114Y-68880201D01*
X135426112Y-68880201D01*
X135426112Y-68880202D01*
X135323387Y-68939511D01*
X135323384Y-68939513D01*
X135239513Y-69023384D01*
X135239511Y-69023387D01*
X135195159Y-69100207D01*
X135180201Y-69126114D01*
X135149500Y-69240691D01*
X134298412Y-69240691D01*
X135152284Y-68386819D01*
X135213607Y-68353334D01*
X135239965Y-68350500D01*
X136459307Y-68350500D01*
X136459309Y-68350500D01*
X136552610Y-68325500D01*
X136573887Y-68319799D01*
X136676614Y-68260489D01*
X144760489Y-60176614D01*
X144771052Y-60158318D01*
X144794731Y-60117306D01*
X144819797Y-60073889D01*
X144819799Y-60073886D01*
X144850500Y-59959309D01*
X144850500Y-58640691D01*
X144819799Y-58526114D01*
X144760489Y-58423387D01*
X144676613Y-58339511D01*
X144573886Y-58280201D01*
X144459309Y-58249500D01*
X144340691Y-58249500D01*
X144226114Y-58280201D01*
X144226112Y-58280201D01*
X144226112Y-58280202D01*
X144123387Y-58339511D01*
X144123384Y-58339513D01*
X144039513Y-58423384D01*
X144039511Y-58423387D01*
X143980201Y-58526114D01*
X143949500Y-58640691D01*
X143949500Y-58640693D01*
X143949500Y-59662035D01*
X143929815Y-59729074D01*
X143913181Y-59749716D01*
X136249716Y-67413181D01*
X136188393Y-67446666D01*
X136162035Y-67449500D01*
X135732637Y-67449500D01*
X135665598Y-67429815D01*
X135619843Y-67377011D01*
X135609899Y-67307853D01*
X135618073Y-67278055D01*
X135619796Y-67273893D01*
X135619798Y-67273887D01*
X135619799Y-67273886D01*
X135650500Y-67159309D01*
X135650500Y-67040691D01*
X135619799Y-66926114D01*
X135560489Y-66823387D01*
X135476613Y-66739511D01*
X135373886Y-66680201D01*
X135259309Y-66649500D01*
X135140691Y-66649500D01*
X135035505Y-66677684D01*
X135026110Y-66680202D01*
X134962000Y-66717217D01*
X134894100Y-66733690D01*
X134838000Y-66717217D01*
X134773889Y-66680202D01*
X134773890Y-66680202D01*
X134764494Y-66677684D01*
X134659309Y-66649500D01*
X134540691Y-66649500D01*
X134426114Y-66680201D01*
X134426112Y-66680201D01*
X134426112Y-66680202D01*
X134323387Y-66739511D01*
X134323384Y-66739513D01*
X134239513Y-66823384D01*
X134239511Y-66823387D01*
X134210355Y-66873887D01*
X134180201Y-66926114D01*
X134149500Y-67040691D01*
X134149500Y-67159309D01*
X134180201Y-67273886D01*
X134239511Y-67376613D01*
X134323387Y-67460489D01*
X134426114Y-67519799D01*
X134470233Y-67531620D01*
X134529893Y-67567985D01*
X134560422Y-67630832D01*
X134552127Y-67700208D01*
X134525820Y-67739076D01*
X133201009Y-69063888D01*
X133139686Y-69097373D01*
X133113328Y-69100207D01*
X132508602Y-69100207D01*
X132389984Y-69100207D01*
X132275407Y-69130908D01*
X132275405Y-69130908D01*
X132275405Y-69130909D01*
X132172680Y-69190218D01*
X132172677Y-69190220D01*
X132088806Y-69274091D01*
X132088804Y-69274094D01*
X132029494Y-69376821D01*
X131998793Y-69491398D01*
X119045658Y-69491398D01*
X117341897Y-67787636D01*
X117249829Y-67749500D01*
X117237851Y-67747118D01*
X117238033Y-67746200D01*
X117188349Y-67732888D01*
X117125638Y-67696682D01*
X117081700Y-67684909D01*
X117042853Y-67674500D01*
X116957147Y-67674500D01*
X116874362Y-67696682D01*
X116874355Y-67696685D01*
X116800144Y-67739530D01*
X116800136Y-67739536D01*
X116739536Y-67800136D01*
X116739530Y-67800144D01*
X116696685Y-67874355D01*
X116696682Y-67874362D01*
X116674500Y-67957147D01*
X116674500Y-68042853D01*
X116678910Y-68059309D01*
X116696682Y-68125637D01*
X116696685Y-68125644D01*
X116739530Y-68199855D01*
X116739536Y-68199863D01*
X116801992Y-68262319D01*
X116835477Y-68323642D01*
X116830493Y-68393334D01*
X116801992Y-68437681D01*
X116739536Y-68500136D01*
X116739530Y-68500144D01*
X116696685Y-68574355D01*
X116696682Y-68574362D01*
X116674500Y-68657147D01*
X116674500Y-68742853D01*
X116695118Y-68819799D01*
X116696682Y-68825637D01*
X116696685Y-68825644D01*
X116739530Y-68899855D01*
X116739534Y-68899860D01*
X116739535Y-68899862D01*
X116800138Y-68960465D01*
X116800140Y-68960466D01*
X116800144Y-68960469D01*
X116859515Y-68994746D01*
X116874362Y-69003318D01*
X116957147Y-69025500D01*
X116957149Y-69025500D01*
X117042851Y-69025500D01*
X117042853Y-69025500D01*
X117074956Y-69016898D01*
X117144804Y-69018559D01*
X117194730Y-69048991D01*
X118745847Y-70600107D01*
X118753634Y-70613379D01*
X118763134Y-70621776D01*
X118776430Y-70652234D01*
X118777480Y-70654023D01*
X118777723Y-70654884D01*
X118796682Y-70725638D01*
X118798770Y-70729254D01*
X118802019Y-70740735D01*
X118801744Y-70768700D01*
X118804735Y-70796516D01*
X118801405Y-70803166D01*
X118801333Y-70810601D01*
X118785980Y-70833983D01*
X118773460Y-70858995D01*
X118767066Y-70862788D01*
X118762984Y-70869006D01*
X118737425Y-70880376D01*
X118713372Y-70894648D01*
X118702184Y-70896053D01*
X118699146Y-70897405D01*
X118695674Y-70896870D01*
X118682705Y-70898500D01*
X117404122Y-70898500D01*
X117337083Y-70878815D01*
X117316441Y-70862181D01*
X116597113Y-70142853D01*
X115841897Y-69387636D01*
X115815787Y-69376821D01*
X115749829Y-69349500D01*
X115749828Y-69349500D01*
X111766934Y-69349500D01*
X111699895Y-69329815D01*
X111654140Y-69277011D01*
X111644196Y-69207853D01*
X111673221Y-69144297D01*
X111731999Y-69106523D01*
X111734821Y-69105730D01*
X111771127Y-69096003D01*
X111843560Y-69054183D01*
X112226624Y-68671119D01*
X112287947Y-68637634D01*
X112314305Y-68634800D01*
X113446336Y-68634800D01*
X113513375Y-68654485D01*
X113534017Y-68671119D01*
X113539511Y-68676613D01*
X113623387Y-68760489D01*
X113726114Y-68819799D01*
X113840691Y-68850500D01*
X113840694Y-68850500D01*
X113959306Y-68850500D01*
X113959309Y-68850500D01*
X114073886Y-68819799D01*
X114176613Y-68760489D01*
X114260489Y-68676613D01*
X114260489Y-68676612D01*
X114265983Y-68671119D01*
X114327306Y-68637634D01*
X114353664Y-68634800D01*
X114673184Y-68634800D01*
X114673187Y-68634800D01*
X114753977Y-68613153D01*
X114826410Y-68571333D01*
X119726624Y-63671119D01*
X119787947Y-63637634D01*
X119814305Y-63634800D01*
X122205511Y-63634800D01*
X122272550Y-63654485D01*
X122318305Y-63707289D01*
X122328249Y-63776447D01*
X122299224Y-63840003D01*
X122293192Y-63846481D01*
X122239536Y-63900136D01*
X122239530Y-63900144D01*
X122196685Y-63974355D01*
X122196682Y-63974362D01*
X122174500Y-64057147D01*
X122174500Y-64142853D01*
X122176369Y-64149826D01*
X122196682Y-64225637D01*
X122196685Y-64225644D01*
X122239530Y-64299855D01*
X122239534Y-64299860D01*
X122239535Y-64299862D01*
X122300138Y-64360465D01*
X122300140Y-64360466D01*
X122300144Y-64360469D01*
X122337493Y-64382032D01*
X122374362Y-64403318D01*
X122457147Y-64425500D01*
X122457149Y-64425500D01*
X122542851Y-64425500D01*
X122542853Y-64425500D01*
X122625638Y-64403318D01*
X122699862Y-64360465D01*
X122760465Y-64299862D01*
X122803318Y-64225638D01*
X122825500Y-64142853D01*
X122825500Y-64057147D01*
X122803318Y-63974362D01*
X122803314Y-63974355D01*
X122760469Y-63900144D01*
X122760463Y-63900136D01*
X122706808Y-63846481D01*
X122673323Y-63785158D01*
X122678307Y-63715466D01*
X122720179Y-63659533D01*
X122785643Y-63635116D01*
X122794489Y-63634800D01*
X128073184Y-63634800D01*
X128073187Y-63634800D01*
X128153977Y-63613153D01*
X128226410Y-63571333D01*
X129471333Y-62326410D01*
X129513153Y-62253977D01*
X129534800Y-62173187D01*
X129534800Y-62089549D01*
X129534800Y-61885088D01*
X129554485Y-61818049D01*
X129596801Y-61777700D01*
X129626613Y-61760489D01*
X129710489Y-61676613D01*
X129769799Y-61573886D01*
X129800500Y-61459309D01*
X129800500Y-61340691D01*
X129773705Y-61240691D01*
X134149500Y-61240691D01*
X134149500Y-61359309D01*
X134180201Y-61473886D01*
X134239511Y-61576613D01*
X134323387Y-61660489D01*
X134426114Y-61719799D01*
X134540691Y-61750500D01*
X134540694Y-61750500D01*
X134659306Y-61750500D01*
X134659309Y-61750500D01*
X134773886Y-61719799D01*
X134876613Y-61660489D01*
X134960489Y-61576613D01*
X135019799Y-61473886D01*
X135050500Y-61359309D01*
X135050500Y-61240691D01*
X135019799Y-61126114D01*
X134960489Y-61023387D01*
X134876613Y-60939511D01*
X134773886Y-60880201D01*
X134659309Y-60849500D01*
X134540691Y-60849500D01*
X134426114Y-60880201D01*
X134426112Y-60880201D01*
X134426112Y-60880202D01*
X134323387Y-60939511D01*
X134323384Y-60939513D01*
X134239513Y-61023384D01*
X134239511Y-61023387D01*
X134210355Y-61073887D01*
X134180201Y-61126114D01*
X134149500Y-61240691D01*
X129773705Y-61240691D01*
X129769799Y-61226114D01*
X129710489Y-61123387D01*
X129626613Y-61039511D01*
X129523886Y-60980201D01*
X129409309Y-60949500D01*
X129290691Y-60949500D01*
X129176114Y-60980201D01*
X129176112Y-60980201D01*
X129176112Y-60980202D01*
X129073387Y-61039511D01*
X129073384Y-61039513D01*
X128987681Y-61125217D01*
X128926358Y-61158702D01*
X128856666Y-61153718D01*
X128812319Y-61125217D01*
X128726615Y-61039513D01*
X128726613Y-61039511D01*
X128623886Y-60980201D01*
X128509309Y-60949500D01*
X128390691Y-60949500D01*
X128276114Y-60980201D01*
X128276112Y-60980201D01*
X128276112Y-60980202D01*
X128173387Y-61039511D01*
X128173384Y-61039513D01*
X128089513Y-61123384D01*
X128089511Y-61123387D01*
X128058780Y-61176615D01*
X128030201Y-61226114D01*
X127999500Y-61340691D01*
X127999500Y-61459309D01*
X128030201Y-61573886D01*
X128089511Y-61676613D01*
X128089513Y-61676615D01*
X128119896Y-61706998D01*
X128153381Y-61768321D01*
X128148397Y-61838013D01*
X128119896Y-61882360D01*
X127673376Y-62328881D01*
X127612053Y-62362366D01*
X127585695Y-62365200D01*
X119326813Y-62365200D01*
X119246024Y-62386847D01*
X119246023Y-62386847D01*
X119246021Y-62386848D01*
X119246018Y-62386849D01*
X119193818Y-62416988D01*
X119193817Y-62416989D01*
X119187807Y-62420458D01*
X119173590Y-62428666D01*
X119173588Y-62428668D01*
X118305575Y-63296682D01*
X117455719Y-64146538D01*
X117249822Y-64352434D01*
X117184948Y-64417308D01*
X117177002Y-64421646D01*
X117171579Y-64428892D01*
X117146819Y-64438127D01*
X117123625Y-64450792D01*
X117114596Y-64450146D01*
X117106115Y-64453310D01*
X117080293Y-64447693D01*
X117053933Y-64445808D01*
X117044880Y-64439989D01*
X117037842Y-64438459D01*
X117009587Y-64417308D01*
X116974340Y-64382062D01*
X116939155Y-64346877D01*
X116938822Y-64346585D01*
X116929894Y-64337657D01*
X116929891Y-64337655D01*
X116929889Y-64337653D01*
X116823503Y-64270805D01*
X116823500Y-64270803D01*
X116823496Y-64270801D01*
X116823495Y-64270801D01*
X116704898Y-64229297D01*
X116580034Y-64215222D01*
X116455168Y-64229281D01*
X116455167Y-64229282D01*
X116336566Y-64270770D01*
X116336563Y-64270771D01*
X116230159Y-64337614D01*
X116220086Y-64347685D01*
X116215286Y-64352484D01*
X116215275Y-64352491D01*
X116188854Y-64378911D01*
X116185729Y-64382036D01*
X116164446Y-64403314D01*
X116144074Y-64423680D01*
X116144015Y-64423748D01*
X116142913Y-64424850D01*
X116142798Y-64424949D01*
X116137147Y-64430602D01*
X116137008Y-64430677D01*
X116056355Y-64511357D01*
X116056355Y-64511358D01*
X115989516Y-64617771D01*
X115989513Y-64617777D01*
X115948032Y-64736377D01*
X115948031Y-64736385D01*
X115933975Y-64861254D01*
X115948054Y-64986122D01*
X115989563Y-65104727D01*
X116022181Y-65156635D01*
X116056422Y-65211125D01*
X116071279Y-65225981D01*
X116071282Y-65225984D01*
X116100851Y-65255553D01*
X116136096Y-65290799D01*
X116169581Y-65352123D01*
X116164595Y-65421814D01*
X116136095Y-65466160D01*
X115223776Y-66378479D01*
X115162453Y-66411964D01*
X115092761Y-66406980D01*
X115036828Y-66365108D01*
X115016322Y-66322894D01*
X115003318Y-66274362D01*
X114993470Y-66257304D01*
X114960469Y-66200144D01*
X114960463Y-66200136D01*
X114899863Y-66139536D01*
X114899855Y-66139530D01*
X114825644Y-66096685D01*
X114825640Y-66096683D01*
X114825638Y-66096682D01*
X114742853Y-66074500D01*
X114657147Y-66074500D01*
X114574362Y-66096682D01*
X114566852Y-66099793D01*
X114565844Y-66097359D01*
X114510602Y-66110754D01*
X114444578Y-66087893D01*
X114428837Y-66074576D01*
X114141897Y-65787636D01*
X114049829Y-65749500D01*
X114049828Y-65749500D01*
X113837964Y-65749500D01*
X113770925Y-65729815D01*
X113750283Y-65713181D01*
X113676615Y-65639513D01*
X113676613Y-65639511D01*
X113573886Y-65580201D01*
X113459309Y-65549500D01*
X113340691Y-65549500D01*
X113226114Y-65580201D01*
X113226112Y-65580201D01*
X113226112Y-65580202D01*
X113123387Y-65639511D01*
X113123384Y-65639513D01*
X113039513Y-65723384D01*
X113039511Y-65723387D01*
X113024435Y-65749500D01*
X112980201Y-65826114D01*
X112949500Y-65940691D01*
X112949500Y-66059309D01*
X112980201Y-66173886D01*
X113039511Y-66276613D01*
X113123387Y-66360489D01*
X113226114Y-66419799D01*
X113340691Y-66450500D01*
X113340694Y-66450500D01*
X113459306Y-66450500D01*
X113459309Y-66450500D01*
X113573886Y-66419799D01*
X113676613Y-66360489D01*
X113750283Y-66286819D01*
X113777210Y-66272115D01*
X113803029Y-66255523D01*
X113809229Y-66254631D01*
X113811606Y-66253334D01*
X113837964Y-66250500D01*
X113844877Y-66250500D01*
X113911916Y-66270185D01*
X113932558Y-66286819D01*
X114187636Y-66541897D01*
X114258103Y-66612364D01*
X114350172Y-66650500D01*
X114449652Y-66650500D01*
X114459087Y-66652468D01*
X114465220Y-66651481D01*
X114482942Y-66657447D01*
X114499248Y-66660850D01*
X114505624Y-66663632D01*
X114574362Y-66703318D01*
X114631881Y-66718730D01*
X114640394Y-66722445D01*
X114660340Y-66739146D01*
X114682551Y-66752684D01*
X114686694Y-66761212D01*
X114693964Y-66767300D01*
X114701713Y-66792129D01*
X114713081Y-66815530D01*
X114711955Y-66824946D01*
X114714780Y-66833997D01*
X114707875Y-66859076D01*
X114704787Y-66884906D01*
X114698003Y-66894927D01*
X114696233Y-66901360D01*
X114689665Y-66907248D01*
X114678479Y-66923776D01*
X114357360Y-67244896D01*
X114296037Y-67278381D01*
X114226346Y-67273397D01*
X114181998Y-67244896D01*
X114176615Y-67239513D01*
X114176613Y-67239511D01*
X114073886Y-67180201D01*
X113959309Y-67149500D01*
X113840691Y-67149500D01*
X113726114Y-67180201D01*
X113726112Y-67180201D01*
X113726112Y-67180202D01*
X113623387Y-67239511D01*
X113623384Y-67239513D01*
X113534017Y-67328881D01*
X113472694Y-67362366D01*
X113446336Y-67365200D01*
X111849500Y-67365200D01*
X111782461Y-67345515D01*
X111736706Y-67292711D01*
X111725500Y-67241200D01*
X111725500Y-67157149D01*
X111725500Y-67157147D01*
X111703318Y-67074362D01*
X111703314Y-67074355D01*
X111660469Y-67000144D01*
X111660463Y-67000136D01*
X111599863Y-66939536D01*
X111599855Y-66939530D01*
X111525644Y-66896685D01*
X111525640Y-66896683D01*
X111525638Y-66896682D01*
X111442853Y-66874500D01*
X111357147Y-66874500D01*
X111274362Y-66896682D01*
X111274361Y-66896682D01*
X111211651Y-66932888D01*
X111149652Y-66949500D01*
X109370938Y-66949500D01*
X109278870Y-66987636D01*
X108387636Y-67878870D01*
X108349500Y-67970938D01*
X105600500Y-67970938D01*
X105600500Y-65434234D01*
X110829500Y-65434234D01*
X110829500Y-65585766D01*
X110843121Y-65636602D01*
X110868719Y-65732136D01*
X110879322Y-65750500D01*
X110944485Y-65863365D01*
X111051635Y-65970515D01*
X111182865Y-66046281D01*
X111329234Y-66085500D01*
X111329236Y-66085500D01*
X111480764Y-66085500D01*
X111480766Y-66085500D01*
X111627135Y-66046281D01*
X111758365Y-65970515D01*
X111865515Y-65863365D01*
X111941281Y-65732135D01*
X111980500Y-65585766D01*
X111980500Y-65434234D01*
X111941281Y-65287865D01*
X111865515Y-65156635D01*
X111758365Y-65049485D01*
X111692750Y-65011602D01*
X111627136Y-64973719D01*
X111553950Y-64954109D01*
X111480766Y-64934500D01*
X111329234Y-64934500D01*
X111182863Y-64973719D01*
X111051635Y-65049485D01*
X111051632Y-65049487D01*
X110944487Y-65156632D01*
X110944485Y-65156635D01*
X110868719Y-65287863D01*
X110849576Y-65359309D01*
X110829500Y-65434234D01*
X105600500Y-65434234D01*
X105600500Y-63557147D01*
X115974500Y-63557147D01*
X115974500Y-63642853D01*
X115993957Y-63715466D01*
X115996682Y-63725637D01*
X115996685Y-63725644D01*
X116039530Y-63799855D01*
X116039534Y-63799860D01*
X116039535Y-63799862D01*
X116100138Y-63860465D01*
X116100140Y-63860466D01*
X116100144Y-63860469D01*
X116168854Y-63900138D01*
X116174362Y-63903318D01*
X116257147Y-63925500D01*
X116257149Y-63925500D01*
X116342851Y-63925500D01*
X116342853Y-63925500D01*
X116425638Y-63903318D01*
X116499862Y-63860465D01*
X116560465Y-63799862D01*
X116603318Y-63725638D01*
X116625500Y-63642853D01*
X116625500Y-63557147D01*
X116603318Y-63474362D01*
X116603314Y-63474355D01*
X116560469Y-63400144D01*
X116560463Y-63400136D01*
X116499863Y-63339536D01*
X116499855Y-63339530D01*
X116425644Y-63296685D01*
X116425640Y-63296683D01*
X116425638Y-63296682D01*
X116342853Y-63274500D01*
X116257147Y-63274500D01*
X116174362Y-63296682D01*
X116174355Y-63296685D01*
X116100144Y-63339530D01*
X116100136Y-63339536D01*
X116039536Y-63400136D01*
X116039530Y-63400144D01*
X115996685Y-63474355D01*
X115996682Y-63474362D01*
X115974500Y-63557147D01*
X105600500Y-63557147D01*
X105600500Y-60350000D01*
X107675000Y-60350000D01*
X109765000Y-60350000D01*
X109765000Y-60240691D01*
X117149500Y-60240691D01*
X117149500Y-60359309D01*
X117180201Y-60473886D01*
X117239511Y-60576613D01*
X117239513Y-60576615D01*
X117313181Y-60650283D01*
X117346666Y-60711606D01*
X117349500Y-60737964D01*
X117349500Y-60849829D01*
X117387636Y-60941897D01*
X117702090Y-61256351D01*
X117735575Y-61317674D01*
X117738409Y-61344032D01*
X117738409Y-62069862D01*
X117721797Y-62131861D01*
X117696682Y-62175361D01*
X117696682Y-62175362D01*
X117674500Y-62258147D01*
X117674500Y-62343853D01*
X117694097Y-62416988D01*
X117696682Y-62426637D01*
X117696685Y-62426644D01*
X117739530Y-62500855D01*
X117739534Y-62500860D01*
X117739535Y-62500862D01*
X117800138Y-62561465D01*
X117800140Y-62561466D01*
X117800144Y-62561469D01*
X117874355Y-62604314D01*
X117874362Y-62604318D01*
X117957147Y-62626500D01*
X117957149Y-62626500D01*
X118042851Y-62626500D01*
X118042853Y-62626500D01*
X118125638Y-62604318D01*
X118199862Y-62561465D01*
X118260465Y-62500862D01*
X118303318Y-62426638D01*
X118325500Y-62343853D01*
X118325500Y-62258147D01*
X118303318Y-62175362D01*
X118278203Y-62131861D01*
X118256402Y-62094099D01*
X118259339Y-62092403D01*
X118239831Y-62041828D01*
X118239409Y-62031604D01*
X118239409Y-61139082D01*
X118239408Y-61139079D01*
X118232907Y-61123384D01*
X118201273Y-61047012D01*
X118130806Y-60976545D01*
X117933362Y-60779101D01*
X117899877Y-60717778D01*
X117904861Y-60648086D01*
X117933359Y-60603742D01*
X117960489Y-60576613D01*
X118019799Y-60473886D01*
X118050500Y-60359309D01*
X118050500Y-60240691D01*
X118019799Y-60126114D01*
X117960489Y-60023387D01*
X117876613Y-59939511D01*
X117773886Y-59880201D01*
X117659309Y-59849500D01*
X117540691Y-59849500D01*
X117426114Y-59880201D01*
X117426112Y-59880201D01*
X117426112Y-59880202D01*
X117323387Y-59939511D01*
X117323384Y-59939513D01*
X117239513Y-60023384D01*
X117239511Y-60023387D01*
X117185288Y-60117304D01*
X117180201Y-60126114D01*
X117149500Y-60240691D01*
X109765000Y-60240691D01*
X109765000Y-59840691D01*
X122349500Y-59840691D01*
X122349500Y-59959309D01*
X122380201Y-60073886D01*
X122439511Y-60176613D01*
X122523387Y-60260489D01*
X122626114Y-60319799D01*
X122740691Y-60350500D01*
X122740694Y-60350500D01*
X122859306Y-60350500D01*
X122859309Y-60350500D01*
X122973886Y-60319799D01*
X123076613Y-60260489D01*
X123150283Y-60186819D01*
X123211606Y-60153334D01*
X123237964Y-60150500D01*
X124540298Y-60150500D01*
X124607337Y-60170185D01*
X124653092Y-60222989D01*
X124663036Y-60292147D01*
X124660075Y-60306584D01*
X124629500Y-60420691D01*
X124629500Y-60539309D01*
X124660201Y-60653886D01*
X124719511Y-60756613D01*
X124803387Y-60840489D01*
X124906114Y-60899799D01*
X125020691Y-60930500D01*
X125020694Y-60930500D01*
X125139306Y-60930500D01*
X125139309Y-60930500D01*
X125253886Y-60899799D01*
X125356613Y-60840489D01*
X125440489Y-60756613D01*
X125499799Y-60653886D01*
X125530500Y-60539309D01*
X125530500Y-60420691D01*
X125499927Y-60306591D01*
X125500522Y-60281598D01*
X125496964Y-60256853D01*
X125501339Y-60247272D01*
X125501590Y-60236744D01*
X125515602Y-60216039D01*
X125525989Y-60193297D01*
X125534848Y-60187603D01*
X125540752Y-60178881D01*
X125563735Y-60169039D01*
X125584767Y-60155523D01*
X125600622Y-60153243D01*
X125604981Y-60151377D01*
X125619702Y-60150500D01*
X125824553Y-60150500D01*
X125891592Y-60170185D01*
X125937347Y-60222989D01*
X125947291Y-60292147D01*
X125931940Y-60336499D01*
X125880201Y-60426114D01*
X125849500Y-60540691D01*
X125849500Y-60659309D01*
X125880201Y-60773886D01*
X125939511Y-60876613D01*
X126023387Y-60960489D01*
X126126114Y-61019799D01*
X126240691Y-61050500D01*
X126240694Y-61050500D01*
X126359306Y-61050500D01*
X126359309Y-61050500D01*
X126473886Y-61019799D01*
X126576613Y-60960489D01*
X126660489Y-60876613D01*
X126719799Y-60773886D01*
X126750500Y-60659309D01*
X126750500Y-60540691D01*
X126719799Y-60426114D01*
X126668059Y-60336499D01*
X126651587Y-60268601D01*
X126674439Y-60202574D01*
X126729360Y-60159383D01*
X126775447Y-60150500D01*
X140213035Y-60150500D01*
X140234280Y-60156738D01*
X140256369Y-60158318D01*
X140267152Y-60166390D01*
X140280074Y-60170185D01*
X140294573Y-60186918D01*
X140312302Y-60200190D01*
X140317009Y-60212810D01*
X140325829Y-60222989D01*
X140328980Y-60244906D01*
X140336719Y-60265654D01*
X140333856Y-60278814D01*
X140335773Y-60292147D01*
X140326573Y-60312290D01*
X140321867Y-60333927D01*
X140308598Y-60351652D01*
X140306748Y-60355703D01*
X140300716Y-60362181D01*
X140249716Y-60413181D01*
X140188393Y-60446666D01*
X140162035Y-60449500D01*
X140159309Y-60449500D01*
X140040691Y-60449500D01*
X139926114Y-60480201D01*
X139926112Y-60480201D01*
X139926112Y-60480202D01*
X139823387Y-60539511D01*
X139823384Y-60539513D01*
X139739513Y-60623384D01*
X139739511Y-60623387D01*
X139680201Y-60726114D01*
X139649500Y-60840691D01*
X139649500Y-60959309D01*
X139680201Y-61073886D01*
X139739511Y-61176613D01*
X139823387Y-61260489D01*
X139926114Y-61319799D01*
X140040691Y-61350500D01*
X140040694Y-61350500D01*
X140459308Y-61350500D01*
X140459309Y-61350500D01*
X140549673Y-61326286D01*
X140573887Y-61319799D01*
X140676614Y-61260489D01*
X144150285Y-57786819D01*
X144211608Y-57753334D01*
X144237966Y-57750500D01*
X144562035Y-57750500D01*
X144629074Y-57770185D01*
X144649716Y-57786819D01*
X146240261Y-59377364D01*
X146273746Y-59438687D01*
X146276580Y-59465045D01*
X146276580Y-59675574D01*
X146276580Y-59794192D01*
X146307281Y-59908769D01*
X146366591Y-60011496D01*
X146450467Y-60095372D01*
X146553194Y-60154682D01*
X146667771Y-60185383D01*
X146667774Y-60185383D01*
X146786386Y-60185383D01*
X146786389Y-60185383D01*
X146900966Y-60154682D01*
X147003693Y-60095372D01*
X147037819Y-60061246D01*
X147099142Y-60027761D01*
X147168834Y-60032745D01*
X147224767Y-60074617D01*
X147249184Y-60140081D01*
X147249500Y-60148927D01*
X147249500Y-62444876D01*
X147229815Y-62511915D01*
X147213181Y-62532557D01*
X145389661Y-64356076D01*
X145389662Y-64356077D01*
X145336636Y-64409103D01*
X145298500Y-64501170D01*
X145298500Y-67098829D01*
X145336636Y-67190897D01*
X146113181Y-67967442D01*
X146146666Y-68028765D01*
X146149500Y-68055123D01*
X146149500Y-68159309D01*
X146180201Y-68273886D01*
X146239511Y-68376613D01*
X146323387Y-68460489D01*
X146426114Y-68519799D01*
X146540691Y-68550500D01*
X146540694Y-68550500D01*
X146659306Y-68550500D01*
X146659309Y-68550500D01*
X146773886Y-68519799D01*
X146876613Y-68460489D01*
X146960489Y-68376613D01*
X147019799Y-68273886D01*
X147050500Y-68159309D01*
X147050500Y-68040691D01*
X147019799Y-67926114D01*
X146960489Y-67823387D01*
X146876613Y-67739511D01*
X146773886Y-67680201D01*
X146659309Y-67649500D01*
X146555123Y-67649500D01*
X146488084Y-67629815D01*
X146467442Y-67613181D01*
X146210421Y-67356160D01*
X146176936Y-67294837D01*
X146181920Y-67225145D01*
X146223792Y-67169212D01*
X146266005Y-67148705D01*
X146373886Y-67119799D01*
X146476613Y-67060489D01*
X146560489Y-66976613D01*
X146619799Y-66873886D01*
X146650500Y-66759309D01*
X146650500Y-66655122D01*
X146670185Y-66588083D01*
X146686819Y-66567441D01*
X147820026Y-65434234D01*
X149012364Y-64241897D01*
X149050500Y-64149828D01*
X149050500Y-64050172D01*
X149050500Y-59037964D01*
X149070185Y-58970925D01*
X149086819Y-58950283D01*
X149111274Y-58925828D01*
X149160489Y-58876613D01*
X149219799Y-58773886D01*
X149250500Y-58659309D01*
X149250500Y-58540691D01*
X149219799Y-58426114D01*
X149160489Y-58323387D01*
X149076613Y-58239511D01*
X148973886Y-58180201D01*
X148859309Y-58149500D01*
X148740691Y-58149500D01*
X148626114Y-58180201D01*
X148626112Y-58180201D01*
X148626112Y-58180202D01*
X148523387Y-58239511D01*
X148523384Y-58239513D01*
X148439513Y-58323384D01*
X148439511Y-58323387D01*
X148380201Y-58426114D01*
X148349500Y-58540691D01*
X148349500Y-58659309D01*
X148380201Y-58773886D01*
X148439511Y-58876613D01*
X148439513Y-58876615D01*
X148513181Y-58950283D01*
X148546666Y-59011606D01*
X148549500Y-59037964D01*
X148549500Y-63944876D01*
X148529815Y-64011915D01*
X148513181Y-64032557D01*
X146332557Y-66213181D01*
X146271234Y-66246666D01*
X146244876Y-66249500D01*
X146140691Y-66249500D01*
X146047902Y-66274363D01*
X146026110Y-66280202D01*
X145985500Y-66303649D01*
X145917600Y-66320122D01*
X145851573Y-66297270D01*
X145808382Y-66242348D01*
X145799500Y-66196262D01*
X145799500Y-65847472D01*
X145819185Y-65780433D01*
X145871989Y-65734678D01*
X145941147Y-65724734D01*
X145955575Y-65727693D01*
X146040691Y-65750500D01*
X146040694Y-65750500D01*
X146159306Y-65750500D01*
X146159309Y-65750500D01*
X146273886Y-65719799D01*
X146376613Y-65660489D01*
X146460489Y-65576613D01*
X146519799Y-65473886D01*
X146550500Y-65359309D01*
X146550500Y-65240691D01*
X146519799Y-65126114D01*
X146460489Y-65023387D01*
X146376613Y-64939511D01*
X146273886Y-64880201D01*
X146159309Y-64849500D01*
X146040691Y-64849500D01*
X145955593Y-64872302D01*
X145930598Y-64871706D01*
X145905853Y-64875265D01*
X145896272Y-64870889D01*
X145885743Y-64870639D01*
X145865039Y-64856626D01*
X145842297Y-64846240D01*
X145836602Y-64837378D01*
X145827881Y-64831476D01*
X145818039Y-64808495D01*
X145804523Y-64787462D01*
X145802243Y-64771606D01*
X145800377Y-64767248D01*
X145799500Y-64752527D01*
X145799500Y-64706121D01*
X145819185Y-64639082D01*
X145835814Y-64618445D01*
X147641895Y-62812364D01*
X147641897Y-62812364D01*
X147712364Y-62741897D01*
X147728160Y-62703760D01*
X147750501Y-62649827D01*
X147750501Y-62550172D01*
X147750501Y-62540183D01*
X147750500Y-62540169D01*
X147750500Y-57764270D01*
X147750501Y-57764261D01*
X147750501Y-57650174D01*
X147750500Y-57650170D01*
X147712364Y-57558104D01*
X147712363Y-57558102D01*
X147634832Y-57480571D01*
X147634825Y-57480565D01*
X147141079Y-56986819D01*
X146641897Y-56487636D01*
X146639700Y-56486726D01*
X146549829Y-56449500D01*
X146549828Y-56449500D01*
X144004123Y-56449500D01*
X143937084Y-56429815D01*
X143891329Y-56377011D01*
X143881385Y-56307853D01*
X143910410Y-56244297D01*
X143916442Y-56237819D01*
X145913570Y-54240691D01*
X147912364Y-52241897D01*
X147950500Y-52149828D01*
X147950500Y-52050172D01*
X147950500Y-51637964D01*
X147970185Y-51570925D01*
X147986819Y-51550283D01*
X147999138Y-51537964D01*
X148060489Y-51476613D01*
X148119799Y-51373886D01*
X148150500Y-51259309D01*
X148150500Y-51140691D01*
X148119799Y-51026114D01*
X148060489Y-50923387D01*
X147976613Y-50839511D01*
X147873886Y-50780201D01*
X147831341Y-50768801D01*
X147771683Y-50732436D01*
X147741154Y-50669589D01*
X147749449Y-50600214D01*
X147775756Y-50561346D01*
X147935930Y-50401172D01*
X149109490Y-49227614D01*
X149168799Y-49124887D01*
X149175285Y-49100675D01*
X149175286Y-49100675D01*
X149175286Y-49100671D01*
X149199500Y-49010309D01*
X149199500Y-48826891D01*
X149219185Y-48759852D01*
X149235819Y-48739210D01*
X149294828Y-48680201D01*
X149360490Y-48614539D01*
X149419799Y-48511811D01*
X149450500Y-48397234D01*
X149450500Y-43790691D01*
X149419799Y-43676114D01*
X149360489Y-43573387D01*
X149276613Y-43489511D01*
X149173886Y-43430201D01*
X149059309Y-43399500D01*
X148940691Y-43399500D01*
X148826114Y-43430201D01*
X148826112Y-43430201D01*
X148826112Y-43430202D01*
X148723387Y-43489511D01*
X148723384Y-43489513D01*
X148639513Y-43573384D01*
X148639511Y-43573387D01*
X148580201Y-43676114D01*
X148549500Y-43790691D01*
X148549500Y-43790693D01*
X148549500Y-48099958D01*
X148529815Y-48166997D01*
X148513182Y-48187639D01*
X148388510Y-48312312D01*
X148388509Y-48312314D01*
X148329201Y-48415037D01*
X148329200Y-48415042D01*
X148298500Y-48529616D01*
X148298500Y-48713034D01*
X148278815Y-48780073D01*
X148262181Y-48800715D01*
X146039513Y-51023383D01*
X146039509Y-51023389D01*
X145980201Y-51126112D01*
X145980200Y-51126117D01*
X145949500Y-51240691D01*
X145949500Y-52382803D01*
X145929815Y-52449842D01*
X145913181Y-52470484D01*
X140170484Y-58213181D01*
X140109161Y-58246666D01*
X140082803Y-58249500D01*
X132459309Y-58249500D01*
X132340691Y-58249500D01*
X132226114Y-58280201D01*
X132226112Y-58280201D01*
X132226112Y-58280202D01*
X132123387Y-58339511D01*
X132123384Y-58339513D01*
X132039513Y-58423384D01*
X132039511Y-58423387D01*
X131980201Y-58526114D01*
X131949500Y-58640691D01*
X131949500Y-58759309D01*
X131980201Y-58873886D01*
X132024309Y-58950283D01*
X132031940Y-58963499D01*
X132048413Y-59031399D01*
X132025561Y-59097426D01*
X131970640Y-59140617D01*
X131924553Y-59149500D01*
X129641636Y-59149500D01*
X129574597Y-59129815D01*
X129553955Y-59113181D01*
X128485154Y-58044379D01*
X128316819Y-57876044D01*
X128283334Y-57814721D01*
X128280500Y-57788363D01*
X128280500Y-57684179D01*
X128280500Y-57684177D01*
X128249799Y-57569600D01*
X128190489Y-57466873D01*
X128106613Y-57382997D01*
X128003886Y-57323687D01*
X127889309Y-57292986D01*
X127770691Y-57292986D01*
X127656114Y-57323687D01*
X127656112Y-57323687D01*
X127656112Y-57323688D01*
X127553387Y-57382997D01*
X127553384Y-57382999D01*
X127469513Y-57466870D01*
X127469511Y-57466873D01*
X127410201Y-57569600D01*
X127379500Y-57684177D01*
X127379500Y-57802795D01*
X127410201Y-57917372D01*
X127469511Y-58020099D01*
X127553387Y-58103975D01*
X127656114Y-58163285D01*
X127770691Y-58193986D01*
X127770694Y-58193986D01*
X127874877Y-58193986D01*
X127941916Y-58213671D01*
X127962558Y-58230305D01*
X128130893Y-58398640D01*
X128695752Y-58963499D01*
X129170073Y-59437819D01*
X129203558Y-59499142D01*
X129198574Y-59568834D01*
X129156702Y-59624767D01*
X129091238Y-59649184D01*
X129082392Y-59649500D01*
X123237964Y-59649500D01*
X123170925Y-59629815D01*
X123150283Y-59613181D01*
X123076615Y-59539513D01*
X123076613Y-59539511D01*
X122973886Y-59480201D01*
X122859309Y-59449500D01*
X122740691Y-59449500D01*
X122626114Y-59480201D01*
X122626112Y-59480201D01*
X122626112Y-59480202D01*
X122523387Y-59539511D01*
X122523384Y-59539513D01*
X122439513Y-59623384D01*
X122439511Y-59623387D01*
X122409381Y-59675574D01*
X122380201Y-59726114D01*
X122349500Y-59840691D01*
X109765000Y-59840691D01*
X109765000Y-58450000D01*
X107675000Y-58450000D01*
X107675000Y-60350000D01*
X105600500Y-60350000D01*
X105600500Y-56927526D01*
X114249500Y-56927526D01*
X114249500Y-57072474D01*
X114287016Y-57212485D01*
X114359490Y-57338015D01*
X115109490Y-58088015D01*
X116061986Y-59040510D01*
X116096591Y-59060489D01*
X116187515Y-59112984D01*
X116327525Y-59150500D01*
X116327526Y-59150500D01*
X116327528Y-59150500D01*
X119872472Y-59150500D01*
X119872474Y-59150500D01*
X119872475Y-59150500D01*
X120012485Y-59112984D01*
X120034108Y-59100500D01*
X120138015Y-59040510D01*
X120940509Y-58238015D01*
X121012984Y-58112485D01*
X121022596Y-58076614D01*
X121022597Y-58076612D01*
X121032809Y-58038495D01*
X121050500Y-57972475D01*
X121050500Y-57627525D01*
X121050500Y-57582795D01*
X121070185Y-57515756D01*
X121086819Y-57495114D01*
X121243920Y-57338013D01*
X121415610Y-57166323D01*
X121488084Y-57040793D01*
X121525600Y-56900782D01*
X121525600Y-56780979D01*
X121545285Y-56713940D01*
X121598089Y-56668185D01*
X121617506Y-56661204D01*
X121619708Y-56660614D01*
X121619711Y-56660614D01*
X121734288Y-56629913D01*
X121837015Y-56570603D01*
X121920891Y-56486727D01*
X121980201Y-56384000D01*
X122010902Y-56269423D01*
X122010902Y-56150805D01*
X121980201Y-56036228D01*
X121920891Y-55933501D01*
X121837015Y-55849625D01*
X121834512Y-55848180D01*
X121818765Y-55839088D01*
X121770549Y-55788522D01*
X121757325Y-55719915D01*
X121783293Y-55655050D01*
X121793083Y-55644020D01*
X122328277Y-55108826D01*
X122960489Y-54476614D01*
X123014162Y-54383649D01*
X123019799Y-54373886D01*
X123050500Y-54259309D01*
X123050500Y-53474500D01*
X123070185Y-53407461D01*
X123122989Y-53361706D01*
X123174500Y-53350500D01*
X124120613Y-53350500D01*
X124187652Y-53370185D01*
X124208294Y-53386819D01*
X125261985Y-54440510D01*
X125387515Y-54512984D01*
X125387517Y-54512984D01*
X125387518Y-54512985D01*
X125387517Y-54512985D01*
X125476130Y-54536728D01*
X125531719Y-54568822D01*
X125623386Y-54660489D01*
X125726113Y-54719799D01*
X125750321Y-54726284D01*
X125750324Y-54726286D01*
X125750325Y-54726286D01*
X125769489Y-54731421D01*
X125840691Y-54750500D01*
X127552259Y-54750500D01*
X127619298Y-54770185D01*
X127665053Y-54822989D01*
X127674997Y-54892147D01*
X127672034Y-54906593D01*
X127649500Y-54990691D01*
X127649500Y-55109309D01*
X127680201Y-55223886D01*
X127739511Y-55326613D01*
X127823387Y-55410489D01*
X127926114Y-55469799D01*
X128040691Y-55500500D01*
X128040694Y-55500500D01*
X128159306Y-55500500D01*
X128159309Y-55500500D01*
X128273886Y-55469799D01*
X128376613Y-55410489D01*
X128460489Y-55326613D01*
X128518113Y-55226805D01*
X128568681Y-55178591D01*
X128637288Y-55165369D01*
X128702152Y-55191337D01*
X128742680Y-55248251D01*
X128749500Y-55288807D01*
X128749500Y-55599829D01*
X128787636Y-55691897D01*
X128813181Y-55717442D01*
X128846666Y-55778765D01*
X128849500Y-55805123D01*
X128849500Y-57507299D01*
X128849500Y-57606955D01*
X128882934Y-57687673D01*
X128892373Y-57735124D01*
X128892373Y-57740691D01*
X128892373Y-57859309D01*
X128923074Y-57973886D01*
X128982384Y-58076613D01*
X129066260Y-58160489D01*
X129168987Y-58219799D01*
X129283564Y-58250500D01*
X129283567Y-58250500D01*
X129402179Y-58250500D01*
X129402182Y-58250500D01*
X129516759Y-58219799D01*
X129619486Y-58160489D01*
X129703362Y-58076613D01*
X129762672Y-57973886D01*
X129793373Y-57859309D01*
X129793373Y-57740691D01*
X129762672Y-57626114D01*
X129703362Y-57523387D01*
X129619486Y-57439511D01*
X129516759Y-57380201D01*
X129442404Y-57360277D01*
X129382745Y-57323912D01*
X129352217Y-57261065D01*
X129350500Y-57240503D01*
X129350500Y-56574182D01*
X129370185Y-56507143D01*
X129422989Y-56461388D01*
X129492147Y-56451444D01*
X129536497Y-56466793D01*
X129625185Y-56517998D01*
X129739762Y-56548699D01*
X129739765Y-56548699D01*
X129858377Y-56548699D01*
X129858380Y-56548699D01*
X129972957Y-56517998D01*
X130075684Y-56458688D01*
X130159560Y-56374812D01*
X130218870Y-56272085D01*
X130221977Y-56260489D01*
X130231303Y-56225684D01*
X130263395Y-56170096D01*
X130592801Y-55840691D01*
X133349500Y-55840691D01*
X133349500Y-55959309D01*
X133380201Y-56073886D01*
X133439511Y-56176613D01*
X133523387Y-56260489D01*
X133626114Y-56319799D01*
X133740691Y-56350500D01*
X133740694Y-56350500D01*
X133859306Y-56350500D01*
X133859309Y-56350500D01*
X133973886Y-56319799D01*
X134076613Y-56260489D01*
X134160489Y-56176613D01*
X134219799Y-56073886D01*
X134250500Y-55959309D01*
X134250500Y-55840691D01*
X134219799Y-55726114D01*
X134160489Y-55623387D01*
X134076613Y-55539511D01*
X133973886Y-55480201D01*
X133859309Y-55449500D01*
X133740691Y-55449500D01*
X133626114Y-55480201D01*
X133626112Y-55480201D01*
X133626112Y-55480202D01*
X133523387Y-55539511D01*
X133523384Y-55539513D01*
X133439513Y-55623384D01*
X133439511Y-55623387D01*
X133381870Y-55723224D01*
X133380201Y-55726114D01*
X133349500Y-55840691D01*
X130592801Y-55840691D01*
X131008298Y-55425195D01*
X131046434Y-55333126D01*
X131046434Y-55233470D01*
X131046434Y-54046106D01*
X131008298Y-53954037D01*
X130937831Y-53883570D01*
X130416442Y-53362181D01*
X130382957Y-53300858D01*
X130387941Y-53231166D01*
X130429813Y-53175233D01*
X130495277Y-53150816D01*
X130504123Y-53150500D01*
X132559306Y-53150500D01*
X132559309Y-53150500D01*
X132673886Y-53119799D01*
X132776613Y-53060489D01*
X132860489Y-52976613D01*
X132919799Y-52873886D01*
X132950500Y-52759309D01*
X132950500Y-52640691D01*
X132919799Y-52526114D01*
X132860489Y-52423387D01*
X132776613Y-52339511D01*
X132673886Y-52280201D01*
X132559309Y-52249500D01*
X132559306Y-52249500D01*
X130537965Y-52249500D01*
X130470926Y-52229815D01*
X130450284Y-52213181D01*
X128776616Y-50539513D01*
X128776614Y-50539511D01*
X128725250Y-50509856D01*
X128673888Y-50480201D01*
X128660492Y-50476612D01*
X128649673Y-50473713D01*
X128649670Y-50473712D01*
X128611478Y-50463478D01*
X128559309Y-50449500D01*
X128440691Y-50449500D01*
X128350325Y-50473713D01*
X128350324Y-50473712D01*
X128326116Y-50480199D01*
X128326113Y-50480200D01*
X128223386Y-50539511D01*
X128223383Y-50539513D01*
X128139513Y-50623383D01*
X128139509Y-50623389D01*
X128080201Y-50726112D01*
X128080200Y-50726116D01*
X128080200Y-50726118D01*
X128072426Y-50755127D01*
X128036059Y-50814786D01*
X127973211Y-50845313D01*
X127903835Y-50837016D01*
X127864971Y-50810710D01*
X127437819Y-50383558D01*
X127404334Y-50322235D01*
X127401500Y-50295877D01*
X127401500Y-50140691D01*
X130349500Y-50140691D01*
X130349500Y-50259309D01*
X130380201Y-50373886D01*
X130439511Y-50476613D01*
X130523387Y-50560489D01*
X130626114Y-50619799D01*
X130740691Y-50650500D01*
X130740694Y-50650500D01*
X130859306Y-50650500D01*
X130859309Y-50650500D01*
X130973886Y-50619799D01*
X131076613Y-50560489D01*
X131160489Y-50476613D01*
X131219799Y-50373886D01*
X131228694Y-50340691D01*
X133149500Y-50340691D01*
X133149500Y-50459309D01*
X133180201Y-50573886D01*
X133239511Y-50676613D01*
X133323387Y-50760489D01*
X133426114Y-50819799D01*
X133540691Y-50850500D01*
X133540694Y-50850500D01*
X133659306Y-50850500D01*
X133659309Y-50850500D01*
X133773886Y-50819799D01*
X133876613Y-50760489D01*
X133960489Y-50676613D01*
X134019799Y-50573886D01*
X134050500Y-50459309D01*
X134050500Y-50340691D01*
X134019799Y-50226114D01*
X133960489Y-50123387D01*
X133876613Y-50039511D01*
X133773886Y-49980201D01*
X133659309Y-49949500D01*
X133540691Y-49949500D01*
X133426114Y-49980201D01*
X133426112Y-49980201D01*
X133426112Y-49980202D01*
X133323387Y-50039511D01*
X133323384Y-50039513D01*
X133239513Y-50123384D01*
X133239511Y-50123387D01*
X133180201Y-50226114D01*
X133149500Y-50340691D01*
X131228694Y-50340691D01*
X131250500Y-50259309D01*
X131250500Y-50140691D01*
X131219799Y-50026114D01*
X131160489Y-49923387D01*
X131076613Y-49839511D01*
X130973886Y-49780201D01*
X130859309Y-49749500D01*
X130740691Y-49749500D01*
X130626114Y-49780201D01*
X130626112Y-49780201D01*
X130626112Y-49780202D01*
X130523387Y-49839511D01*
X130523384Y-49839513D01*
X130439513Y-49923384D01*
X130439511Y-49923387D01*
X130406709Y-49980202D01*
X130380201Y-50026114D01*
X130349500Y-50140691D01*
X127401500Y-50140691D01*
X127401500Y-46301173D01*
X127401499Y-46301168D01*
X127394820Y-46285044D01*
X127394808Y-46285017D01*
X127392814Y-46280202D01*
X127378519Y-46245691D01*
X132254500Y-46245691D01*
X132254500Y-46364309D01*
X132285201Y-46478886D01*
X132344511Y-46581613D01*
X132428387Y-46665489D01*
X132531114Y-46724799D01*
X132645691Y-46755500D01*
X132645694Y-46755500D01*
X132764306Y-46755500D01*
X132764309Y-46755500D01*
X132878886Y-46724799D01*
X132981613Y-46665489D01*
X133065489Y-46581613D01*
X133124799Y-46478886D01*
X133155500Y-46364309D01*
X133155500Y-46245691D01*
X133124799Y-46131114D01*
X133065489Y-46028387D01*
X132981613Y-45944511D01*
X132878886Y-45885201D01*
X132764309Y-45854500D01*
X132645691Y-45854500D01*
X132531114Y-45885201D01*
X132531112Y-45885201D01*
X132531112Y-45885202D01*
X132428387Y-45944511D01*
X132428384Y-45944513D01*
X132344513Y-46028384D01*
X132344511Y-46028387D01*
X132285201Y-46131114D01*
X132254500Y-46245691D01*
X127378519Y-46245691D01*
X127363364Y-46209103D01*
X127292897Y-46138636D01*
X126986819Y-45832558D01*
X126953334Y-45771235D01*
X126950500Y-45744877D01*
X126950500Y-45640693D01*
X126950500Y-45640691D01*
X126919799Y-45526114D01*
X126860489Y-45423387D01*
X126776613Y-45339511D01*
X126673886Y-45280201D01*
X126559309Y-45249500D01*
X126440691Y-45249500D01*
X126326114Y-45280201D01*
X126326112Y-45280201D01*
X126326112Y-45280202D01*
X126223387Y-45339511D01*
X126223384Y-45339513D01*
X126139513Y-45423384D01*
X126139511Y-45423387D01*
X126123170Y-45451691D01*
X126080201Y-45526114D01*
X126049500Y-45640691D01*
X126049500Y-45759309D01*
X126080201Y-45873886D01*
X126139511Y-45976613D01*
X126223387Y-46060489D01*
X126326114Y-46119799D01*
X126440691Y-46150500D01*
X126440694Y-46150500D01*
X126544877Y-46150500D01*
X126611916Y-46170185D01*
X126632558Y-46186819D01*
X126864181Y-46418442D01*
X126897666Y-46479765D01*
X126900500Y-46506123D01*
X126900500Y-48552527D01*
X126880815Y-48619566D01*
X126828011Y-48665321D01*
X126758853Y-48675265D01*
X126744407Y-48672302D01*
X126718353Y-48665321D01*
X126659309Y-48649500D01*
X126540691Y-48649500D01*
X126426114Y-48680201D01*
X126426112Y-48680201D01*
X126426112Y-48680202D01*
X126323387Y-48739511D01*
X126323384Y-48739513D01*
X126239513Y-48823384D01*
X126239511Y-48823387D01*
X126180201Y-48926114D01*
X126149500Y-49040691D01*
X126149500Y-49159309D01*
X126180201Y-49273886D01*
X126239511Y-49376613D01*
X126239513Y-49376615D01*
X126313181Y-49450283D01*
X126346666Y-49511606D01*
X126349500Y-49537964D01*
X126349500Y-50534198D01*
X126365940Y-50573887D01*
X126387636Y-50626266D01*
X128120861Y-52359491D01*
X129719298Y-53957927D01*
X129752783Y-54019250D01*
X129747799Y-54088942D01*
X129705927Y-54144875D01*
X129693618Y-54152994D01*
X129617321Y-54197045D01*
X129616472Y-54197697D01*
X129615626Y-54198023D01*
X129610283Y-54201109D01*
X129609801Y-54200275D01*
X129551301Y-54222887D01*
X129482857Y-54208844D01*
X129432870Y-54160026D01*
X129421218Y-54131413D01*
X129419799Y-54126114D01*
X129360489Y-54023387D01*
X129276613Y-53939511D01*
X129173886Y-53880201D01*
X129059309Y-53849500D01*
X129059306Y-53849500D01*
X126220362Y-53849500D01*
X126153323Y-53829815D01*
X126112975Y-53787501D01*
X126040510Y-53661985D01*
X124738015Y-52359490D01*
X124707186Y-52341691D01*
X126470988Y-52341691D01*
X126470988Y-52460309D01*
X126501689Y-52574886D01*
X126560999Y-52677613D01*
X126644875Y-52761489D01*
X126717872Y-52803634D01*
X126766087Y-52854202D01*
X126779309Y-52922809D01*
X126775646Y-52943112D01*
X126749500Y-53040691D01*
X126749500Y-53159309D01*
X126780201Y-53273886D01*
X126839511Y-53376613D01*
X126923387Y-53460489D01*
X127026114Y-53519799D01*
X127140691Y-53550500D01*
X127140694Y-53550500D01*
X127259306Y-53550500D01*
X127259309Y-53550500D01*
X127373886Y-53519799D01*
X127476613Y-53460489D01*
X127560489Y-53376613D01*
X127619799Y-53273886D01*
X127650500Y-53159309D01*
X127650500Y-53040691D01*
X127619799Y-52926114D01*
X127560489Y-52823387D01*
X127476613Y-52739511D01*
X127461666Y-52730881D01*
X127403615Y-52697364D01*
X127355400Y-52646796D01*
X127342179Y-52578189D01*
X127345840Y-52557891D01*
X127371988Y-52460309D01*
X127371988Y-52341691D01*
X127341287Y-52227114D01*
X127281977Y-52124387D01*
X127198101Y-52040511D01*
X127095374Y-51981201D01*
X126980797Y-51950500D01*
X126862179Y-51950500D01*
X126747602Y-51981201D01*
X126747600Y-51981201D01*
X126747600Y-51981202D01*
X126644875Y-52040511D01*
X126644872Y-52040513D01*
X126561001Y-52124384D01*
X126560999Y-52124387D01*
X126501689Y-52227114D01*
X126470988Y-52341691D01*
X124707186Y-52341691D01*
X124612485Y-52287016D01*
X124612486Y-52287016D01*
X124512702Y-52260279D01*
X124512702Y-52260278D01*
X124472475Y-52249500D01*
X122879387Y-52249500D01*
X122812348Y-52229815D01*
X122791706Y-52213181D01*
X120886819Y-50308294D01*
X120853334Y-50246971D01*
X120850500Y-50220613D01*
X120850500Y-49837965D01*
X120870185Y-49770926D01*
X120886819Y-49750284D01*
X122222066Y-48415037D01*
X123570489Y-47066614D01*
X123629799Y-46963887D01*
X123636285Y-46939675D01*
X123636286Y-46939675D01*
X123636286Y-46939671D01*
X123660500Y-46849309D01*
X123660500Y-44740691D01*
X123629799Y-44626114D01*
X123570489Y-44523387D01*
X123486613Y-44439511D01*
X123383886Y-44380201D01*
X123269309Y-44349500D01*
X123150691Y-44349500D01*
X123036114Y-44380201D01*
X123036112Y-44380201D01*
X123036112Y-44380202D01*
X122933387Y-44439511D01*
X122933384Y-44439513D01*
X122849513Y-44523384D01*
X122849511Y-44523387D01*
X122790201Y-44626114D01*
X122759500Y-44740691D01*
X122759500Y-44740693D01*
X122759500Y-46552034D01*
X122739815Y-46619073D01*
X122723181Y-46639715D01*
X121262938Y-48099958D01*
X120123388Y-49239508D01*
X120123386Y-49239510D01*
X119902406Y-49460489D01*
X119831718Y-49531177D01*
X119776133Y-49563269D01*
X119687519Y-49587014D01*
X119687514Y-49587016D01*
X119561986Y-49659489D01*
X119561983Y-49659491D01*
X119459491Y-49761983D01*
X119459489Y-49761986D01*
X119387016Y-49887514D01*
X119387016Y-49887515D01*
X119349500Y-50027526D01*
X119349500Y-50172474D01*
X119382566Y-50295877D01*
X119387016Y-50312485D01*
X119459489Y-50438013D01*
X119459491Y-50438016D01*
X122113181Y-53091706D01*
X122146666Y-53153029D01*
X122149500Y-53179387D01*
X122149500Y-53962035D01*
X122129815Y-54029074D01*
X122113181Y-54049716D01*
X121039513Y-55123383D01*
X121039511Y-55123386D01*
X120980199Y-55226114D01*
X120977080Y-55237756D01*
X120977074Y-55237782D01*
X120976295Y-55240691D01*
X120949500Y-55340691D01*
X120949500Y-55365386D01*
X120946702Y-55378335D01*
X120936076Y-55397858D01*
X120929815Y-55419182D01*
X120913352Y-55439611D01*
X120913303Y-55439701D01*
X120913299Y-55439705D01*
X120913258Y-55439727D01*
X120913181Y-55439824D01*
X120556703Y-55796301D01*
X120556699Y-55796306D01*
X120518563Y-55862359D01*
X120518564Y-55862360D01*
X120510558Y-55876227D01*
X120486672Y-55965371D01*
X120486672Y-56486849D01*
X120466987Y-56553888D01*
X120450353Y-56574530D01*
X120059491Y-56965391D01*
X120059487Y-56965396D01*
X119994987Y-57077116D01*
X119994987Y-57077117D01*
X119987016Y-57090923D01*
X119949500Y-57230933D01*
X119949500Y-57230935D01*
X119949500Y-57620613D01*
X119929815Y-57687652D01*
X119913181Y-57708294D01*
X119608294Y-58013181D01*
X119546971Y-58046666D01*
X119520613Y-58049500D01*
X116679386Y-58049500D01*
X116612347Y-58029815D01*
X116591705Y-58013181D01*
X116250499Y-57671975D01*
X115888015Y-57309490D01*
X115138015Y-56559490D01*
X115012485Y-56487016D01*
X115012486Y-56487016D01*
X114977482Y-56477637D01*
X114872474Y-56449500D01*
X114727526Y-56449500D01*
X114622517Y-56477637D01*
X114587514Y-56487016D01*
X114461986Y-56559489D01*
X114461983Y-56559491D01*
X114359491Y-56661983D01*
X114359489Y-56661986D01*
X114287016Y-56787514D01*
X114287016Y-56787515D01*
X114249500Y-56927526D01*
X105600500Y-56927526D01*
X105600500Y-56224000D01*
X105620185Y-56156961D01*
X105672989Y-56111206D01*
X105724500Y-56100000D01*
X111390967Y-56100000D01*
X111390968Y-56100000D01*
X111396531Y-55237756D01*
X111458447Y-45640691D01*
X120449500Y-45640691D01*
X120449500Y-45759309D01*
X120480201Y-45873886D01*
X120539511Y-45976613D01*
X120623387Y-46060489D01*
X120726114Y-46119799D01*
X120840691Y-46150500D01*
X120840694Y-46150500D01*
X120959306Y-46150500D01*
X120959309Y-46150500D01*
X121073886Y-46119799D01*
X121176613Y-46060489D01*
X121260489Y-45976613D01*
X121319799Y-45873886D01*
X121350500Y-45759309D01*
X121350500Y-45640691D01*
X121319799Y-45526114D01*
X121260489Y-45423387D01*
X121176613Y-45339511D01*
X121073886Y-45280201D01*
X120959309Y-45249500D01*
X120840691Y-45249500D01*
X120726114Y-45280201D01*
X120726112Y-45280201D01*
X120726112Y-45280202D01*
X120623387Y-45339511D01*
X120623384Y-45339513D01*
X120539513Y-45423384D01*
X120539511Y-45423387D01*
X120523170Y-45451691D01*
X120480201Y-45526114D01*
X120449500Y-45640691D01*
X111458447Y-45640691D01*
X111458505Y-45631764D01*
X111469415Y-43940691D01*
X124149500Y-43940691D01*
X124149500Y-44059309D01*
X124180201Y-44173886D01*
X124239511Y-44276613D01*
X124323387Y-44360489D01*
X124426114Y-44419799D01*
X124540691Y-44450500D01*
X124540694Y-44450500D01*
X124659306Y-44450500D01*
X124659309Y-44450500D01*
X124773886Y-44419799D01*
X124876613Y-44360489D01*
X124960489Y-44276613D01*
X125019799Y-44173886D01*
X125050500Y-44059309D01*
X125050500Y-43940691D01*
X125019799Y-43826114D01*
X124960489Y-43723387D01*
X124876613Y-43639511D01*
X124773886Y-43580201D01*
X124659309Y-43549500D01*
X124540691Y-43549500D01*
X124426114Y-43580201D01*
X124426112Y-43580201D01*
X124426112Y-43580202D01*
X124323387Y-43639511D01*
X124323384Y-43639513D01*
X124239513Y-43723384D01*
X124239511Y-43723387D01*
X124200652Y-43790693D01*
X124180201Y-43826114D01*
X124149500Y-43940691D01*
X111469415Y-43940691D01*
X111469473Y-43931764D01*
X111472931Y-43395691D01*
X134649500Y-43395691D01*
X134649500Y-43514309D01*
X134665329Y-43573384D01*
X134665330Y-43573387D01*
X134680201Y-43628888D01*
X134686336Y-43639513D01*
X134739511Y-43731614D01*
X134739513Y-43731616D01*
X136669181Y-45661284D01*
X136702666Y-45722607D01*
X136705500Y-45748965D01*
X136705500Y-51706035D01*
X136685815Y-51773074D01*
X136669181Y-51793716D01*
X134939513Y-53523383D01*
X134939509Y-53523389D01*
X134880201Y-53626112D01*
X134880200Y-53626117D01*
X134849500Y-53740691D01*
X134849500Y-53859308D01*
X134867778Y-53927525D01*
X134867779Y-53927525D01*
X134867779Y-53927526D01*
X134880201Y-53973887D01*
X134880202Y-53973890D01*
X134913360Y-54031319D01*
X134939511Y-54076614D01*
X135023386Y-54160489D01*
X135126113Y-54219799D01*
X135150321Y-54226284D01*
X135150324Y-54226286D01*
X135150325Y-54226286D01*
X135180447Y-54234357D01*
X135240691Y-54250500D01*
X135240693Y-54250500D01*
X135359308Y-54250500D01*
X135359309Y-54250500D01*
X135449673Y-54226286D01*
X135473887Y-54219799D01*
X135576614Y-54160489D01*
X137516489Y-52220614D01*
X137557357Y-52149828D01*
X137575799Y-52117886D01*
X137606500Y-52003309D01*
X137606500Y-50840691D01*
X141649500Y-50840691D01*
X141649500Y-53840691D01*
X141649500Y-53959309D01*
X141680201Y-54073886D01*
X141739511Y-54176613D01*
X141823387Y-54260489D01*
X141926114Y-54319799D01*
X142040691Y-54350500D01*
X142040694Y-54350500D01*
X142159306Y-54350500D01*
X142159309Y-54350500D01*
X142273886Y-54319799D01*
X142376613Y-54260489D01*
X142460489Y-54176613D01*
X142519799Y-54073886D01*
X142550500Y-53959309D01*
X142550500Y-53840691D01*
X142550500Y-50840691D01*
X142519799Y-50726114D01*
X142460489Y-50623387D01*
X142376613Y-50539511D01*
X142273886Y-50480201D01*
X142159309Y-50449500D01*
X142040691Y-50449500D01*
X141926114Y-50480201D01*
X141926112Y-50480201D01*
X141926112Y-50480202D01*
X141823387Y-50539511D01*
X141823384Y-50539513D01*
X141739513Y-50623384D01*
X141739511Y-50623387D01*
X141708780Y-50676615D01*
X141680201Y-50726114D01*
X141649500Y-50840691D01*
X137606500Y-50840691D01*
X137606500Y-46640691D01*
X145549500Y-46640691D01*
X145549500Y-46759309D01*
X145580201Y-46873886D01*
X145639511Y-46976613D01*
X145723387Y-47060489D01*
X145826114Y-47119799D01*
X145940691Y-47150500D01*
X145940694Y-47150500D01*
X146059306Y-47150500D01*
X146059309Y-47150500D01*
X146173886Y-47119799D01*
X146237999Y-47082782D01*
X146305898Y-47066309D01*
X146361999Y-47082782D01*
X146426114Y-47119799D01*
X146540691Y-47150500D01*
X146540694Y-47150500D01*
X146659306Y-47150500D01*
X146659309Y-47150500D01*
X146773886Y-47119799D01*
X146876613Y-47060489D01*
X146960489Y-46976613D01*
X147019799Y-46873886D01*
X147050500Y-46759309D01*
X147050500Y-46640691D01*
X147019799Y-46526114D01*
X146960489Y-46423387D01*
X146876613Y-46339511D01*
X146773886Y-46280201D01*
X146659309Y-46249500D01*
X146540691Y-46249500D01*
X146435505Y-46277684D01*
X146426110Y-46280202D01*
X146362000Y-46317217D01*
X146294100Y-46333690D01*
X146238000Y-46317217D01*
X146173889Y-46280202D01*
X146173890Y-46280202D01*
X146164494Y-46277684D01*
X146059309Y-46249500D01*
X145940691Y-46249500D01*
X145826114Y-46280201D01*
X145826112Y-46280201D01*
X145826112Y-46280202D01*
X145723387Y-46339511D01*
X145723384Y-46339513D01*
X145639513Y-46423384D01*
X145639511Y-46423387D01*
X145580201Y-46526114D01*
X145549500Y-46640691D01*
X137606500Y-46640691D01*
X137606500Y-45451691D01*
X137582286Y-45361326D01*
X137582286Y-45361325D01*
X137582286Y-45361324D01*
X137579544Y-45351091D01*
X137575799Y-45337113D01*
X137516489Y-45234386D01*
X135376614Y-43094511D01*
X135325250Y-43064856D01*
X135273888Y-43035201D01*
X135261780Y-43031957D01*
X135249673Y-43028713D01*
X135249670Y-43028712D01*
X135211478Y-43018478D01*
X135159309Y-43004500D01*
X135040691Y-43004500D01*
X134950325Y-43028713D01*
X134950324Y-43028712D01*
X134926116Y-43035199D01*
X134926113Y-43035200D01*
X134823386Y-43094511D01*
X134823383Y-43094513D01*
X134739513Y-43178383D01*
X134739509Y-43178389D01*
X134680201Y-43281112D01*
X134680201Y-43281113D01*
X134680201Y-43281114D01*
X134649500Y-43395691D01*
X111472931Y-43395691D01*
X111472989Y-43386764D01*
X111482318Y-41940691D01*
X120449500Y-41940691D01*
X120449500Y-42059309D01*
X120480201Y-42173886D01*
X120539511Y-42276613D01*
X120623387Y-42360489D01*
X120726114Y-42419799D01*
X120840691Y-42450500D01*
X120840694Y-42450500D01*
X120959306Y-42450500D01*
X120959309Y-42450500D01*
X121073886Y-42419799D01*
X121176613Y-42360489D01*
X121260489Y-42276613D01*
X121319799Y-42173886D01*
X121350500Y-42059309D01*
X121350500Y-41940691D01*
X121319799Y-41826114D01*
X121260489Y-41723387D01*
X121176613Y-41639511D01*
X121073886Y-41580201D01*
X120959309Y-41549500D01*
X120840691Y-41549500D01*
X120726114Y-41580201D01*
X120726112Y-41580201D01*
X120726112Y-41580202D01*
X120623387Y-41639511D01*
X120623384Y-41639513D01*
X120539513Y-41723384D01*
X120539511Y-41723387D01*
X120480201Y-41826114D01*
X120449500Y-41940691D01*
X111482318Y-41940691D01*
X111482376Y-41931764D01*
X111500492Y-39123700D01*
X111520608Y-39056789D01*
X111573706Y-39011376D01*
X111624489Y-39000500D01*
X151575500Y-39000500D01*
X151642539Y-39020185D01*
G37*
%TD.AperFunction*%
%TD*%
M02*
