%TF.GenerationSoftware,KiCad,Pcbnew,9.0.6*%
%TF.CreationDate,2025-12-24T13:44:07+01:00*%
%TF.ProjectId,10W-RGBW-Lars-v1,3130572d-5247-4425-972d-4c6172732d76,rev?*%
%TF.SameCoordinates,Original*%
%TF.FileFunction,Legend,Bot*%
%TF.FilePolarity,Positive*%
%FSLAX46Y46*%
G04 Gerber Fmt 4.6, Leading zero omitted, Abs format (unit mm)*
G04 Created by KiCad (PCBNEW 9.0.6) date 2025-12-24 13:44:07*
%MOMM*%
%LPD*%
G01*
G04 APERTURE LIST*
%ADD10C,0.105000*%
%ADD11C,0.120000*%
G04 APERTURE END LIST*
D10*
X116527873Y-77830921D02*
X115827873Y-77830921D01*
X115827873Y-77830921D02*
X115827873Y-77997588D01*
X115827873Y-77997588D02*
X115861206Y-78097588D01*
X115861206Y-78097588D02*
X115927873Y-78164255D01*
X115927873Y-78164255D02*
X115994540Y-78197588D01*
X115994540Y-78197588D02*
X116127873Y-78230921D01*
X116127873Y-78230921D02*
X116227873Y-78230921D01*
X116227873Y-78230921D02*
X116361206Y-78197588D01*
X116361206Y-78197588D02*
X116427873Y-78164255D01*
X116427873Y-78164255D02*
X116494540Y-78097588D01*
X116494540Y-78097588D02*
X116527873Y-77997588D01*
X116527873Y-77997588D02*
X116527873Y-77830921D01*
X116527873Y-78897588D02*
X116527873Y-78497588D01*
X116527873Y-78697588D02*
X115827873Y-78697588D01*
X115827873Y-78697588D02*
X115927873Y-78630921D01*
X115927873Y-78630921D02*
X115994540Y-78564255D01*
X115994540Y-78564255D02*
X116027873Y-78497588D01*
D11*
%TO.C,D1*%
X115450000Y-80500000D02*
X115450000Y-74725000D01*
X115450000Y-80500000D02*
X112950000Y-80500000D01*
X112950000Y-80500000D02*
X112950000Y-74725000D01*
%TD*%
M02*
