M48
; DRILL file {KiCad 9.0.6} date 2025-12-29T13:59:20+0100
; FORMAT={-:-/ absolute / metric / decimal}
; #@! TF.CreationDate,2025-12-29T13:59:20+01:00
; #@! TF.GenerationSoftware,Kicad,Pcbnew,9.0.6
; #@! TF.FileFunction,Plated,1,4,PTH
FMAT,2
METRIC
; #@! TA.AperFunction,Plated,PTH,ViaDrill
T1C0.150
; #@! TA.AperFunction,Plated,PTH,ComponentDrill
T2C0.200
; #@! TA.AperFunction,Plated,PTH,ViaDrill
T3C0.300
; #@! TA.AperFunction,Plated,PTH,ComponentDrill
T4C0.300
; #@! TA.AperFunction,Plated,PTH,ViaDrill
T5C0.600
; #@! TA.AperFunction,Plated,PTH,ComponentDrill
T6C0.600
; #@! TA.AperFunction,Plated,PTH,ComponentDrill
T7C1.200
%
G90
G05
T1
X106.0Y-56.3
X106.4Y-56.3
X106.8Y-56.3
X107.2Y-56.3
X107.2Y-58.1
X107.2Y-58.7
X107.2Y-59.5
X107.2Y-60.1
X107.2Y-61.0
X107.3Y-57.6
X107.5Y-61.5
X107.6Y-56.3
X107.8Y-57.0
X108.0Y-56.3
X108.2Y-61.7
X108.4Y-56.3
X108.4Y-57.0
X108.8Y-56.3
X109.0Y-61.8
X109.2Y-56.3
X109.3Y-57.0
X109.6Y-56.3
X109.7Y-61.8
X110.0Y-56.3
X110.0Y-57.1
X110.2Y-61.6
X110.3Y-60.5
X110.3Y-61.0
X110.4Y-57.5
X110.5Y-56.3
X110.5Y-58.2
X110.8Y-60.4
X110.9Y-56.3
X111.1Y-58.5
X111.3Y-56.3
X111.3Y-60.1
X111.4Y-67.2
X111.5Y-58.6
X111.6Y-39.3
X111.6Y-39.7
X111.6Y-40.1
X111.6Y-40.5
X111.6Y-40.9
X111.6Y-41.3
X111.6Y-41.7
X111.6Y-42.1
X111.6Y-42.5
X111.6Y-42.9
X111.6Y-43.3
X111.6Y-43.7
X111.6Y-44.1
X111.6Y-44.5
X111.6Y-44.9
X111.6Y-45.3
X111.6Y-45.7
X111.6Y-46.1
X111.6Y-46.5
X111.6Y-46.9
X111.6Y-47.3
X111.6Y-47.7
X111.6Y-48.1
X111.6Y-48.5
X111.6Y-48.9
X111.6Y-49.3
X111.6Y-49.7
X111.6Y-50.1
X111.6Y-50.5
X111.6Y-52.1
X111.6Y-52.6
X111.6Y-53.1
X111.6Y-54.1
X111.6Y-54.7
X111.6Y-55.1
X111.6Y-55.6
X111.6Y-56.0
X111.7Y-50.9
X111.7Y-59.9
X111.8Y-58.2
X111.9Y-56.4
X111.9Y-56.8
X111.9Y-57.3
X111.9Y-57.8
X112.0Y-56.0
X112.1Y-52.1
X112.2Y-50.9
X112.2Y-55.5
X112.2Y-59.7
X112.5Y-55.2
X112.6Y-52.3
X112.6Y-59.4
X112.8Y-59.0
X112.9Y-51.0
X112.9Y-54.9
X113.0Y-58.5
X113.0Y-74.0
X113.1Y-52.5
X113.1Y-56.7
X113.1Y-57.2
X113.1Y-57.7
X113.1Y-58.1
X113.2Y-56.3
X113.3Y-51.2
X113.4Y-54.6
X113.4Y-72.7
X113.5Y-52.8
X113.5Y-56.0
X113.5Y-71.8
X113.7Y-51.4
X113.7Y-53.3
X113.8Y-53.8
X113.8Y-54.3
X113.9Y-55.7
X113.945Y-63.008
X114.1Y-51.7
X114.4Y-52.0
X114.4Y-55.9
X114.7Y-52.4
X114.7Y-66.4
X114.9Y-52.9
X114.9Y-55.8
X115.1Y-53.4
X115.3Y-55.5
X115.3Y-73.2
X115.4Y-70.8
X115.4Y-73.9
X115.4Y-74.7
X115.47Y-71.722
X115.5Y-53.8
X115.5Y-72.6
X115.612Y-58.95
X115.7Y-55.4
X115.841Y-64.53
X116.0Y-53.9
X116.3Y-55.3
X116.3Y-62.9
X116.3Y-63.6
X116.4Y-53.9
X116.8Y-55.3
X116.9Y-53.9
X116.993Y-69.242
X117.0Y-64.1
X117.0Y-68.0
X117.0Y-68.7
X117.011Y-70.185
X117.1Y-62.9
X117.8Y-50.9
X118.0Y-62.301
X118.097Y-59.702
X118.1Y-51.3
X118.7Y-57.4
X118.783Y-57.857
X119.1Y-70.6
X119.2Y-64.5
X119.6Y-70.4
X120.3Y-71.8
X120.4Y-70.1
X120.5Y-56.4
X121.0Y-70.2
X121.4Y-64.2
X121.6Y-65.8
X122.2Y-65.0
X122.5Y-64.1
X122.9Y-71.6
X123.1Y-66.4
X123.4Y-71.5
X124.3Y-50.9
X126.4Y-68.2
X126.6Y-69.9
X127.1Y-69.0
X127.3Y-70.5
X128.176Y-58.693
X129.7Y-70.3
X130.2Y-74.4
X130.6Y-71.4
X130.7Y-75.8
X131.2Y-75.6
X132.4Y-58.5
T2
X118.625Y-67.225
X118.625Y-68.375
X119.775Y-67.225
X119.775Y-68.375
X123.68Y-55.42
X123.68Y-56.42
X123.68Y-57.42
X124.68Y-55.42
X124.68Y-56.42
X124.68Y-57.42
X125.68Y-55.42
X125.68Y-56.42
X125.68Y-57.42
X130.605Y-46.505
X130.605Y-47.605
X133.1Y-67.3
X133.1Y-68.4
X144.5Y-46.9
X144.5Y-48.0
X144.5Y-65.35
X144.5Y-66.45
T3
X109.4Y-68.0
X109.476Y-68.8
X112.1Y-45.2
X112.5Y-41.3
X112.6Y-39.8
X112.8Y-43.4
X113.0Y-80.7
X113.3Y-46.4
X113.4Y-42.2
X113.4Y-66.0
X113.6Y-70.8
X113.9Y-67.6
X113.9Y-68.4
X114.8Y-57.0
X115.5Y-61.4
X116.8Y-57.4
X117.0Y-80.3
X117.2Y-79.1
X117.306Y-69.783
X117.5Y-73.1
X117.6Y-60.3
X117.7Y-56.4
X117.8Y-81.0
X118.0Y-47.5
X118.0Y-52.0
X118.0Y-76.5
X118.086Y-72.457
X118.2Y-48.6
X118.6Y-55.5
X118.6Y-56.4
X118.7Y-46.7
X118.9Y-53.7
X119.1Y-76.6
X119.3Y-56.4
X119.5Y-55.5
X119.8Y-53.7
X120.3Y-76.7
X120.6Y-53.7
X120.8Y-66.1
X120.815Y-56.989
X120.9Y-42.0
X120.9Y-45.7
X120.9Y-53.0
X121.2Y-75.0
X121.2Y-76.0
X121.4Y-55.4
X121.4Y-77.1
X121.5Y-53.7
X121.56Y-56.21
X121.6Y-61.8
X121.625Y-70.2
X122.3Y-62.0
X122.3Y-77.7
X122.6Y-52.8
X122.8Y-59.9
X123.21Y-44.8
X123.3Y-77.7
X123.35Y-70.05
X123.5Y-73.294
X123.7Y-78.4
X123.8Y-63.934
X123.9Y-61.1
X123.984Y-45.516
X124.2Y-49.9
X124.3Y-77.7
X124.4Y-47.9
X124.4Y-52.8
X124.5Y-78.5
X124.6Y-44.0
X124.674Y-72.75
X125.08Y-60.48
X125.67Y-65.33
X125.7Y-73.0
X125.8Y-76.472
X126.1Y-61.9
X126.3Y-60.6
X126.5Y-45.7
X126.6Y-49.1
X126.7Y-64.0
X126.9Y-79.0
X126.921Y-52.401
X127.0Y-80.3
X127.2Y-53.1
X127.5Y-64.2
X127.5Y-77.9
X127.8Y-45.5
X127.8Y-46.8
X127.83Y-57.743
X128.1Y-55.05
X128.45Y-61.4
X128.5Y-50.9
X129.0Y-54.3
X129.3Y-79.6
X129.343Y-57.8
X129.35Y-61.4
X129.7Y-63.2
X129.799Y-56.098
X129.894Y-54.558
X129.9Y-49.6
X130.0Y-55.3
X130.6Y-58.1
X130.7Y-43.4
X130.7Y-45.2
X130.8Y-48.9
X130.8Y-50.2
X131.2Y-76.4
X131.4Y-56.8
X131.6Y-55.0
X132.1Y-75.6
X132.4Y-56.8
X132.449Y-69.551
X132.5Y-52.7
X132.5Y-55.0
X132.705Y-46.305
X132.8Y-40.2
X132.8Y-80.6
X133.1Y-48.3
X133.4Y-55.0
X133.5Y-56.8
X133.6Y-50.4
X133.7Y-61.8
X133.9Y-40.3
X134.2Y-79.6
X134.4Y-60.9
X134.6Y-67.1
X134.6Y-77.1
X135.0Y-40.1
X135.1Y-43.455
X135.2Y-67.1
X135.2Y-75.8
X135.3Y-53.8
X135.4Y-79.2
X135.5Y-41.1
X135.5Y-42.1
X135.5Y-70.9
X135.6Y-49.0
X135.6Y-69.3
X135.7Y-54.8
X135.7Y-77.2
X136.3Y-57.8
X136.405Y-48.705
X136.5Y-53.8
X136.5Y-56.4
X136.7Y-54.8
X136.9Y-55.8
X137.0Y-57.2
X137.1Y-76.7
X137.4Y-43.9
X137.6Y-54.1
X137.6Y-55.2
X137.6Y-56.3
X137.8Y-57.7
X138.0Y-62.0
X138.0Y-63.0
X138.2Y-48.0
X138.4Y-50.6
X138.4Y-54.8
X138.4Y-55.7
X138.4Y-56.7
X138.6Y-72.5
X138.8Y-49.5
X138.9Y-46.2
X138.9Y-47.2
X138.9Y-69.5
X139.0Y-80.4
X139.2Y-55.2
X139.2Y-56.1
X139.2Y-57.1
X139.3Y-50.6
X139.3Y-54.0
X139.4Y-66.0
X139.7Y-49.4
X139.9Y-50.6
X139.98Y-65.38
X140.0Y-48.2
X140.2Y-55.8
X140.2Y-57.2
X140.4Y-54.3
X140.4Y-69.9
X140.5Y-53.5
X140.7Y-68.2
X140.7Y-69.2
X140.9Y-47.8
X140.9Y-49.5
X140.9Y-50.6
X140.9Y-56.6
X141.1Y-55.1
X141.2Y-54.3
X141.4Y-46.6
X141.8Y-55.7
X141.8Y-63.9
X142.1Y-50.9
X142.1Y-53.9
X142.3Y-80.5
X142.6Y-54.9
X142.9Y-65.9
X143.1Y-67.3
X143.4Y-80.4
X143.8Y-70.6
X143.8Y-71.7
X143.8Y-76.0
X144.0Y-49.1
X144.1Y-50.2
X144.2Y-68.8
X144.3Y-42.9
X144.3Y-77.0
X144.4Y-58.7
X144.4Y-80.2
X144.6Y-71.1
X144.7Y-44.1
X145.1Y-67.9
X145.4Y-70.6
X145.4Y-71.7
X145.5Y-76.5
X146.0Y-46.7
X146.1Y-65.3
X146.2Y-66.7
X146.2Y-71.1
X146.6Y-46.7
X146.6Y-68.1
X146.727Y-59.735
X147.0Y-40.3
X147.5Y-69.6
X147.7Y-51.2
X148.3Y-40.2
X148.8Y-58.6
X149.0Y-43.85
X149.3Y-42.5
X149.5Y-41.7
X149.5Y-60.7
X149.8Y-81.0
X149.9Y-67.5
X150.2Y-59.1
X150.3Y-49.1
X150.6Y-62.4
X150.6Y-74.6
X150.7Y-44.8
X150.7Y-70.0
X150.8Y-45.7
X150.8Y-64.1
X151.1Y-57.0
X151.1Y-80.0
X151.3Y-63.2
X151.4Y-69.4
T4
X111.0Y-53.6
T5
X117.75Y-77.85
T7
X108.9Y-75.9
X108.9Y-78.44
T6
X108.125Y-64.08G85X107.325Y-64.08
G05
X108.125Y-72.72G85X107.325Y-72.72
G05
X112.455Y-64.08G85X111.355Y-64.08
G05
X112.455Y-72.72G85X111.355Y-72.72
G05
M30
